<svg xmlns="http://www.w3.org/2000/svg" version="1.1" width="300px" height="300px" style="background: transparent;" transform="rotate(0) scale(1, 1)">

<path d="M0 0 C1.41511947 -0.04086988 2.83058749 -0.06976079 4.24609375 -0.09375 C5.0342749 -0.11115234 5.82245605 -0.12855469 6.63452148 -0.14648438 C10.24144724 0.07687773 12.80210223 1.36703093 16 3 C16 3.66 16 4.32 16 5 C17.051875 5.0928125 17.051875 5.0928125 18.125 5.1875 C23.38904796 6.67516573 26.22785323 9.81906965 29.125 14.25 C29.7638024 15.49300301 30.38828887 16.7434434 31 18 C31.350625 18.64582031 31.70125 19.29164062 32.0625 19.95703125 C34.97644705 25.73136014 35.79176355 31.36389799 36.5625 37.75 C36.91072047 40.3367806 37.35506153 42.64408717 38.125 45.125 C39 48 39 48 39 52 C39.66 52 40.32 52 41 52 C41.99 56.29 42.98 60.58 44 65 C44.66 65 45.32 65 46 65 C47.3671875 66.64453125 47.3671875 66.64453125 48.875 68.8125 C50.53023185 71.19135415 51.86141748 72.89667958 54.1953125 74.63671875 C54.79085937 75.08660156 55.38640625 75.53648438 56 76 C56 76.66 56 77.32 56 78 C56.99 78.33 57.98 78.66 59 79 C60.04237975 80.72644145 61.07811218 82.45892321 62.02734375 84.23828125 C62.99796366 86.10600633 62.99796366 86.10600633 64.5625 88 C68.56305759 93.56599317 69.67066506 98.68238347 69.484375 105.47265625 C68.9510146 108.25559318 68.42509634 109.22759029 66.3125 111.0625 C59.47186459 115.06362637 53.86794714 115.74063895 46 115 C43.9697411 114.06295743 41.96303418 113.07074592 40 112 C36.4547869 111.3082511 33.41423154 111.23026707 30.19140625 112.984375 C28.0343359 114.6603721 26.32094048 116.33519471 25.125 118.8125 C25.08375 119.534375 25.0425 120.25625 25 121 C24.896875 122.299375 24.79375 123.59875 24.6875 124.9375 C24.71065765 129.08272012 26.15317294 130.97524625 29 134 C29 134.66 29 135.32 29 136 C32.90659311 137.3021977 36.96847567 137.91128489 41 137 C44.61511664 134.5963663 47.63950976 131.61697611 50.4296875 128.30078125 C53.17623877 126.02565296 56.05618274 126.47120901 59.48046875 126.6015625 C63.88053571 127.29738704 65.26998271 128.40787199 68 132 C68.476819 135.39474394 68.3567213 138.59793576 68 142 C67.34 142 66.68 142 66 142 C65.88527344 142.57234375 65.77054687 143.1446875 65.65234375 143.734375 C64.93817644 146.21471656 63.92692128 148.06368697 62.5625 150.25 C62.13066406 150.95640625 61.69882813 151.6628125 61.25390625 152.390625 C60.63322266 153.18726563 60.63322266 153.18726563 60 154 C59.34 154 58.68 154 58 154 C58 154.66 58 155.32 58 156 C56.30729167 156.65104167 54.61458333 157.30208333 52.921875 157.953125 C50.36786549 159.34433343 48.8123619 160.71111192 47 163 C46.01290535 167.44192591 46.09907988 171.54514345 47 176 C49.67016256 179.87490609 53.00577384 181.55137593 57.53515625 182.5703125 C59.70731617 182.83882038 61.81276329 182.9898739 64 183 C64 182.34 64 181.68 64 181 C65.65532623 179.98133771 67.32260138 178.98189187 69 178 C70.92583726 174.14832548 70.33297167 169.11125468 70.4296875 164.828125 C70.62771046 159.81154342 71.3864887 156.41276279 74 152 C74.495 150.9275 74.99 149.855 75.5 148.75 C77 146 77 146 80 144 C83.3125 143.3125 83.3125 143.3125 87 144 C89.53126212 146.70745206 91.24494891 149.75128841 93 153 C93.598125 154.051875 94.19625 155.10375 94.8125 156.1875 C96.06045542 159.14318389 96.62170545 161.82232582 97 165 C97.66 165 98.32 165 99 165 C98.67 170.28 98.34 175.56 98 181 C99.32 181.33 100.64 181.66 102 182 C102.495 184.475 102.495 184.475 103 187 C104.89510699 187.08160748 106.79124504 187.13946459 108.6875 187.1875 C109.74324219 187.22230469 110.79898438 187.25710937 111.88671875 187.29296875 C115.41836599 186.96063055 117.18255429 186.11678496 120 184 C122.22698735 180.65951897 122.2711921 179.46714419 122.25 175.5625 C122.25515625 174.61503906 122.2603125 173.66757813 122.265625 172.69140625 C121.99351396 169.9342811 121.51096717 168.30566271 120 166 C117.67145537 164.80161791 117.67145537 164.80161791 115 164 C113.33333333 163.33333333 111.66666667 162.66666667 110 162 C110 161.01 110 160.02 110 159 C109.01 159 108.02 159 107 159 C106.17977388 156.64828157 105.3687346 154.2940149 104.5625 151.9375 C104.33240234 151.28072266 104.10230469 150.62394531 103.86523438 149.94726562 C102.4073705 145.65818784 101.30642804 141.5518493 101 137 C103 134 103 134 104.890625 133.4609375 C113.23064141 133.15716207 120.15146857 136.46776064 127 141 C128.84633682 142.90492583 130.38063241 144.88410158 132 147 C136.08161502 151.38026977 138.43195455 153.86242614 144.5 154.1875 C147.21606427 154.04199656 149.43249876 153.8216004 152 153 C152 152.34 152 151.68 152 151 C152.99 150.67 153.98 150.34 155 150 C157.57490477 145.66331828 157.39409225 140.89407586 157 136 C156.67 135.01 156.34 134.02 156 133 C155.34 133 154.68 133 154 133 C154 132.34 154 131.68 154 131 C153.38125 130.690625 152.7625 130.38125 152.125 130.0625 C150.75 129.375 149.375 128.6875 148 128 C145.70924479 127.89454324 143.41724207 127.81562656 141.125 127.75 C131.15931053 127.25656603 122.96426813 123.66454017 114.71875 118.11328125 C112.87421323 116.91852448 110.97965825 115.95075692 109 115 C108.1841536 109.49303682 108.89819955 106.30490945 112 101.625 C115.97793894 96.93875898 119.38358623 96.05976609 125.25 95.5625 C126.63010632 95.49904317 128.01031425 95.43774898 129.390625 95.37890625 C133.13950271 94.98535524 134.23990449 94.37393536 137 92 C137.99 92 138.98 92 140 92 C141.19962341 87.05155345 141.45598732 82.39393344 140.5 77.375 C138.13335519 73.62781238 135.1116155 71.59974118 131 70 C127.75645149 69.63361911 125.07644894 69.90210696 122 71 C119.08113411 73.41636938 119.08113411 73.41636938 117 76 C116.34 76 115.68 76 115 76 C115.020625 76.94875 115.04125 77.8975 115.0625 78.875 C114.17763691 84.9568759 109.54076602 89.23242943 105 93 C102.59957975 94.39105626 101.17078054 94.87019559 98.40625 94.89453125 C92.16178718 92.57313192 86.90096312 85.56350035 83.84765625 79.83984375 C83.1875 78 83.1875 78 82.671875 76.140625 C80.88598611 70.45069994 77.66569857 65.05652939 74.81640625 59.828125 C74 58 74 58 74 55 C73.34 55 72.68 55 72 55 C70.26822467 49.80467402 70.36691096 44.76598522 72.1875 39.6875 C74.24173096 36.64157133 75.73156767 35.6200791 79 34 C81.70043945 33.61181641 81.70043945 33.61181641 84.61328125 33.6015625 C86.22734863 33.59274048 86.22734863 33.59274048 87.87402344 33.58374023 C89.57606934 33.60416382 89.57606934 33.60416382 91.3125 33.625 C92.47426758 33.63152588 93.63603516 33.63805176 94.83300781 33.64477539 C103.89540457 33.78515567 112.19951235 34.90825848 121 37 C122.99735151 37.34885249 124.9966613 37.68735775 127 38 C127 38.66 127 39.32 127 40 C128.32 40.33 129.64 40.66 131 41 C131 41.66 131 42.32 131 43 C131.99 43 132.98 43 134 43 C134 43.66 134 44.32 134 45 C135.36125 45.433125 135.36125 45.433125 136.75 45.875 C139.32202908 46.76531776 141.61346766 47.71494413 144 49 C144 49.66 144 50.32 144 51 C144.58265625 51.26296875 145.1653125 51.5259375 145.765625 51.796875 C148.10607167 53.05711551 149.79459301 54.45619689 151.75 56.25 C154.49751703 58.73046864 157.27821691 60.94464864 160.3125 63.0625 C163.80516967 65.62242942 165.28782023 67.97637755 167 72 C167.59296875 72.72058594 168.1859375 73.44117187 168.796875 74.18359375 C171.47043085 77.60138412 173.4752916 81.17230425 175.5 85 C175.89509766 85.74604492 176.29019531 86.49208984 176.69726562 87.26074219 C179.98987984 93.65212683 182.31808551 99.99202296 184 107 C184.176521 107.7314624 184.35304199 108.4629248 184.53491211 109.21655273 C185.10134925 112.60655266 185.11180162 115.83220753 185.09765625 119.26953125 C185.09553383 120.29103523 185.09553383 120.29103523 185.09336853 121.33317566 C185.08780298 123.49299647 185.07525703 125.65271089 185.0625 127.8125 C185.05748054 129.28320162 185.05291841 130.75390488 185.04882812 132.22460938 C185.03784488 135.8164404 185.02060422 139.4082098 185 143 C184.34 143 183.68 143 183 143 C182.8453125 144.7634375 182.8453125 144.7634375 182.6875 146.5625 C182.15522456 150.78373997 180.80266317 154.12761244 179 158 C178.43697852 159.5414763 177.87452545 161.08316027 177.3125 162.625 C169.80945983 181.19994213 153.00088943 200.87187792 134.4921875 209.1171875 C132.01120424 210.13179856 129.51901242 211.08437907 127 212 C125.865625 212.4125 124.73125 212.825 123.5625 213.25 C121 214 121 214 118 214 C118 214.66 118 215.32 118 216 C98.15394816 221.3431678 73.50225438 222.05807909 55 212 C55 211.34 55 210.68 55 210 C54.28972656 209.89429688 53.57945313 209.78859375 52.84765625 209.6796875 C35.80033138 205.61077868 20.82152254 187.14956601 12 173 C7.84507141 165.60869109 4.4235232 158.31717336 2.5078125 150.01171875 C2.18683199 148.01598644 2.18683199 148.01598644 1 147 C-0.24672809 139.79837188 -0.13414915 132.62287608 -0.11352539 125.33203125 C-0.1132429 123.96141054 -0.11340246 122.59078969 -0.1139679 121.22016907 C-0.11425346 117.52033414 -0.10839583 113.82053199 -0.10139394 110.12070465 C-0.09512013 106.24632435 -0.09455342 102.37194319 -0.09336853 98.49755859 C-0.09026705 91.17025418 -0.08206968 83.84296478 -0.07201904 76.51566696 C-0.06082107 68.16981401 -0.05533818 59.82396033 -0.05032361 51.47810173 C-0.03988603 34.31872582 -0.0223096 17.1593645 0 0 Z " fill="#ffc42e" transform="translate(65,41)"/>
<path d="M0 0 C1.41511947 -0.04086988 2.83058749 -0.06976079 4.24609375 -0.09375 C5.0342749 -0.11115234 5.82245605 -0.12855469 6.63452148 -0.14648438 C10.24144724 0.07687773 12.80210223 1.36703093 16 3 C16 3.66 16 4.32 16 5 C14.35 5 12.7 5 11 5 C11 4.34 11 3.68 11 3 C8.36 3.66 5.72 4.32 3 5 C3 50.87 3 96.74 3 144 C3.33 144 3.66 144 4 144 C4.495 149.94 4.495 149.94 5 156 C-1.04770344 146.92844483 -0.14310843 135.79013233 -0.11352539 125.33203125 C-0.1132429 123.96141054 -0.11340246 122.59078969 -0.1139679 121.22016907 C-0.11425346 117.52033414 -0.10839583 113.82053199 -0.10139394 110.12070465 C-0.09512013 106.24632435 -0.09455342 102.37194319 -0.09336853 98.49755859 C-0.09026705 91.17025418 -0.08206968 83.84296478 -0.07201904 76.51566696 C-0.06082107 68.16981401 -0.05533818 59.82396033 -0.05032361 51.47810173 C-0.03988603 34.31872582 -0.0223096 17.1593645 0 0 Z " fill="#ffa12e" transform="translate(65,41)"/>
<path d="M0 0 C4.95 0 9.9 0 15 0 C15 0.66 15 1.32 15 2 C15.99 2 16.98 2 18 2 C18 2.66 18 3.32 18 4 C17.030625 3.690625 16.06125 3.38125 15.0625 3.0625 C10.23545785 1.69540904 10.23545785 1.69540904 2 1 C2.33 48.19 2.66 95.38 3 144 C2.34 143.67 1.68 143.34 1 143 C-0.43104586 136.52302943 -0.18060519 129.86211077 -0.22119141 123.25927734 C-0.2326973 121.98856888 -0.24420319 120.71786041 -0.25605774 119.40864563 C-0.28722401 115.93985228 -0.31243358 112.47103981 -0.3362546 109.00218916 C-0.35674951 106.10191414 -0.38026228 103.20166683 -0.40379179 100.30141509 C-0.45928104 93.46008558 -0.5100281 86.61873247 -0.55761719 79.77734375 C-0.60673975 72.72505871 -0.66305656 65.67285771 -0.72303832 58.62065732 C-0.77440696 52.55682063 -0.82173165 46.49296195 -0.86572587 40.42906725 C-0.89198914 36.81114231 -0.91968273 33.19324354 -0.9510994 29.57535934 C-0.98585532 25.54424471 -1.01214436 21.5131177 -1.03759766 17.48193359 C-1.04897263 16.28596054 -1.0603476 15.08998749 -1.07206726 13.85777283 C-1.07766159 12.75876144 -1.08325592 11.65975006 -1.08901978 10.5274353 C-1.09601709 9.57509695 -1.10301441 8.6227586 -1.11022377 7.64156151 C-1 5 -1 5 0 0 Z " fill="#ff7e2e" transform="translate(63,40)"/>
<path d="M0 0 C0.33 0 0.66 0 1 0 C1 2.31 1 4.62 1 7 C0.01 7.33 -0.98 7.66 -2 8 C-2.33 8.99 -2.66 9.98 -3 11 C-5.21484375 12.53515625 -5.21484375 12.53515625 -7.9375 14.0625 C-11.72081765 16.19623733 -11.72081765 16.19623733 -15 19 C-15.40047444 21.32275177 -15.7397104 23.65739357 -16 26 C-15.360625 26.103125 -14.72125 26.20625 -14.0625 26.3125 C-13.381875 26.539375 -12.70125 26.76625 -12 27 C-11.67 27.99 -11.34 28.98 -11 30 C-8.20827761 31.03316488 -8.20827761 31.03316488 -4.9375 31.6875 C-3.28041016 32.06455078 -3.28041016 32.06455078 -1.58984375 32.44921875 C-0.73519531 32.63097656 0.11945313 32.81273437 1 33 C1 33.66 1 34.32 1 35 C-4.63632553 35.62625839 -8.22355777 35.43092944 -13.0625 32.3125 C-15.88882062 29.88285596 -16.87795739 28.49679973 -17.7734375 24.8515625 C-18.02211019 19.67680233 -17.98645352 15.22741415 -14.375 11.25 C-11.44979913 8.92376883 -8.75693806 8.17890181 -5 8 C-5 7.34 -5 6.68 -5 6 C-4.34 6 -3.68 6 -3 6 C-2.690625 5.195625 -2.38125 4.39125 -2.0625 3.5625 C-1 1 -1 1 0 0 Z " fill="#ff5b2e" transform="translate(128,189)"/>
<path d="M0 0 C0.9075 0.495 1.815 0.99 2.75 1.5 C9.00152005 4.38531695 16.39978335 3.50170067 23 2 C20.4169164 4.70049649 19.04840822 5.92375213 15.20703125 6.203125 C8.53129677 6.29531006 3.94714358 5.97357179 -2 3 C-5.31028505 2.46111639 -6.41719597 2.60036295 -9.1875 4.5 C-11.68100368 7.93931542 -12.24665667 10.82236881 -13 15 C-12.67 15.33 -12.34 15.66 -12 16 C-11.95936168 17.66617115 -11.957279 19.33388095 -12 21 C-11.01 21 -10.02 21 -9 21 C-9 22.32 -9 23.64 -9 25 C-9.66 25 -10.32 25 -11 25 C-14.1654595 21.38233199 -16.33502271 18.77527771 -16.4375 13.875 C-15.82996497 8.49397544 -15.09257187 6.17061271 -11.375 2.1875 C-7.76116179 -0.60661393 -4.41827699 -0.86210283 0 0 Z " fill="#ff2e69" transform="translate(105,152)"/>
<path d="M0 0 C1.9375 0.5625 1.9375 0.5625 4 2 C5.77810688 7.44545233 4.65972767 11.22971005 2.25 16.19140625 C1 18 1 18 -1.625 18.8125 C-2.800625 18.9053125 -2.800625 18.9053125 -4 19 C-4.268125 19.66 -4.53625 20.32 -4.8125 21 C-5.204375 21.66 -5.59625 22.32 -6 23 C-11.32295371 24.17285421 -15.67815184 23.99784653 -21 23 C-21.2475 23.639375 -21.495 24.27875 -21.75 24.9375 C-23 27 -23 27 -25.125 27.75 C-26.053125 27.87375 -26.053125 27.87375 -27 28 C-25.79618552 25.50638429 -24.54571278 23.31856917 -23 21 C-20.33234417 20.53096161 -17.81340558 20.20936256 -15.125 20 C-10.26911769 19.61778386 -6.80960298 19.26031139 -3 16 C-2.01 16 -1.02 16 0 16 C1.29188056 10.67099269 1.69057861 5.28305817 0 0 Z " fill="#ff382e" transform="translate(205,117)"/>
<path d="M0 0 C0.66 0 1.32 0 2 0 C1.67 5.28 1.34 10.56 1 16 C2.32 16.33 3.64 16.66 5 17 C5.33 18.65 5.66 20.3 6 22 C7.89510699 22.08160748 9.79124504 22.13946459 11.6875 22.1875 C13.27111328 22.23970703 13.27111328 22.23970703 14.88671875 22.29296875 C18.41836599 21.96063055 20.18255429 21.11678496 23 19 C25.02350324 15.96474514 25.32124018 14.80573798 25.625 11.3125 C25.69976562 10.50425781 25.77453125 9.69601563 25.8515625 8.86328125 C25.90054688 8.24839844 25.94953125 7.63351563 26 7 C26.66 7.33 27.32 7.66 28 8 C28.05437607 9.58294782 28.09296271 11.16644256 28.125 12.75 C28.14820313 13.63171875 28.17140625 14.5134375 28.1953125 15.421875 C27.98630301 18.1808002 27.59882451 19.74524748 26 22 C22.375 22.75 22.375 22.75 19 23 C19 23.66 19 24.32 19 25 C9.0625 25.38970588 9.0625 25.38970588 5 23 C2 19.68965517 2 19.68965517 2 17 C1.34 17 0.68 17 0 17 C0 11.39 0 5.78 0 0 Z " fill="#ff2e47" transform="translate(162,206)"/>
<path d="M0 0 C0.33 0 0.66 0 1 0 C1.33 25.08 1.66 50.16 2 76 C2.33 76 2.66 76 3 76 C3.33 79.96 3.66 83.92 4 88 C0.35427367 82.5314105 -0.29175297 77.51985 -0.22705078 71.06689453 C-0.22734283 70.2954863 -0.22763489 69.52407806 -0.22793579 68.72929382 C-0.22655011 66.1970162 -0.21102512 63.66503828 -0.1953125 61.1328125 C-0.19157966 59.37019003 -0.18873396 57.60756548 -0.18673706 55.84494019 C-0.17912198 51.21877251 -0.15949182 46.59273157 -0.1373291 41.96661377 C-0.11682481 37.24078078 -0.10772556 32.5149272 -0.09765625 27.7890625 C-0.07624386 18.52598616 -0.04213366 9.26300364 0 0 Z " fill="#ff2e47" transform="translate(66,109)"/>
<path d="M0 0 C0.66 0.33 1.32 0.66 2 1 C2.90888858 10.61065517 2.90888858 10.61065517 0.83984375 13.7734375 C-3.98854453 17.84854781 -8.92887139 19.28920628 -15.125 19.3125 C-16.15882812 19.32925781 -17.19265625 19.34601563 -18.2578125 19.36328125 C-21 19 -21 19 -22.8671875 17.48046875 C-23.24101563 16.99191406 -23.61484375 16.50335938 -24 16 C-14.58997722 16.96355353 -14.58997722 16.96355353 -10 18 C-10 17.34 -10 16.68 -10 16 C-8.6875 14.375 -8.6875 14.375 -7 13 C-6.01 13 -5.02 13 -4 13 C-4 12.34 -4 11.68 -4 11 C-3.34 10.67 -2.68 10.34 -2 10 C-1.31068656 7.65092125 -1.31068656 7.65092125 -0.875 4.9375 C-0.70742187 4.01839844 -0.53984375 3.09929687 -0.3671875 2.15234375 C-0.24601562 1.44207031 -0.12484375 0.73179687 0 0 Z " fill="#ff2e47" transform="translate(132,137)"/>
<path d="M0 0 C2.57821139 2.57821139 3.02434808 4.82699374 4.0625 8.3125 C4.40410156 9.44300781 4.74570313 10.57351562 5.09765625 11.73828125 C6.57047462 17.06210523 7.12047647 21.72421838 7.09765625 27.26953125 C7.0962413 27.95053391 7.09482635 28.63153656 7.09336853 29.33317566 C7.08780298 31.49299647 7.07525703 33.65271089 7.0625 35.8125 C7.05748054 37.28320162 7.05291841 38.75390488 7.04882812 40.22460938 C7.03784488 43.8164404 7.02060422 47.4082098 7 51 C6.34 51 5.68 51 5 51 C4.67 52.32 4.34 53.64 4 55 C4.16113281 53.88625 4.32226562 52.7725 4.48828125 51.625 C5.09518467 46.74399267 5.18377737 41.91387215 5.1875 37 C5.19974609 36.14921875 5.21199219 35.2984375 5.22460938 34.421875 C5.23730003 28.90566966 4.47783106 24.30924492 3 19 C2.61433993 16.79694838 2.25794274 14.58847839 1.9375 12.375 C1.33205489 8.24196148 0.69876866 4.11840641 0 0 Z " fill="#ff2e47" transform="translate(243,133)"/>
<path d="M0 0 C1.08249023 -0.00588135 2.16498047 -0.0117627 3.28027344 -0.01782227 C4.43172852 -0.00420654 5.58318359 0.00940918 6.76953125 0.0234375 C7.94032227 0.02996338 9.11111328 0.03648926 10.31738281 0.04321289 C19.41626966 0.18307033 27.74657895 1.29838541 36.58203125 3.3984375 C38.57938276 3.74728999 40.57869255 4.08579525 42.58203125 4.3984375 C42.58203125 5.0584375 42.58203125 5.7184375 42.58203125 6.3984375 C43.90203125 6.7284375 45.22203125 7.0584375 46.58203125 7.3984375 C46.58203125 8.0584375 46.58203125 8.7184375 46.58203125 9.3984375 C47.57203125 9.7284375 48.56203125 10.0584375 49.58203125 10.3984375 C46.14539944 9.95500114 43.56018985 8.90049456 40.51953125 7.3359375 C35.68508626 5.06472173 31.54215793 5.17254604 26.28125 5.55078125 C23.58203125 5.3984375 23.58203125 5.3984375 21.74121094 3.90942383 C19.0649941 2.03661672 17.57423756 2.03708448 14.3359375 2.0703125 C13.33369141 2.07546875 12.33144531 2.080625 11.29882812 2.0859375 C10.25791016 2.1065625 9.21699219 2.1271875 8.14453125 2.1484375 C7.10748047 2.15359375 6.07042969 2.15875 5.00195312 2.1640625 C0.38034667 2.21155492 -3.89519996 2.37988323 -8.41796875 3.3984375 C-5.8755676 0.16926202 -4.01975405 0.01399798 0 0 Z " fill="#ff2e47" transform="translate(149.41796875,74.6015625)"/>
<path d="M0 0 C0.66 0.33 1.32 0.66 2 1 C1.01 3.64 0.02 6.28 -1 9 C-1.66 9 -2.32 9 -3 9 C-3.13123503 15.59091464 -2.74807452 21.90024855 -1.828125 28.43359375 C-2 31 -2 31 -3.796875 32.91015625 C-6 34 -6 34 -9 33 C-8.34 32.01 -7.68 31.02 -7 30 C-6.68433858 28.07160989 -6.68433858 28.07160989 -6.69140625 25.98046875 C-6.66626953 25.20509766 -6.64113281 24.42972656 -6.61523438 23.63085938 C-6.58033266 22.01374656 -6.54902886 20.39655173 -6.52148438 18.77929688 C-6.35154912 13.76827925 -5.6238371 10.40569662 -3 6 C-2.1646875 4.329375 -2.1646875 4.329375 -1.3125 2.625 C-0.879375 1.75875 -0.44625 0.8925 0 0 Z " fill="#ff2e47" transform="translate(142,187)"/>
<path d="M0 0 C2.475 0.99 2.475 0.99 5 2 C5.33 5.3 5.66 8.6 6 12 C6.66 12 7.32 12 8 12 C10 15 10 15 11 18 C11.66 18 12.32 18 13 18 C13.33 19.32 13.66 20.64 14 22 C18.61507774 23.04214691 18.61507774 23.04214691 23 22 C23.99 22.66 24.98 23.32 26 24 C22.55634855 26.11917013 20.01034597 26.50800972 16 26 C13.78201335 24.19919893 12.13740715 22.63643009 10.3125 20.5 C9.82918213 19.95263184 9.34586426 19.40526367 8.84790039 18.84130859 C5.36519405 14.76086457 3.355212 11.24015308 2 6 C1.608125 4.845 1.21625 3.69 0.8125 2.5 C0.4103125 1.2625 0.4103125 1.2625 0 0 Z " fill="#ff2e47" transform="translate(145,109)"/>
<path d="M0 0 C0.92619141 0.15662109 0.92619141 0.15662109 1.87109375 0.31640625 C2.20109375 0.97640625 2.53109375 1.63640625 2.87109375 2.31640625 C0.98390625 2.16171875 0.98390625 2.16171875 -0.94140625 2.00390625 C-3.14036262 1.94485323 -3.14036262 1.94485323 -5.12890625 2.31640625 C-6.72131284 4.55198656 -6.72131284 4.55198656 -8.12890625 7.31640625 C-12.28892351 11.07974704 -16.01428299 12.62890625 -21.62890625 12.62890625 C-23.1304343 12.54975944 -24.63164602 12.45447328 -26.12890625 12.31640625 C-26.12890625 11.98640625 -26.12890625 11.65640625 -26.12890625 11.31640625 C-24.82953125 11.17203125 -23.53015625 11.02765625 -22.19140625 10.87890625 C-17.6506338 9.93527698 -15.72337563 8.14027142 -12.69140625 4.69140625 C-8.59128862 0.1638912 -6.00619796 -0.57593679 0 0 Z " fill="#ff2e47" transform="translate(125.12890625,167.68359375)"/>
<path d="M0 0 C1.9375 0.3125 1.9375 0.3125 4 1 C4.33 1.99 4.66 2.98 5 4 C5.66 4.309375 6.32 4.61875 7 4.9375 C9 6 9 6 9.75 8.125 C9.87375 9.053125 9.87375 9.053125 10 10 C10.99 9.67 11.98 9.34 13 9 C13.66 9.33 14.32 9.66 15 10 C15 10.99 15 11.98 15 13 C15.61875 13.226875 16.2375 13.45375 16.875 13.6875 C19.61410209 15.37929835 20.05024472 16.99244161 21 20 C12.63402286 16.34589504 5.49721905 8.13546313 0 1 C0 0.67 0 0.34 0 0 Z " fill="#ff2e47" transform="translate(85,224)"/>
<path d="M0 0 C0.33 0 0.66 0 1 0 C0.76034927 1.88297005 0.5201482 3.76587151 0.27734375 5.6484375 C0.09526921 7.19222446 -0.05931557 8.73955153 -0.18359375 10.2890625 C-0.61555505 15.41970488 -1.77421611 19.29161101 -4 24 C-5.03632013 26.65410496 -6.01493191 29.32624375 -7 32 C-7.33 32 -7.66 32 -8 32 C-8.25328119 26.93437617 -7.33583899 22.84241633 -6 18 C-5.34 18 -4.68 18 -4 18 C-3.79503906 16.78441406 -3.59007812 15.56882813 -3.37890625 14.31640625 C-3.10698039 12.73173486 -2.83483357 11.14710137 -2.5625 9.5625 C-2.42779297 8.76005859 -2.29308594 7.95761719 -2.15429688 7.13085938 C-1.11328125 1.11328125 -1.11328125 1.11328125 0 0 Z " fill="#ff2e47" transform="translate(248,175)"/>
<path d="M0 0 C0.66 0.33 1.32 0.66 2 1 C1.38125 1.495 0.7625 1.99 0.125 2.5 C-2.77550725 5.91236147 -3.20838514 8.61013575 -4 13 C-3.67 13.33 -3.34 13.66 -3 14 C-2.95936168 15.66617115 -2.957279 17.33388095 -3 19 C-2.01 19 -1.02 19 0 19 C0 20.32 0 21.64 0 23 C-0.66 23 -1.32 23 -2 23 C-5.1654595 19.38233199 -7.33502271 16.77527771 -7.4375 11.875 C-6.76821192 5.94701987 -6.76821192 5.94701987 -5 3 C-2.5 1.125 -2.5 1.125 0 0 Z " fill="#ff2e47" transform="translate(96,154)"/>
<path d="M0 0 C0 2.77996107 -0.21297929 5.42492567 -0.5 8.1875 C-0.5928125 9.08855469 -0.685625 9.98960937 -0.78125 10.91796875 C-0.88953125 11.94857422 -0.88953125 11.94857422 -1 13 C-0.0409375 13.1546875 -0.0409375 13.1546875 0.9375 13.3125 C1.618125 13.539375 2.29875 13.76625 3 14 C3.33 14.99 3.66 15.98 4 17 C6.79172239 18.03316488 6.79172239 18.03316488 10.0625 18.6875 C11.16722656 18.93886719 12.27195312 19.19023437 13.41015625 19.44921875 C14.26480469 19.63097656 15.11945313 19.81273437 16 20 C16 20.66 16 21.32 16 22 C10.36367447 22.62625839 6.77644223 22.43092944 1.9375 19.3125 C-1.00901406 16.81771632 -1.89638073 15.53856437 -2.6328125 11.7109375 C-2.6847677 8.3635384 -2.60341307 5.29343774 -2 2 C-1.34 1.34 -0.68 0.68 0 0 Z " fill="#ff2e47" transform="translate(113,202)"/>
<path d="M0 0 C3.5 0.5625 3.5 0.5625 5.4375 2.4375 C6.5 4.5625 6.5 4.5625 6.5 6.5625 C5.84 6.5625 5.18 6.5625 4.5 6.5625 C4.17 5.9025 3.84 5.2425 3.5 4.5625 C-0.21599191 4.36163557 -1.27208445 4.4105563 -4.5 6.5625 C-5.697853 8.79652829 -5.697853 8.79652829 -6.625 11.375 C-6.95757812 12.22707031 -7.29015625 13.07914063 -7.6328125 13.95703125 C-8.47338367 16.48253112 -9.03923184 18.94364423 -9.5 21.5625 C-9.83 21.5625 -10.16 21.5625 -10.5 21.5625 C-10.17 18.2625 -9.84 14.9625 -9.5 11.5625 C-8.84 11.5625 -8.18 11.5625 -7.5 11.5625 C-7.396875 10.675625 -7.29375 9.78875 -7.1875 8.875 C-5.5299756 0.88874608 -5.5299756 0.88874608 0 0 Z " fill="#ff2e47" transform="translate(148.5,184.4375)"/>
<path d="M0 0 C0.33 0.66 0.66 1.32 1 2 C0.06553465 4.03144641 -0.93224776 6.03533587 -2 8 C-2.99 8 -3.98 8 -5 8 C-4.67 8.99 -4.34 9.98 -4 11 C-5.85650698 14.36117594 -8.44726452 17.28858733 -11.9609375 18.8984375 C-13.875 19.4375 -13.875 19.4375 -17 20 C-12.74844024 14.98533977 -8.38610675 10.08954549 -3.953125 5.234375 C-1.8788742 2.95910502 -1.8788742 2.95910502 0 0 Z " fill="#ff2e47" transform="translate(234,218)"/>
<path d="M0 0 C2.31 0 4.62 0 7 0 C7 0.66 7 1.32 7 2 C5.9275 2.4125 4.855 2.825 3.75 3.25 C0.39650656 4.73667017 -1.91110288 5.86665432 -4 9 C-4.61827774 12.32717257 -4.8710365 15.62115618 -5 19 C-7 17 -7 17 -7.375 13.25 C-7.27180015 8.89179091 -5.85059555 6.33926907 -3 3 C-2.01 2.67 -1.02 2.34 0 2 C0 1.34 0 0.68 0 0 Z " fill="#ff2e47" transform="translate(116,195)"/>
<path d="M0 0 C0.66 0.33 1.32 0.66 2 1 C1.54625 1.474375 1.0925 1.94875 0.625 2.4375 C-1.00802561 5.01265577 -1.3990401 6.55544904 -1.9375 9.5 C-2.55538979 12.59455548 -2.99480199 13.99272279 -4.875 16.625 C-7 18 -7 18 -9.1328125 17.5859375 C-9.74898437 17.39257812 -10.36515625 17.19921875 -11 17 C-10.65066406 16.55269531 -10.30132812 16.10539062 -9.94140625 15.64453125 C-7.31101372 12.14976044 -5.40792858 9.48721443 -5 5 C-4.34 5 -3.68 5 -3 5 C-2.690625 4.360625 -2.38125 3.72125 -2.0625 3.0625 C-1 1 -1 1 0 0 Z " fill="#ff2e47" transform="translate(185,112)"/>
<path d="M0 0 C4.75862069 2.77586207 4.75862069 2.77586207 6.75 4.625 C10.24057579 6.75812965 13.97763071 6.75075062 18 7 C18 6.34 18 5.68 18 5 C19.32 4.67 20.64 4.34 22 4 C22 4.66 22 5.32 22 6 C21.34 6 20.68 6 20 6 C20 6.66 20 7.32 20 8 C15.05 8.33 10.1 8.66 5 9 C5 8.34 5 7.68 5 7 C4.01 7 3.02 7 2 7 C0 4 0 4 0 0 Z " fill="#ff2e47" transform="translate(111,217)"/>
<path d="M0 0 C0.66 0 1.32 0 2 0 C1.67 5.28 1.34 10.56 1 16 C2.32 16.33 3.64 16.66 5 17 C5.33 18.65 5.66 20.3 6 22 C9.96 22.33 13.92 22.66 18 23 C18 23.33 18 23.66 18 24 C8.05218189 24.78397866 8.05218189 24.78397866 3.8125 21.625 C2 19 2 19 2 17 C1.34 17 0.68 17 0 17 C0 11.39 0 5.78 0 0 Z " fill="#ff2e47" transform="translate(162,206)"/>
<path d="M0 0 C0.66 0 1.32 0 2 0 C2 0.66 2 1.32 2 2 C2.99 2.33 3.98 2.66 5 3 C6.04112387 4.72436141 7.07557483 6.45496289 8.01953125 8.234375 C9.00247643 10.12778097 9.00247643 10.12778097 10.6875 12.0625 C12.42078767 14.62116275 12.65507855 16.96469121 13 20 C12.34 20 11.68 20 11 20 C11 18.35 11 16.7 11 15 C10.01 14.67 9.02 14.34 8 14 C8 13.01 8 12.02 8 11 C6.35 10.67 4.7 10.34 3 10 C3 8.02 3 6.04 3 4 C2.34 4 1.68 4 1 4 C0.67 2.68 0.34 1.36 0 0 Z " fill="#ff2e47" transform="translate(119,117)"/>
<path d="M0 0 C0.66 0 1.32 0 2 0 C2 0.66 2 1.32 2 2 C2.66 2 3.32 2 4 2 C6.69414604 6.04121906 6.5569631 9.25370575 6 14 C4.5 17.5625 4.5 17.5625 3 20 C2.34 20 1.68 20 1 20 C0.79913557 16.28400809 0.8480563 15.22791555 3 12 C3.66 12 4.32 12 5 12 C5 10.02 5 8.04 5 6 C4.34 6 3.68 6 3 6 C3 5.34 3 4.68 3 4 C2.01 4 1.02 4 0 4 C0 2.68 0 1.36 0 0 Z " fill="#ff2e47" transform="translate(217,172)"/>
<path d="M0 0 C0.99 0.33 1.98 0.66 3 1 C1.54474941 2.48219967 0.085701 3.96067139 -1.375 5.4375 C-2.18710938 6.26121094 -2.99921875 7.08492187 -3.8359375 7.93359375 C-6.67491288 10.64445652 -8.17912254 11.15238164 -12 11.1875 C-13.051875 11.20876953 -13.051875 11.20876953 -14.125 11.23046875 C-16 11 -16 11 -18 9 C-17.31292969 8.93941406 -16.62585938 8.87882813 -15.91796875 8.81640625 C-15.01691406 8.73261719 -14.11585937 8.64882812 -13.1875 8.5625 C-11.84751953 8.44068359 -11.84751953 8.44068359 -10.48046875 8.31640625 C-7.87256441 8.06510233 -7.87256441 8.06510233 -5 7 C-5 6.01 -5 5.02 -5 4 C-4.01 4 -3.02 4 -2 4 C-1.34 2.68 -0.68 1.36 0 0 Z " fill="#ff2e47" transform="translate(114,168)"/>
<path d="M0 0 C1 2 1 2 0.8125 5.8125 C0.72758164 10.06613761 2.07009412 11.886975 5 15 C5 15.66 5 16.32 5 17 C6.32 17.66 7.64 18.32 9 19 C5.625 19.125 5.625 19.125 2 19 C-0.94770356 16.05229644 -0.94372359 13.21159799 -1.1328125 9.140625 C-1.13023438 8.18671875 -1.12765625 7.2328125 -1.125 6.25 C-1.12757812 5.28578125 -1.13015625 4.3215625 -1.1328125 3.328125 C-1 1 -1 1 0 0 Z " fill="#ff2e47" transform="translate(89,160)"/>
<path d="M0 0 C0 0.66 0 1.32 0 2 C-0.84304687 2.33773437 -1.68609375 2.67546875 -2.5546875 3.0234375 C-3.65039062 3.46945313 -4.74609375 3.91546875 -5.875 4.375 C-6.96554688 4.81585938 -8.05609375 5.25671875 -9.1796875 5.7109375 C-12.06329362 6.83051338 -12.06329362 6.83051338 -14 9 C-16.3828125 8.9765625 -16.3828125 8.9765625 -19.125 8.625 C-20.03507813 8.51414062 -20.94515625 8.40328125 -21.8828125 8.2890625 C-22.58148438 8.19367188 -23.28015625 8.09828125 -24 8 C-24 7.67 -24 7.34 -24 7 C-18.555 6.505 -18.555 6.505 -13 6 C-13 5.34 -13 4.68 -13 4 C-12.06027344 3.69255859 -12.06027344 3.69255859 -11.1015625 3.37890625 C-10.28429687 3.10949219 -9.46703125 2.84007812 -8.625 2.5625 C-7.81289062 2.29566406 -7.00078125 2.02882812 -6.1640625 1.75390625 C-1.12953368 0 -1.12953368 0 0 0 Z " fill="#ff2e47" transform="translate(196,251)"/>
<path d="M0 0 C0.66 0.99 1.32 1.98 2 3 C-3.36044767 7.41448632 -8.25467085 11.0727631 -15 13 C-14 11 -14 11 -11 10 C-11 9.01 -11 8.02 -11 7 C-9.02 6.67 -7.04 6.34 -5 6 C-5 5.34 -5 4.68 -5 4 C-3.68 4 -2.36 4 -1 4 C-0.67 2.68 -0.34 1.36 0 0 Z " fill="#ff2e47" transform="translate(211,238)"/>
<path d="M0 0 C0.33 0.99 0.66 1.98 1 3 C-2.61783413 7.44006916 -7.71836201 9.98488028 -13 12 C-13.66 11.67 -14.32 11.34 -15 11 C-11.46750154 8.09088362 -7.81847287 5.51856721 -4 3 C-2.65824027 2.01133494 -1.32103998 1.0161846 0 0 Z " fill="#ff2e47" transform="translate(216,238)"/>
<path d="M0 0 C-2.32877571 2.88214816 -3.53338618 3.91208725 -7.234375 4.609375 C-8.97460938 4.67898437 -8.97460938 4.67898437 -10.75 4.75 C-11.92046875 4.80671875 -13.0909375 4.8634375 -14.296875 4.921875 C-15.63492188 4.96054688 -15.63492188 4.96054688 -17 5 C-16.67 4.01 -16.34 3.02 -16 2 C-14.375 1.375 -14.375 1.375 -12 1 C-10.865625 0.814375 -9.73125 0.62875 -8.5625 0.4375 C-5.64800379 0.07957941 -2.92744576 -0.08871048 0 0 Z " fill="#ff2e47" transform="translate(202,133)"/>
<path d="M0 0 C0.66 0 1.32 0 2 0 C4.30754827 3.2577152 4.20495201 6.14891469 3.625 10.02734375 C2.61954739 13.20080355 0.51411813 14.93713384 -2 17 C-2.99 16.67 -3.98 16.34 -5 16 C-3.7625 15.38125 -3.7625 15.38125 -2.5 14.75 C1.06962958 10.82340746 0.39047804 7.61256118 0.17578125 2.484375 C0.08876953 1.25460938 0.08876953 1.25460938 0 0 Z " fill="#ff2e47" transform="translate(133,137)"/>
<path d="M0 0 C0.66 0.33 1.32 0.66 2 1 C2.86073195 11.74958574 2.86073195 11.74958574 -0.375 15.6875 C-3 18 -3 18 -5 18 C-5 17.01 -5 16.02 -5 15 C-4.01 15 -3.02 15 -2 15 C-0.93037963 10.11030687 0 5.01463891 0 0 Z " fill="#ff2e47" transform="translate(186,210)"/>
<path d="M0 0 C0.66 0 1.32 0 2 0 C2.71484375 1.703125 2.71484375 1.703125 3 4 C1.56640625 6.359375 1.56640625 6.359375 -0.4375 8.75 C-1.42556641 9.94882813 -1.42556641 9.94882813 -2.43359375 11.171875 C-3.20896484 12.07679688 -3.20896484 12.07679688 -4 13 C-4.33 11.68 -4.66 10.36 -5 9 C-4.34 9 -3.68 9 -3 9 C-2.87625 7.88625 -2.7525 6.7725 -2.625 5.625 C-2 2 -2 2 0 0 Z " fill="#ff2e47" transform="translate(231,215)"/>
<path d="M0 0 C0.33 0 0.66 0 1 0 C1.87999093 3.41683977 2.38296701 6.47670355 2 10 C-0.15380569 13.08908111 -2.62201909 15.32010644 -6 17 C-8.26953125 16.67578125 -8.26953125 16.67578125 -10 16 C-8.68 15.67 -7.36 15.34 -6 15 C-6 14.34 -6 13.68 -6 13 C-5.01 12.67 -4.02 12.34 -3 12 C-0.97148898 8.16836808 -0.50229074 4.26947129 0 0 Z " fill="#ff2e47" transform="translate(223,179)"/>
<path d="M0 0 C10.02436586 0.94491973 10.02436586 0.94491973 14.609375 4.08203125 C14.939375 5.07203125 15.269375 6.06203125 15.609375 7.08203125 C11.81633775 6.08009688 8.89401159 5.27178898 5.609375 3.08203125 C3.10040814 2.62601864 3.10040814 2.62601864 0.421875 2.45703125 C-0.47917969 2.38226563 -1.38023437 2.3075 -2.30859375 2.23046875 C-2.99566406 2.18148437 -3.68273437 2.1325 -4.390625 2.08203125 C-2.390625 0.08203125 -2.390625 0.08203125 0 0 Z " fill="#ff2e47" transform="translate(172.390625,172.91796875)"/>
<path d="M0 0 C1.24136719 0.47566406 1.24136719 0.47566406 2.5078125 0.9609375 C6.31847819 2.09475973 9.93226312 2.44161689 13.875 2.625 C14.56335938 2.66367188 15.25171875 2.70234375 15.9609375 2.7421875 C17.64023246 2.83548166 19.32007767 2.91878238 21 3 C21 3.33 21 3.66 21 4 C6.21867882 5.51708428 6.21867882 5.51708428 0 3 C0 2.01 0 1.02 0 0 Z " fill="#ff2e47" transform="translate(192,165)"/>
<path d="M0 0 C0.92619141 0.15662109 0.92619141 0.15662109 1.87109375 0.31640625 C2.20109375 0.97640625 2.53109375 1.63640625 2.87109375 2.31640625 C-0.42890625 2.31640625 -3.72890625 2.31640625 -7.12890625 2.31640625 C-7.78890625 3.63640625 -8.44890625 4.95640625 -9.12890625 6.31640625 C-12.25390625 8.56640625 -12.25390625 8.56640625 -15.12890625 10.31640625 C-15.78890625 9.98640625 -16.44890625 9.65640625 -17.12890625 9.31640625 C-11.9304149 2.98780809 -8.4993627 -0.81500738 0 0 Z " fill="#ff2e47" transform="translate(125.12890625,167.68359375)"/>
<path d="M0 0 C2 2 2 2 2 6 C1.34 6 0.68 6 0 6 C0 6.99 0 7.98 0 9 C-0.66 9 -1.32 9 -2 9 C-2.33 10.98 -2.66 12.96 -3 15 C-3.66 15 -4.32 15 -5 15 C-1.92482916 4.44191344 -1.92482916 4.44191344 0 0 Z " fill="#ff2e47" transform="translate(246,192)"/>
<path d="M0 0 C1.32 0.66 2.64 1.32 4 2 C2.37660195 3.70884005 0.70680947 5.37446717 -1 7 C-1.66 7 -2.32 7 -3 7 C-3.33 9.31 -3.66 11.62 -4 14 C-4.33 14 -4.66 14 -5 14 C-4.85904936 12.3745692 -4.71207913 10.74965949 -4.5625 9.125 C-4.48128906 8.22007813 -4.40007812 7.31515625 -4.31640625 6.3828125 C-4 4 -4 4 -3 2 C-2.34 2 -1.68 2 -1 2 C-0.67 1.34 -0.34 0.68 0 0 Z " fill="#ff2e47" transform="translate(183,110)"/>
<path d="M0 0 C-5.625 2 -5.625 2 -9 2 C-9 2.66 -9 3.32 -9 4 C-11.31 4.33 -13.62 4.66 -16 5 C-15.34 4.67 -14.68 4.34 -14 4 C-14 3.34 -14 2.68 -14 2 C-13.34 2 -12.68 2 -12 2 C-12 1.34 -12 0.68 -12 0 C-10.37585622 -0.19477739 -8.75063577 -0.38059458 -7.125 -0.5625 C-6.22007812 -0.66691406 -5.31515625 -0.77132812 -4.3828125 -0.87890625 C-2 -1 -2 -1 0 0 Z " fill="#ff2e47" transform="translate(192,253)"/>
<path d="M0 0 C0.33 0 0.66 0 1 0 C1.33 2.31 1.66 4.62 2 7 C2.61488281 7.15855469 3.22976562 7.31710938 3.86328125 7.48046875 C10.54716981 9.40994854 10.54716981 9.40994854 13.0625 12.6875 C13.371875 13.450625 13.68125 14.21375 14 15 C10.04636637 13.83188097 7.20775844 12.56620675 4 10 C2.68163705 9.30419733 1.35208914 8.62775567 0 8 C0 5.36 0 2.72 0 0 Z " fill="#ff2e47" transform="translate(174,148)"/>
<path d="M0 0 C3.20028974 2.92200367 3.94300087 4.97401573 4.1875 9.375 C4.0109867 12.7875905 3.47474505 14.95833833 2 18 C1.34 17.67 0.68 17.34 0 17 C0.08378906 16.443125 0.16757813 15.88625 0.25390625 15.3125 C0.97056584 9.94208892 0.87482711 5.34616568 0 0 Z " fill="#ff2e47" transform="translate(203,115)"/>
<path d="M0 0 C3.3 0.33 6.6 0.66 10 1 C12.125 5.625 12.125 5.625 11 9 C10.484375 8.030625 9.96875 7.06125 9.4375 6.0625 C7.23561704 2.64608309 7.23561704 2.64608309 3.25 2.125 C1.64125 2.063125 1.64125 2.063125 0 2 C0 1.34 0 0.68 0 0 Z " fill="#ff2e47" transform="translate(145,183)"/>
<path d="M0 0 C0.93972656 0.23396484 0.93972656 0.23396484 1.8984375 0.47265625 C3.12433594 0.76462891 3.12433594 0.76462891 4.375 1.0625 C5.59316406 1.35833984 5.59316406 1.35833984 6.8359375 1.66015625 C9.04161284 2.22109319 9.04161284 2.22109319 11 1 C11.99 1.66 12.98 2.32 14 3 C10.5970516 5.09412209 7.96378615 5.57805215 4 5 C1.625 2.5 1.625 2.5 0 0 Z " fill="#ff2e47" transform="translate(157,130)"/>
<path d="M0 0 C0.99 0.495 0.99 0.495 2 1 C2.80045663 3.69058598 3.4954659 6.33218727 4.125 9.0625 C4.30675781 9.82111328 4.48851563 10.57972656 4.67578125 11.36132812 C5.12456584 13.23913735 5.56323336 15.11935915 6 17 C5.34 16.67 4.68 16.34 4 16 C3.375 12.9375 3.375 12.9375 3 10 C2.34 10 1.68 10 1 10 C-0.60725635 6.78548731 -0.05748185 3.56387464 0 0 Z " fill="#ff2e47" transform="translate(66,188)"/>
<path d="M0 0 C0.66 0.33 1.32 0.66 2 1 C1.01 2.485 1.01 2.485 0 4 C-2.6015625 4.29296875 -2.6015625 4.29296875 -5.625 4.1875 C-7.12933594 4.14689453 -7.12933594 4.14689453 -8.6640625 4.10546875 C-9.82035156 4.05326172 -9.82035156 4.05326172 -11 4 C-11.33 3.01 -11.66 2.02 -12 1 C-8.04 1.33 -4.08 1.66 0 2 C0 1.34 0 0.68 0 0 Z " fill="#ff2e47" transform="translate(181,229)"/>
<path d="M0 0 C4 5 4 5 8 10 C7.67 10.66 7.34 11.32 7 12 C1.21538462 7.93846154 1.21538462 7.93846154 0.125 3.1875 C0.08375 2.135625 0.0425 1.08375 0 0 Z " fill="#ff2e47" transform="translate(76,212)"/>
<path d="M0 0 C0.33 0 0.66 0 1 0 C0.88590407 1.45922693 0.75834456 2.91740598 0.625 4.375 C0.55539063 5.18710938 0.48578125 5.99921875 0.4140625 6.8359375 C0 9 0 9 -2 11 C-2.99 11 -3.98 11 -5 11 C-3.77782954 6.95743617 -2.37245704 3.50711041 0 0 Z " fill="#ff2e47" transform="translate(240,207)"/>
<path d="M0 0 C5.06398064 2.21689819 10.07895682 4.47638811 15 7 C15 7.33 15 7.66 15 8 C13.02 8 11.04 8 9 8 C8.67 7.34 8.34 6.68 8 6 C6.11736119 5.09656316 6.11736119 5.09656316 3.9375 4.375 C3.20402344 4.11460937 2.47054687 3.85421875 1.71484375 3.5859375 C1.14894531 3.39257812 0.58304688 3.19921875 0 3 C0 2.01 0 1.02 0 0 Z " fill="#ff2e47" transform="translate(177,175)"/>
<path d="M0 0 C1.09570312 0.00902344 2.19140625 0.01804688 3.3203125 0.02734375 C4.16335937 0.03894531 5.00640625 0.05054688 5.875 0.0625 C6.205 0.7225 6.535 1.3825 6.875 2.0625 C6.22273438 2.01609375 5.57046875 1.9696875 4.8984375 1.921875 C-1.20454686 1.66983435 -4.4218115 2.10192021 -9.125 6.0625 C-8.75 3.625 -8.75 3.625 -8.125 1.0625 C-5.36047967 -0.31976016 -3.0788637 -0.03275387 0 0 Z " fill="#ff2e47" transform="translate(100.125,150.9375)"/>
<path d="M0 0 C0.66 0.33 1.32 0.66 2 1 C0.19296794 3.56957396 -1.61217986 5.9456142 -4 8 C-7.375 7.9375 -7.375 7.9375 -10 7 C-10 6.67 -10 6.34 -10 6 C-8.02 6 -6.04 6 -4 6 C-3.8453125 5.071875 -3.8453125 5.071875 -3.6875 4.125 C-3 2 -3 2 0 0 Z " fill="#ff2e47" transform="translate(176,124)"/>
<path d="M0 0 C2 3 2 3 2 7 C2.66 7 3.32 7 4 7 C4.66 9.97 5.32 12.94 6 16 C5.01 15.34 4.02 14.68 3 14 C3 13.01 3 12.02 3 11 C2.34 11 1.68 11 1 11 C0.67 7.37 0.34 3.74 0 0 Z " fill="#ff2e47" transform="translate(102,86)"/>
<path d="M0 0 C3.3 0.33 6.6 0.66 10 1 C10 1.66 10 2.32 10 3 C11.32 3.33 12.64 3.66 14 4 C14 4.66 14 5.32 14 6 C14.99 6.33 15.98 6.66 17 7 C12.94180817 6.34496718 9.46028718 5.05440879 5.6875 3.4375 C4.61886719 2.98246094 3.55023438 2.52742188 2.44921875 2.05859375 C1.64097656 1.70925781 0.83273438 1.35992187 0 1 C0 0.67 0 0.34 0 0 Z " fill="#ff2e47" transform="translate(182,78)"/>
<path d="M0 0 C3.3 0.33 6.6 0.66 10 1 C10 1.66 10 2.32 10 3 C12.97 3.495 12.97 3.495 16 4 C10.60185122 6.15925951 5.02671162 3.13254433 0 1 C0 0.67 0 0.34 0 0 Z " fill="#ff2e47" transform="translate(120,252)"/>
<path d="M0 0 C7.38461538 0.49230769 7.38461538 0.49230769 10.5 3.0625 C10.995 3.701875 11.49 4.34125 12 5 C11.67 5.99 11.34 6.98 11 8 C10.67 7.01 10.34 6.02 10 5 C7.70465742 3.86454438 7.70465742 3.86454438 5 3 C3.33333333 2.33333333 1.66666667 1.66666667 0 1 C0 0.67 0 0.34 0 0 Z " fill="#ff2e47" transform="translate(175,202)"/>
<path d="M0 0 C2.25028329 0.14139481 4.50022206 0.28828003 6.75 0.4375 C8.62945312 0.55931641 8.62945312 0.55931641 10.546875 0.68359375 C13.18317553 0.92515522 15.48037294 1.24283934 18 2 C14.80693695 3.06435435 12.35556004 3.20065353 9 3.25 C7.4221875 3.28867188 7.4221875 3.28867188 5.8125 3.328125 C3 3 3 3 1.125 1.484375 C0.75375 0.99453125 0.3825 0.5046875 0 0 Z " fill="#ff2e47" transform="translate(108,153)"/>
<path d="M0 0 C2.92424897 1.46212449 3.34147999 3.77462782 4.40234375 6.72265625 C5.32412024 10.23504639 5.19368337 13.38457709 5 17 C4.67 15.68 4.34 14.36 4 13 C3.34 13 2.68 13 2 13 C1.34 8.71 0.68 4.42 0 0 Z " fill="#ff2e47" transform="translate(95,59)"/>
<path d="M0 0 C3.3125 -0.25 3.3125 -0.25 7 0 C8.9375 1.875 8.9375 1.875 10 4 C10 4.66 10 5.32 10 6 C9.34 6 8.68 6 8 6 C7.67 5.34 7.34 4.68 7 4 C5.11235097 3.31527335 5.11235097 3.31527335 2.9375 2.875 C2.20402344 2.70742187 1.47054687 2.53984375 0.71484375 2.3671875 C0.14894531 2.24601563 -0.41695312 2.12484375 -1 2 C-0.67 1.34 -0.34 0.68 0 0 Z " fill="#ff2e47" transform="translate(145,185)"/>
<path d="M0 0 C0.33 0 0.66 0 1 0 C0.40984815 5.50808397 -0.56663769 10.64878069 -2 16 C-2.33 16 -2.66 16 -3 16 C-2.88544319 14.08268082 -2.75793742 12.1661325 -2.625 10.25 C-2.55539063 9.18265625 -2.48578125 8.1153125 -2.4140625 7.015625 C-2.0271777 4.19793568 -1.44313834 2.4169634 0 0 Z " fill="#ff2e47" transform="translate(248,175)"/>
<path d="M0 0 C2.31 0 4.62 0 7 0 C7 1.65 7 3.3 7 5 C7.66 5 8.32 5 9 5 C9.33 6.32 9.66 7.64 10 9 C9.34 8.67 8.68 8.34 8 8 C8 7.34 8 6.68 8 6 C7.34 6 6.68 6 6 6 C6 5.34 6 4.68 6 4 C5.38125 3.71125 4.7625 3.4225 4.125 3.125 C2 2 2 2 0 0 Z " fill="#ff2e47" transform="translate(213,168)"/>
<path d="M0 0 C2.475 0.99 2.475 0.99 5 2 C5.33 4.97 5.66 7.94 6 11 C3.13546142 7.58983503 1.65296434 4.09305456 0 0 Z " fill="#ff2e47" transform="translate(73,205)"/>
<path d="M0 0 C1.32 0.33 2.64 0.66 4 1 C4 1.99 4 2.98 4 4 C4.99 4 5.98 4 7 4 C7.33 6.31 7.66 8.62 8 11 C6.66666667 9.33333333 5.33333333 7.66666667 4 6 C3.2575 5.0925 2.515 4.185 1.75 3.25 C0 1 0 1 0 0 Z " fill="#ff2e47" transform="translate(229,109)"/>
<path d="M0 0 C0.66 0.33 1.32 0.66 2 1 C-0.14325038 4.21487558 -1.55439366 5.35923508 -5 7 C-7.3125 6.6875 -7.3125 6.6875 -9 6 C-7.02579865 3.47740939 -6.03254358 3.0070192 -2.8125 2.3125 C-1.4203125 2.1578125 -1.4203125 2.1578125 0 2 C0 1.34 0 0.68 0 0 Z " fill="#ff2e47" transform="translate(123,195)"/>
<path d="M0 0 C0.33 0 0.66 0 1 0 C1.33 1.65 1.66 3.3 2 5 C2.33 5 2.66 5 3 5 C3.33 8.96 3.66 12.92 4 17 C0.23389596 11.35084394 -0.22755952 6.59922601 0 0 Z " fill="#ff2e47" transform="translate(66,180)"/>
<path d="M0 0 C6.4 -0.36923077 6.4 -0.36923077 9.4375 1.5 C9.953125 1.995 10.46875 2.49 11 3 C10.67 3.66 10.34 4.32 10 5 C5.05 3.02 5.05 3.02 0 1 C0 0.67 0 0.34 0 0 Z " fill="#ff2e47" transform="translate(188,163)"/>
<path d="M0 0 C0.99 0 1.98 0 3 0 C6.125 6.625 6.125 6.625 5 10 C4.1641146 8.52227402 3.33135744 7.04277811 2.5 5.5625 C2.0359375 4.73878906 1.571875 3.91507812 1.09375 3.06640625 C0 1 0 1 0 0 Z " fill="#ff2e47" transform="translate(139,98)"/>
<path d="M0 0 C2.93200474 2.85276137 5.64315404 5.65079784 8 9 C6.68 9 5.36 9 4 9 C0 2.25 0 2.25 0 0 Z " fill="#ff2e47" transform="translate(153,126)"/>
<path d="M0 0 C2.475 0.99 2.475 0.99 5 2 C5 4.31 5 6.62 5 9 C0.57142857 3.85714286 0.57142857 3.85714286 0 0 Z " fill="#ff2e47" transform="translate(145,109)"/>
<path d="M0 0 C1.4540625 0.0309375 1.4540625 0.0309375 2.9375 0.0625 C1.9475 0.5575 1.9475 0.5575 0.9375 1.0625 C0.9375 1.7225 0.9375 2.3825 0.9375 3.0625 C0.298125 3.165625 -0.34125 3.26875 -1 3.375 C-1.680625 3.601875 -2.36125 3.82875 -3.0625 4.0625 C-3.3925 5.0525 -3.7225 6.0425 -4.0625 7.0625 C-4.10504356 5.06295254 -4.10330783 3.06208364 -4.0625 1.0625 C-3.0625 0.0625 -3.0625 0.0625 0 0 Z " fill="#ff2e47" transform="translate(142.0625,77.9375)"/>
<path d="M0 0 C0.33 0.66 0.66 1.32 1 2 C-0.1875 5.0625 -0.1875 5.0625 -2 8 C-4.1875 8.875 -4.1875 8.875 -6 9 C-4.47291037 5.56404834 -2.40072955 2.88087546 0 0 Z " fill="#ff2e47" transform="translate(234,218)"/>
<path d="M0 0 C0.66 0 1.32 0 2 0 C4 2 4 2 4 5 C4.66 5.33 5.32 5.66 6 6 C5.67 6.66 5.34 7.32 5 8 C4.01 8 3.02 8 2 8 C1.34 5.36 0.68 2.72 0 0 Z " fill="#ff2e47" transform="translate(170,192)"/>
<path d="M0 0 C0.66 0.33 1.32 0.66 2 1 C1.01 3.64 0.02 6.28 -1 9 C-1.66 9 -2.32 9 -3 9 C-3.33 9.99 -3.66 10.98 -4 12 C-4.33 11.34 -4.66 10.68 -5 10 C-4.00390625 7.6171875 -4.00390625 7.6171875 -2.5625 4.875 C-1.85287109 3.50988281 -1.85287109 3.50988281 -1.12890625 2.1171875 C-0.75636719 1.41851562 -0.38382813 0.71984375 0 0 Z " fill="#ff2e47" transform="translate(142,187)"/>
<path d="M0 0 C1.32 0.33 2.64 0.66 4 1 C4 1.66 4 2.32 4 3 C4.94875 2.814375 5.8975 2.62875 6.875 2.4375 C10 2 10 2 12 3 C12 3.66 12 4.32 12 5 C3.64989059 4.64989059 3.64989059 4.64989059 0.9375 1.9375 C0.628125 1.298125 0.31875 0.65875 0 0 Z " fill="#ff2e47" transform="translate(185,159)"/>
<path d="M0 0 C1.62463842 -0.05395478 3.24978541 -0.09277195 4.875 -0.125 C5.77992188 -0.14820312 6.68484375 -0.17140625 7.6171875 -0.1953125 C10 0 10 0 12 2 C10.56589632 2.24954005 9.12739928 2.47392642 7.6875 2.6875 C6.88699219 2.81511719 6.08648437 2.94273438 5.26171875 3.07421875 C3 3 3 3 1.20703125 1.51953125 C0.80871094 1.01808594 0.41039062 0.51664062 0 0 Z " fill="#ff2e47" transform="translate(170,77)"/>
<path d="M0 0 C1.875 0.25 1.875 0.25 4 1 C5.25 3.0625 5.25 3.0625 6 5 C3.69 4.34 1.38 3.68 -1 3 C-0.67 2.01 -0.34 1.02 0 0 Z " fill="#ff2e47" transform="translate(126,170)"/>
<path d="M0 0 C2.97 0 5.94 0 9 0 C9 0.66 9 1.32 9 2 C9.99 2.33 10.98 2.66 12 3 C11.67 3.99 11.34 4.98 11 6 C10.484375 5.360625 9.96875 4.72125 9.4375 4.0625 C6.34064377 1.44208319 3.97932377 1.30610183 0 1 C0 0.67 0 0.34 0 0 Z " fill="#ff2e47" transform="translate(120,167)"/>
<path d="M0 0 C4.0042343 3.49087093 5.62671065 5.64951939 6 11 C5.34 11 4.68 11 4 11 C4 9.35 4 7.7 4 6 C3.01 5.67 2.02 5.34 1 5 C0.67 3.35 0.34 1.7 0 0 Z " fill="#ff2e47" transform="translate(126,126)"/>
<path d="M0 0 C0.66 0 1.32 0 2 0 C2 0.66 2 1.32 2 2 C3.32 2 4.64 2 6 2 C6.33 3.98 6.66 5.96 7 8 C1.125 3.375 1.125 3.375 0 0 Z " fill="#ff2e47" transform="translate(112,108)"/>
<path d="M0 0 C2.18840439 3.28260659 4.15885893 6.50818073 6 10 C5.67 10.66 5.34 11.32 5 12 C2.69857565 10.21825212 1.19965609 8.83695835 0.51171875 5.953125 C0.27676898 3.9753389 0.13248542 1.98728128 0 0 Z " fill="#ff2e47" transform="translate(138,96)"/>
<path d="M0 0 C2.625 0.375 2.625 0.375 5 1 C3.824375 1.928125 3.824375 1.928125 2.625 2.875 C0.03162353 4.89858661 0.03162353 4.89858661 -2 7 C-2.125 4.625 -2.125 4.625 -2 2 C-1.34 1.34 -0.68 0.68 0 0 Z " fill="#ff2e47" transform="translate(139,74)"/>
<path d="M0 0 C0.66 0.99 1.32 1.98 2 3 C-2.75 7 -2.75 7 -5 7 C-5 6.01 -5 5.02 -5 4 C-3.68 4 -2.36 4 -1 4 C-0.67 2.68 -0.34 1.36 0 0 Z " fill="#ff2e47" transform="translate(211,238)"/>
<path d="M0 0 C0.66 1.32 1.32 2.64 2 4 C0.1875 5.5625 0.1875 5.5625 -2 7 C-2.99 6.67 -3.98 6.34 -5 6 C-4.34 5.01 -3.68 4.02 -3 3 C-2.01 3 -1.02 3 0 3 C0 2.01 0 1.02 0 0 Z " fill="#ff2e47" transform="translate(138,214)"/>
<path d="M0 0 C1.65 0 3.3 0 5 0 C5.33 2.64 5.66 5.28 6 8 C3.87961365 5.38485683 1.86908256 2.80362384 0 0 Z " fill="#ff2e47" transform="translate(192,182)"/>
<path d="M0 0 C2.0625 0.4375 2.0625 0.4375 4 1 C2.1875 3 2.1875 3 0 5 C-0.99 5 -1.98 5 -3 5 C-1.125 1.125 -1.125 1.125 0 0 Z " fill="#ff2e47" transform="translate(187,112)"/>
<path d="M0 0 C2.1519437 3.22791555 2.20086443 4.28400809 2 8 C1.34 8 0.68 8 0 8 C-0.66 5.69 -1.32 3.38 -2 1 C-1.34 0.67 -0.68 0.34 0 0 Z " fill="#ff2e47" transform="translate(109,98)"/>
<path d="M0 0 C1.98 1.65 3.96 3.3 6 5 C4.02 5.99 4.02 5.99 2 7 C1.34 4.69 0.68 2.38 0 0 Z " fill="#ff2e47" transform="translate(216,97)"/>
<path d="M0 0 C2.25 -0.3125 2.25 -0.3125 5 0 C7.3125 2.5 7.3125 2.5 9 5 C6.69 4.34 4.38 3.68 2 3 C2 2.34 2 1.68 2 1 C1.34 0.67 0.68 0.34 0 0 Z " fill="#ff2e47" transform="translate(207,89)"/>
<path d="M0 0 C2.475 0.99 2.475 0.99 5 2 C5 2.66 5 3.32 5 4 C5.99 4.33 6.98 4.66 8 5 C7.01 5.495 7.01 5.495 6 6 C3.96855359 5.06553465 1.96466413 4.06775224 0 3 C0 2.01 0 1.02 0 0 Z " fill="#ff2e47" transform="translate(204,88)"/>
<path d="M0 0 C3.75376152 1.25125384 4.24073289 2.5652404 6 6 C6 6.66 6 7.32 6 8 C5.01 8 4.02 8 3 8 C0 2.25 0 2.25 0 0 Z " fill="#ff2e47" transform="translate(89,51)"/>
<path d="M0 0 C3.1875 0.3125 3.1875 0.3125 6 1 C6 1.66 6 2.32 6 3 C3.03 3 0.06 3 -3 3 C-2.01 2.01 -1.02 1.02 0 0 Z " fill="#ff2e47" transform="translate(68,37)"/>
<path d="M0 0 C1.32 0.33 2.64 0.66 4 1 C1.03 3.475 1.03 3.475 -2 6 C-2.33 5.01 -2.66 4.02 -3 3 C-2.01 3 -1.02 3 0 3 C0 2.01 0 1.02 0 0 Z " fill="#ff2e47" transform="translate(221,229)"/>
<path d="M0 0 C2.9719385 1.12451727 5.33440687 2.22293791 8 4 C7.67 4.66 7.34 5.32 7 6 C2.32307692 4.52307692 2.32307692 4.52307692 0.6875 1.875 C0.460625 1.25625 0.23375 0.6375 0 0 Z " fill="#ff2e47" transform="translate(82,220)"/>
<path d="M0 0 C2.31 0 4.62 0 7 0 C7 0.66 7 1.32 7 2 C2.25 3.125 2.25 3.125 0 2 C0 1.34 0 0.68 0 0 Z " fill="#ff2e47" transform="translate(116,195)"/>
</svg>