<?xml version="1.0" encoding="UTF-8"?>
<svg xmlns="http://www.w3.org/2000/svg" version="1.1" width="300" height="300" style="background: transparent;">

<path d="M0 0 C22.28902748 18.04670503 38.41136127 42.13322911 41.5859375 71.09375 C43.05857983 101.16452888 36.59630959 128.97252174 16.5859375 152.09375 C15.92207031 152.94066406 15.25820312 153.78757813 14.57421875 154.66015625 C-0.31314128 172.88181696 -25.84766262 184.85389742 -48.890625 187.8125 C-79.15498055 190.22828004 -106.88391127 182.93408317 -130.4140625 163.09375 C-149.80789789 146.0411524 -164.3773342 121.23176314 -166.4140625 95.09375 C-168.00273524 62.26972134 -159.1015299 35.56062456 -137.421875 10.8203125 C-101.55449209 -26.83299819 -41.18248935 -31.4001385 0 0 Z " fill="#F37532" transform="translate(212.4140625,66.90625)"/>
<path d="M0 0 C2.19343848 1.69791085 4.30919605 3.45190981 6.4140625 5.2578125 C7.63029297 6.14919922 7.63029297 6.14919922 8.87109375 7.05859375 C11.8764864 9.65772749 13.98690728 12.59875345 16.1640625 15.8828125 C16.56238281 16.46804687 16.96070313 17.05328125 17.37109375 17.65625 C19.94669712 21.46290447 21.57804884 23.91170567 21.7265625 28.5078125 C21.78263672 29.62929687 21.78263672 29.62929687 21.83984375 30.7734375 C21.22489064 34.36160426 19.63885232 36.39115514 17.4140625 39.2578125 C14.45996094 41.11303711 14.45996094 41.11303711 11.0234375 42.66015625 C10.40592117 42.9439061 9.78840485 43.22765594 9.1521759 43.52000427 C7.16336914 44.4288395 5.16459786 45.31263441 3.1640625 46.1953125 C1.79491614 46.81269038 0.42634548 47.43134656 -0.94165039 48.05126953 C-3.6165768 49.26012417 -6.29568388 50.45882476 -8.97900391 51.64892578 C-11.96024496 52.97871992 -14.92380215 54.33617196 -17.87890625 55.72265625 C-19.26008741 56.36008892 -20.64155895 56.9968931 -22.0234375 57.6328125 C-23.72306641 58.41785156 -23.72306641 58.41785156 -25.45703125 59.21875 C-29.06054771 60.41542338 -31.81184409 60.61512312 -35.5859375 60.2578125 C-38.62766139 58.67029923 -41.03745587 56.35477575 -42.5859375 53.2578125 C-42.859375 51.3046875 -42.859375 51.3046875 -42.9609375 49.0078125 C-43.00992188 48.26015625 -43.05890625 47.5125 -43.109375 46.7421875 C-42.32793638 43.03326988 -40.38226067 40.6837893 -37.5859375 38.2578125 C-34.80003777 36.61000336 -31.89900309 35.39802883 -28.8984375 34.1953125 C-27.28958094 33.51878767 -25.68150153 32.8404116 -24.07421875 32.16015625 C-23.30287598 31.83772949 -22.5315332 31.51530273 -21.73681641 31.18310547 C-18.17956553 29.65280117 -14.75873676 27.87678989 -11.3359375 26.0703125 C-9.5859375 25.2578125 -9.5859375 25.2578125 -7.5859375 25.2578125 C-13.0383383 18.92599221 -20.41228828 15.65082944 -28.72265625 15.01953125 C-36.3283726 14.86055588 -42.06506541 15.20906987 -48.5859375 19.2578125 C-49.28332031 19.68191406 -49.98070312 20.10601562 -50.69921875 20.54296875 C-57.34186364 25.03394713 -62.19766194 31.57660192 -64.5859375 39.2578125 C-65.99786705 50.39286463 -65.53794595 61.03138153 -58.5859375 70.2578125 C-52.53618058 77.11193784 -45.7867523 82.0035223 -36.51953125 82.59765625 C-28.9358332 82.85749743 -22.5813165 82.36686983 -15.5859375 79.2578125 C-11.15553026 78.72310818 -9.20790527 78.91749051 -5.2734375 81.0703125 C-2.5859375 83.2578125 -2.5859375 83.2578125 -0.5859375 86.2578125 C-0.15472396 91.60486044 -0.11763213 94.92243079 -3.5859375 99.2578125 C-10.3850644 105.80511988 -22.1702849 107.2775565 -31.2109375 107.6328125 C-47.58150403 107.27510089 -61.48525938 100.9080931 -73.3359375 89.703125 C-84.20815614 77.88713738 -90.26530852 62.3675216 -89.8984375 46.33984375 C-88.26091206 30.18974913 -82.05338393 17.74551944 -70.5859375 6.2578125 C-70.02132812 5.68160156 -69.45671875 5.10539062 -68.875 4.51171875 C-50.84309237 -12.42068232 -20.23759877 -13.63439434 0 0 Z " fill="#FDFCFB" transform="translate(181.5859375,101.7421875)"/>
<path d="M0 0 C0 0.66 0 1.32 0 2 C-0.66 2 -1.32 2 -2 2 C-2.2475 2.78375 -2.495 3.5675 -2.75 4.375 C-4.23491366 7.49331868 -5.03544596 7.51772298 -8 9 C-9.59654895 10.64039884 -9.59654895 10.64039884 -11 12.5 C-12.6424287 14.60659333 -13.63080994 15.83407188 -16.0859375 16.9375 C-18.18242997 17.8562141 -18.18242997 17.8562141 -18.9765625 20.09375 C-19.19054687 20.8878125 -19.40453125 21.681875 -19.625 22.5 C-20.8161435 26.8161435 -20.8161435 26.8161435 -23 29 C-23.66 29 -24.32 29 -25 29 C-25 30.32 -25 31.64 -25 33 C-26.28817344 34.37701298 -27.62804426 35.70644173 -29 37 C-29.804375 38.36125 -29.804375 38.36125 -30.625 39.75 C-31.305625 40.86375 -31.305625 40.86375 -32 42 C-32.66 42 -33.32 42 -34 42 C-31.17789834 31.27601368 -12.63249392 0 0 0 Z " fill="#F4832F" transform="translate(89,67)"/>
<path d="M0 0 C12.16640287 5.60083304 21.86258886 18.49859131 28 30 C27.01 30.33 26.02 30.66 25 31 C24.73445313 30.43410156 24.46890625 29.86820313 24.1953125 29.28515625 C23.66550781 28.18494141 23.66550781 28.18494141 23.125 27.0625 C22.77695313 26.33160156 22.42890625 25.60070312 22.0703125 24.84765625 C21.1315023 22.83667541 21.1315023 22.83667541 19 22 C18.566875 21.2575 18.13375 20.515 17.6875 19.75 C15.46651769 16.13062142 12.84762091 12.92381046 9 11 C8.773125 10.4225 8.54625 9.845 8.3125 9.25 C6.58205622 6.28352494 4.31755521 4.97900477 1.4609375 3.1484375 C0.97882813 2.76945312 0.49671875 2.39046875 0 2 C0 1.34 0 0.68 0 0 Z " fill="#F16A3C" transform="translate(212,68)"/>
<path d="M0 0 C0.33 0 0.66 0 1 0 C0.42302597 11.34715589 -4.15845373 21.3800919 -10 31 C-11.29312675 28.4137465 -10.84290464 27.23583025 -10.25 24.4375 C-10.09015625 23.63183594 -9.9303125 22.82617188 -9.765625 21.99609375 C-9.51296875 21.33738281 -9.2603125 20.67867187 -9 20 C-8.01 19.67 -7.02 19.34 -6 19 C-5.66179834 17.4176994 -5.32964061 15.83410625 -5 14.25 C-4.7215625 12.92742187 -4.7215625 12.92742187 -4.4375 11.578125 C-3.88846325 8.77856035 -3.88846325 8.77856035 -4 5 C-2.68 4.67 -1.36 4.34 0 4 C0 2.68 0 1.36 0 0 Z " fill="#F06338" transform="translate(250,172)"/>
<path d="M0 0 C1.32 0.33 2.64 0.66 4 1 C4 1.99 4 2.98 4 4 C4.99 3.67 5.98 3.34 7 3 C7.33 4.32 7.66 5.64 8 7 C8.99 7 9.98 7 11 7 C11.66 8.65 12.32 10.3 13 12 C13.99 12 14.98 12 16 12 C15.67 13.65 15.34 15.3 15 17 C11.27981083 13.88718865 7.62737278 10.73234699 4.125 7.375 C3.55007812 6.82585937 2.97515625 6.27671875 2.3828125 5.7109375 C0.84785681 3.81175504 0.40623576 2.38533307 0 0 Z " fill="#F47F2A" transform="translate(68,213)"/>
<path d="M0 0 C0.66 0.33 1.32 0.66 2 1 C2 8.92 2 16.84 2 25 C1.67 25 1.34 25 1 25 C0.34608405 20.25910935 0 15.7886795 0 11 C-0.185625 10.360625 -0.37125 9.72125 -0.5625 9.0625 C-1.2252147 5.93827354 -0.53897348 3.114069 0 0 Z " fill="#EF6A44" transform="translate(252,137)"/>
<path d="M0 0 C1.5625 1.75 1.5625 1.75 3 4 C2.75 5.9375 2.75 5.9375 2 8 C1.65939189 9.66519519 1.32441604 11.33157466 1 13 C0.34 13 -0.32 13 -1 13 C-2.51403812 8.15507803 -1.36602172 4.7408989 0 0 Z " fill="#F48A34" transform="translate(50,120)"/>
<path d="M0 0 C0.66 0 1.32 0 2 0 C2.83819158 1.62249941 3.6704116 3.24808497 4.5 4.875 C4.9640625 5.77992187 5.428125 6.68484375 5.90625 7.6171875 C7 10 7 10 7 12 C5 12 5 12 3.5 10.75 C0.48823646 7.23627587 -0.25677171 4.62189073 0 0 Z " fill="#F0693D" transform="translate(240,101)"/>
<path d="M0 0 C2.35953094 2.35953094 2.49141413 3.77895617 3 7 C3.99 7.33 4.98 7.66 6 8 C5.979375 8.763125 5.95875 9.52625 5.9375 10.3125 C5.87057159 13.10185786 5.87057159 13.10185786 7 16 C6.34 16 5.68 16 5 16 C4.1605118 13.89828133 3.32860344 11.79353375 2.5 9.6875 C2.0359375 8.51574219 1.571875 7.34398437 1.09375 6.13671875 C0 3 0 3 0 0 Z " fill="#F48126" transform="translate(51,180)"/>
<path d="M0 0 C0.66 0.33 1.32 0.66 2 1 C2.309375 1.94875 2.61875 2.8975 2.9375 3.875 C3.94794567 6.84689902 4.62997461 8.06088831 7 10 C6.01 10.33 5.02 10.66 4 11 C3.13050683 9.92892883 2.27985795 8.84254056 1.4375 7.75 C0.96183594 7.14671875 0.48617187 6.5434375 -0.00390625 5.921875 C-1 4 -1 4 -0.65234375 1.765625 C-0.43707031 1.18296875 -0.22179688 0.6003125 0 0 Z " fill="#F48128" transform="translate(61,200)"/>
<path d="M0 0 C0.66 0.99 1.32 1.98 2 3 C1.34 4.32 0.68 5.64 0 7 C0.99 7.33 1.98 7.66 3 8 C1.0625 8.5625 1.0625 8.5625 -1 9 C-2 8 -2 8 -2.0625 4.4375 C-2.041875 3.303125 -2.02125 2.16875 -2 1 C-1.34 0.67 -0.68 0.34 0 0 Z " fill="#F48329" transform="translate(51,170)"/>
<path d="M0 0 C-1.25 2 -1.25 2 -3 4 C-4.32 4 -5.64 4 -7 4 C-7.33 3.01 -7.66 2.02 -8 1 C-3.375 -1.125 -3.375 -1.125 0 0 Z " fill="#F28038" transform="translate(118,53)"/>
</svg>