<svg width="130" height="149" viewBox="0 0 130 149" fill="none" xmlns="http://www.w3.org/2000/svg">
<ellipse cx="65.0001" cy="72" rx="58" ry="62" fill="#ADD7F6"/>
<path d="M60.2014 137.313C61.7235 138.196 62.4846 138.638 63.5584 138.867C64.3924 139.044 65.6079 139.044 66.4418 138.867C67.5157 138.638 68.2767 138.196 69.7989 137.313C83.1914 129.54 120 105.124 120 71.5536V34.6215C120 30.8056 120 28.8977 119.262 27.4435C118.607 26.1543 117.585 25.1252 116.297 24.4589C114.844 23.7072 112.893 23.6843 108.992 23.6384C88.5621 23.3981 76.7811 21.7199 65.0001 10C53.2191 21.7199 41.4381 23.3981 21.0084 23.6384C17.107 23.6843 15.1563 23.7072 13.7033 24.4589C12.4152 25.1252 11.3929 26.1543 10.7384 27.4435C10.0001 28.8977 10.0001 30.8056 10.0001 34.6215V71.5536C10.0001 105.124 46.8086 129.54 60.2014 137.313Z" stroke="#87BFFF" stroke-width="20" stroke-linecap="round" stroke-linejoin="round"/>
<path d="M59.2099 104.285C62.8154 107.919 66.1635 107.891 69.7691 104.285L74.1758 99.9077C74.6337 99.4786 75.0343 99.3068 75.6352 99.3068H81.8162C86.9382 99.3068 89.3135 96.9607 89.3135 91.8104V85.6302C89.3135 85.0293 89.4852 84.6288 89.9142 84.171L94.2638 79.7646C97.9266 76.1595 97.8979 72.8119 94.2638 69.2067L89.9142 64.8004C89.4852 64.3712 89.3135 63.9421 89.3135 63.3699V57.1609C89.3135 52.0679 86.967 49.6646 81.8162 49.6646H75.6352C75.0343 49.6646 74.6337 49.5215 74.1758 49.0922L69.7691 44.7146C66.1635 41.0808 62.8154 41.1095 59.2099 44.7146L54.8031 49.0922C54.3739 49.5215 53.9446 49.6646 53.3723 49.6646H47.1627C42.0406 49.6646 39.6655 52.0108 39.6655 57.1609V63.3699C39.6655 63.9421 39.5224 64.3712 39.0932 64.8004L34.715 69.2067C31.0809 72.8119 31.1095 76.1595 34.715 79.7646L39.0932 84.171C39.5224 84.6288 39.6655 85.0293 39.6655 85.6302V91.8104C39.6655 96.932 42.0406 99.3068 47.1627 99.3068H53.3723C53.9446 99.3068 54.3739 99.4786 54.8031 99.9077L59.2099 104.285ZM59.6678 88.892C58.7807 88.892 58.2084 88.6058 57.7792 88.1195L48.2215 77.5042C47.8209 77.0465 47.592 76.4742 47.592 75.8734C47.592 74.5285 48.6222 73.5271 50.0816 73.5271C50.8542 73.5271 51.4265 73.7847 51.9416 74.3283L59.5247 82.7117L74.2618 61.9678C74.834 61.138 75.4063 60.7946 76.4079 60.7946C77.81 60.7946 78.8116 61.8247 78.8116 63.1696C78.8116 63.6559 78.6112 64.2282 78.2965 64.6859L61.6135 88.005C61.1844 88.5486 60.5263 88.892 59.6678 88.892Z" fill="#3F8EFC"/>
</svg>
