<svg width="211" height="231" viewBox="0 0 211 231" fill="none" xmlns="http://www.w3.org/2000/svg">
<path d="M176.907 33.3308C155.414 11.8378 126.836 0 96.4421 0C78.0135 0 59.7076 4.50676 43.5043 13.0398C27.8242 21.2949 14.0865 33.2929 3.77135 47.7471L0 53.0226L32.6094 80.8374L36.5413 75.5289C36.6356 75.4017 36.7344 75.2695 36.8337 75.1422C38.2431 73.2563 39.7564 71.4462 41.3549 69.7115C44.8388 65.9212 48.7424 62.4986 53.0136 59.4956C68.7739 48.4261 87.9 44.1548 106.871 47.4741C125.842 50.7929 142.384 61.2967 153.453 77.057C162.609 90.0877 167.12 105.372 166.503 121.25C166.131 130.857 163.802 140.333 159.766 149.008C158.639 151.436 157.38 153.798 155.985 156.08C155.038 157.65 154.024 159.182 152.949 160.671L153.619 163.151H199.113L200.956 158.885C207.113 144.619 210.234 129.448 210.234 113.796C210.233 83.3973 198.4 54.8237 176.907 33.3308Z" fill="#FF7A00"/>
<path d="M80.0316 115.865C80.4512 115.663 80.8802 115.465 81.3138 115.281C75.6611 102.448 63.6441 93.2739 45.475 87.9325L44.1174 89.8279L25.7642 115.455C50.774 111.868 68.6602 115.738 76.3541 118.029C77.514 117.214 78.7444 116.493 80.0316 115.865Z" fill="#FF7A00"/>
<path d="M141.809 151.93C143.185 149.983 144.425 147.965 145.533 145.891C155.664 126.911 154.552 103.226 141.88 85.1844C132.979 72.5169 119.684 64.0732 104.433 61.405C89.1868 58.7412 73.8135 62.1733 61.146 71.0695C59.2601 72.3942 57.464 73.8181 55.7666 75.3358C55.4793 75.5952 55.1914 75.8542 54.9085 76.1186C65.4641 79.8475 74.2421 84.8966 81.0923 91.2044C86.4666 96.1592 90.686 101.887 93.7034 108.322C94.4862 110.001 95.1932 111.726 95.8109 113.494C97.7437 113.786 99.6106 114.291 101.388 114.979C103.288 115.71 105.079 116.652 106.743 117.779C106.762 117.789 106.781 117.803 106.795 117.817L108.12 118.774C113.145 122.654 116.761 128.269 118.067 134.718C118.416 136.443 118.6 138.226 118.6 140.055C118.6 141.275 118.52 142.478 118.355 143.656C116.677 156.164 106.362 165.969 93.6281 166.856C90.1112 177.373 86.1792 184.553 85.8115 185.213L77.5614 200.29H148.975L137.443 157.498L137.297 156.951L139.984 154.377C140.616 153.576 141.224 152.76 141.809 151.93Z" fill="#C75A1A"/>
<path d="M69.8247 214.434L60.7593 231H157.253L152.788 214.434H69.8247Z" fill="#FF7A00"/>
<path d="M91.7327 152.784C98.7475 152.784 104.457 147.074 104.457 140.055C104.457 135.958 102.51 132.304 99.4924 129.98L98.8418 129.504C98.8278 129.494 98.8184 129.49 98.8089 129.485C96.7863 128.122 94.3491 127.326 91.7327 127.326C91.1809 127.326 90.6436 127.359 90.1112 127.434C83.8553 128.226 79.0043 133.586 79.0043 140.054C79.0043 146.084 83.2141 151.142 88.8479 152.448C89.7715 152.671 90.7379 152.784 91.7327 152.784Z" fill="#FF7A00"/>
</svg>
