<svg xmlns="http://www.w3.org/2000/svg" version="1.1" width="300px" height="300px" style="background: transparent;" transform="rotate(0) scale(1, 1)">

<path d="M0 0 C0.99 0 1.98 0 3 0 C3.16604736 0.61931396 3.33209473 1.23862793 3.50317383 1.87670898 C4.27016956 4.73106112 5.04130976 7.58427841 5.8125 10.4375 C6.07353516 11.41138672 6.33457031 12.38527344 6.60351562 13.38867188 C8.03925983 18.68851778 9.60672465 23.8990257 11.3815918 29.09448242 C12.11479542 31.35372216 12.60502141 33.59642897 13 35.9375 C13.81137999 40.29190592 14.95911617 44.45341012 16.27734375 48.6796875 C16.91045659 50.71249304 17.49092157 52.7615421 18.0625 54.8125 C18.91372195 57.90895274 18.91372195 57.90895274 20 60.4375 C21.06253678 63.16025049 21.7300917 65.9029523 22.42480469 68.73754883 C23.00230932 71.00908339 23.6346359 73.25731213 24.2890625 75.5078125 C24.61777344 76.64669922 24.61777344 76.64669922 24.953125 77.80859375 C25.40374054 79.36216943 25.85953551 80.91425151 26.3203125 82.46484375 C27.55171397 86.76741911 28.27474942 90.47386489 28 95 C28.66 95 29.32 95 30 95 C30.17128418 95.61520508 30.34256836 96.23041016 30.51904297 96.86425781 C31.3001681 99.66069634 32.08751556 102.45534593 32.875 105.25 C33.27912109 106.70212891 33.27912109 106.70212891 33.69140625 108.18359375 C33.95566406 109.11816406 34.21992188 110.05273438 34.4921875 111.015625 C34.73308105 111.87446289 34.97397461 112.73330078 35.22216797 113.61816406 C35.96430263 115.89068941 36.92233713 117.87264033 38 120 C38.50659919 122.13495372 38.95926384 124.28300851 39.375 126.4375 C40.59379095 132.3829726 42.15974112 138.09783814 44.03515625 143.8671875 C44.73088596 146.12619652 45.34492718 148.41093058 45.90625 150.70703125 C47.15814545 155.82416151 48.80771316 160.80549031 50.4375 165.8125 C57.52057161 187.57961683 57.52057161 187.57961683 57 194 C57.66 194 58.32 194 59 194 C61.35233398 200.55682783 63.03599321 207.13222974 64.5 213.9375 C65.87179617 220.28758873 67.36922085 226.51751998 69.33398438 232.71313477 C70.03615629 235.1241481 70.54009138 237.5323505 71 240 C66.99724819 239.69639807 62.99873361 239.35247196 59 239 C57.95513428 238.91129639 57.95513428 238.91129639 56.88916016 238.82080078 C47.85776133 238.03780062 39.05291145 236.91359401 30.1875 235 C22.07460635 233.24934402 14.04870204 232.27796624 5.7722168 231.68359375 C-0.58546263 231.21349843 -6.74861635 230.24683409 -13 229 C-13.05534912 230.09352783 -13.11069824 231.18705566 -13.16772461 232.3137207 C-13.37613147 236.41962953 -13.58743616 240.52538521 -13.79956055 244.63110352 C-13.89050502 246.39896745 -13.98069181 248.16687055 -14.07006836 249.93481445 C-15.02331808 268.77081595 -15.02331808 268.77081595 -16 278 C-22.3025161 276.68277413 -28.37692867 275.04525638 -34.5 273.0625 C-35.29019531 272.81048828 -36.08039063 272.55847656 -36.89453125 272.29882812 C-40.86757106 271.02758544 -44.82664484 269.72180365 -48.77734375 268.3828125 C-51.8492155 267.35493505 -54.88603459 266.46796112 -58.0625 265.8125 C-58.81660156 265.65394531 -59.57070312 265.49539063 -60.34765625 265.33203125 C-60.89292969 265.22246094 -61.43820313 265.11289062 -62 265 C-62 264.34 -62 263.68 -62 263 C-62.67804688 262.97421875 -63.35609375 262.9484375 -64.0546875 262.921875 C-70.15893507 262.54987099 -74.97808722 261.4493606 -80.5625 258.98828125 C-84.29263532 257.47590267 -88.05491395 256.76356504 -92 256 C-92 255.34 -92 254.68 -92 254 C-93.19625 253.9175 -94.3925 253.835 -95.625 253.75 C-104.31421592 252.78910724 -112.78627877 249.97569494 -120.89453125 246.77734375 C-124.75556369 245.35184198 -128.71350919 244.22449436 -132.65234375 243.03515625 C-135.73044062 242.08335267 -138.76892282 241.05593494 -141.8125 240 C-146.46684529 238.42194362 -151.15922267 237.19507826 -155.9375 236.0625 C-163.24498596 234.32617188 -170.06064961 231.89931763 -177 229 C-176.47885065 224.94348612 -175.43676965 222.94227373 -172.625 220 C-169.9845667 217.13370479 -167.92911374 214.39891469 -166 211 C-164.69864875 209.30824337 -163.36244796 207.64295195 -162 206 C-161.195625 205.01 -160.39125 204.02 -159.5625 203 C-157.15967374 200.18693511 -154.61393575 197.61393575 -152 195 C-151.67 194.34 -151.34 193.68 -151 193 C-151.66 193 -152.32 193 -153 193 C-153 192.34 -153 191.68 -153 191 C-153.53625 190.9484375 -154.0725 190.896875 -154.625 190.84375 C-163.6041121 189.54414167 -171.09713815 185.21616699 -179 181 C-179 180.34 -179 179.68 -179 179 C-180.546875 178.8453125 -180.546875 178.8453125 -182.125 178.6875 C-185.95083945 178.00872203 -188.63370025 176.88841205 -192 175 C-192 174.34 -192 173.68 -192 173 C-193.051875 172.9175 -194.10375 172.835 -195.1875 172.75 C-199.27047209 171.94679238 -201.0122727 170.80665291 -204 168 C-202.37660195 166.29115995 -200.70680947 164.62553283 -199 163 C-198.34 163 -197.68 163 -197 163 C-197 162.34 -197 161.68 -197 161 C-195.09586877 159.39859233 -193.18777853 157.91038918 -191.1875 156.4375 C-189.99616176 155.54461295 -188.80608029 154.65004688 -187.6171875 153.75390625 C-187.01358398 153.29902832 -186.40998047 152.84415039 -185.78808594 152.37548828 C-182.14479892 149.57288327 -178.6527475 146.58607329 -175.14453125 143.6171875 C-173 142 -173 142 -171 142 C-171 141.34 -171 140.68 -171 140 C-166.52941176 136 -166.52941176 136 -164 136 C-164 135.34 -164 134.68 -164 134 C-162.40273461 132.72815878 -160.74413105 131.5329956 -159.0625 130.375 C-154.41865172 127.08959703 -150.15336682 123.61422401 -145.97265625 119.76171875 C-140.64079823 115 -140.64079823 115 -138 115 C-138 114.34 -138 113.68 -138 113 C-135.9102773 111.20460444 -133.82157918 109.52938558 -131.625 107.875 C-131.02171875 107.40707031 -130.4184375 106.93914062 -129.796875 106.45703125 C-125.26141126 103 -125.26141126 103 -123 103 C-122.505 101.515 -122.505 101.515 -122 100 C-120.14453125 98.3515625 -120.14453125 98.3515625 -117.8125 96.625 C-114.98842519 94.50694389 -112.2273254 92.37773197 -109.5625 90.0625 C-107 88 -107 88 -105 88 C-105 87.34 -105 86.68 -105 86 C-103.3828125 84.5546875 -103.3828125 84.5546875 -101.125 82.875 C-100.3 82.25109375 -99.475 81.6271875 -98.625 80.984375 C-97.75875 80.32953125 -96.8925 79.6746875 -96 79 C-94.36992273 77.71474677 -92.74492934 76.4230203 -91.125 75.125 C-90.30128906 74.46628906 -89.47757812 73.80757813 -88.62890625 73.12890625 C-86.75101419 71.60817643 -84.88509087 70.07261829 -83.02734375 68.52734375 C-82.04894531 67.71394531 -81.07054687 66.90054688 -80.0625 66.0625 C-79.16660156 65.31097656 -78.27070313 64.55945313 -77.34765625 63.78515625 C-75 62 -75 62 -72 61 C-72 60.34 -72 59.68 -72 59 C-70.1015625 57.2734375 -70.1015625 57.2734375 -67.625 55.375 C-66.40683594 54.42753906 -66.40683594 54.42753906 -65.1640625 53.4609375 C-63 52 -63 52 -61 52 C-61 51.34 -61 50.68 -61 50 C-59.1015625 48.2734375 -59.1015625 48.2734375 -56.625 46.375 C-55.40683594 45.42753906 -55.40683594 45.42753906 -54.1640625 44.4609375 C-52 43 -52 43 -50 43 C-50 42.34 -50 41.68 -50 41 C-49.443125 40.773125 -48.88625 40.54625 -48.3125 40.3125 C-45.97928277 38.98824157 -44.4337288 37.4575045 -42.58984375 35.53515625 C-39.84447698 32.8842247 -36.80221951 30.60026532 -33.80859375 28.23828125 C-30.83474895 25.86830479 -27.91481552 23.44214273 -25 21 C-19.72680465 16.58870402 -14.38460491 12.27408848 -9 8 C-8.12214844 7.26523437 -7.24429688 6.53046875 -6.33984375 5.7734375 C-4 4 -4 4 -2 4 C-2 3.34 -2 2.68 -2 2 C-1.34 2 -0.68 2 0 2 C0 1.34 0 0.68 0 0 Z " fill="#ff5b2e" transform="translate(218,10)"/>
<path d="M0 0 C0.99 0 1.98 0 3 0 C3.16604736 0.61931396 3.33209473 1.23862793 3.50317383 1.87670898 C4.27016956 4.73106112 5.04130976 7.58427841 5.8125 10.4375 C6.20405273 11.89833008 6.20405273 11.89833008 6.60351562 13.38867188 C8.03925983 18.68851778 9.60672465 23.8990257 11.3815918 29.09448242 C12.11479542 31.35372216 12.60502141 33.59642897 13 35.9375 C13.81137999 40.29190592 14.95911617 44.45341012 16.27734375 48.6796875 C16.91045659 50.71249304 17.49092157 52.7615421 18.0625 54.8125 C18.91372195 57.90895274 18.91372195 57.90895274 20 60.4375 C21.06253678 63.16025049 21.7300917 65.9029523 22.42480469 68.73754883 C23.00230932 71.00908339 23.6346359 73.25731213 24.2890625 75.5078125 C24.50820312 76.26707031 24.72734375 77.02632813 24.953125 77.80859375 C25.40374054 79.36216943 25.85953551 80.91425151 26.3203125 82.46484375 C27.55171397 86.76741911 28.27474942 90.47386489 28 95 C28.66 95 29.32 95 30 95 C30.17128418 95.61520508 30.34256836 96.23041016 30.51904297 96.86425781 C31.3001681 99.66069634 32.08751556 102.45534593 32.875 105.25 C33.14441406 106.21808594 33.41382813 107.18617187 33.69140625 108.18359375 C34.08779297 109.58544922 34.08779297 109.58544922 34.4921875 111.015625 C34.73308105 111.87446289 34.97397461 112.73330078 35.22216797 113.61816406 C35.96430263 115.89068941 36.92233713 117.87264033 38 120 C38.50659919 122.13495372 38.95926384 124.28300851 39.375 126.4375 C40.59379095 132.3829726 42.15974112 138.09783814 44.03515625 143.8671875 C44.73088596 146.12619652 45.34492718 148.41093058 45.90625 150.70703125 C47.15814545 155.82416151 48.80771316 160.80549031 50.4375 165.8125 C57.52057161 187.57961683 57.52057161 187.57961683 57 194 C57.66 194 58.32 194 59 194 C61.35233398 200.55682783 63.03599321 207.13222974 64.5 213.9375 C65.87179617 220.28758873 67.36922085 226.51751998 69.33398438 232.71313477 C70.03615629 235.1241481 70.54009138 237.5323505 71 240 C66.99724819 239.69639807 62.99873361 239.35247196 59 239 C58.30342285 238.94086426 57.6068457 238.88172852 56.88916016 238.82080078 C46.993488 237.96287024 37.42369059 236.56286281 27.71533203 234.46606445 C20.41019712 232.94943483 13.12136993 232.21264214 5.68432617 231.68359375 C-0.33517455 231.24017662 -6.10878251 230.31459528 -12 229 C-12.10145468 220.72580722 -12.03284818 212.5096054 -11.5 204.25 C-11.07411426 197.49677511 -10.88960992 190.76682723 -10.875 184 C-10.87048828 183.1327832 -10.86597656 182.26556641 -10.86132812 181.37207031 C-10.74484178 177.05014228 -10.74484178 177.05014228 -12 173 C-12.17641478 170.79626122 -12.26753608 168.58533143 -12.3125 166.375 C-12.36857422 164.59222656 -12.36857422 164.59222656 -12.42578125 162.7734375 C-12.03315576 159.29383913 -11.7025976 158.23329185 -10.03442383 155.40380859 C-7.54339022 150.57718614 -7.24952924 146.1279365 -7.0234375 140.765625 C-6.96788696 139.78686401 -6.91233643 138.80810303 -6.85510254 137.79968262 C-6.6783831 134.61710214 -6.52646836 131.43387326 -6.375 128.25 C-6.25698128 126.03409334 -6.13733747 123.81827267 -6.01611328 121.60253906 C-5.77517413 117.15471227 -5.54363515 112.70655786 -5.3203125 108.2578125 C-5.04285733 102.76386575 -4.73404831 97.27239818 -4.40625 91.78125 C-3.68131729 79.53043176 -3.0045527 67.29574623 -2.71118164 55.02514648 C-2.26763583 36.88248928 -0.22258409 18.99536292 2 1 C1.34 0.67 0.68 0.34 0 0 Z " fill="#ff7332" transform="translate(218,10)"/>
<path d="M0 0 C0.98871094 -0.01417969 1.97742188 -0.02835937 2.99609375 -0.04296875 C5.5625 0.1875 5.5625 0.1875 7.5625 2.1875 C7.78955078 4.61767578 7.78955078 4.61767578 7.7578125 7.6328125 C7.74814453 9.24736328 7.74814453 9.24736328 7.73828125 10.89453125 C7.72152344 12.02246094 7.70476562 13.15039062 7.6875 14.3125 C7.67847656 15.44816406 7.66945313 16.58382812 7.66015625 17.75390625 C7.63653098 20.56531299 7.60359013 23.37630298 7.5625 26.1875 C8.31934082 25.86587891 9.07618164 25.54425781 9.85595703 25.21289062 C15.2210557 23.18028965 20.93689932 23.45681853 26.5625 24.1875 C31.00316585 26.2197917 32.98412499 28.65580342 34.6953125 33.1875 C36.00762902 38.24460546 36.02522835 43.42892649 36.1875 48.625 C36.24550781 50.15157227 36.24550781 50.15157227 36.3046875 51.70898438 C36.39830872 54.20164936 36.48403993 56.6943195 36.5625 59.1875 C39.2025 59.5175 41.8425 59.8475 44.5625 60.1875 C44.8925 48.9675 45.2225 37.7475 45.5625 26.1875 C48.38966095 25.24511302 50.19426123 25.05284353 53.125 25.0625 C53.91003906 25.05992187 54.69507813 25.05734375 55.50390625 25.0546875 C57.5625 25.1875 57.5625 25.1875 59.5625 26.1875 C59.8925 25.5275 60.2225 24.8675 60.5625 24.1875 C61.2225 24.1875 61.8825 24.1875 62.5625 24.1875 C62.8925 22.8675 63.2225 21.5475 63.5625 20.1875 C64.2225 20.1875 64.8825 20.1875 65.5625 20.1875 C65.8925 18.8675 66.2225 17.5475 66.5625 16.1875 C67.5525 16.1875 68.5425 16.1875 69.5625 16.1875 C69.2325 16.8475 68.9025 17.5075 68.5625 18.1875 C67.9025 18.1875 67.2425 18.1875 66.5625 18.1875 C67.5525 20.1675 67.5525 20.1675 68.5625 22.1875 C69.50222656 22.15269531 69.50222656 22.15269531 70.4609375 22.1171875 C71.27820313 22.09914062 72.09546875 22.08109375 72.9375 22.0625 C74.15566406 22.02769531 74.15566406 22.02769531 75.3984375 21.9921875 C77.5625 22.1875 77.5625 22.1875 79.5625 24.1875 C81.74413742 24.44849917 81.74413742 24.44849917 84.24609375 24.34765625 C85.17357422 24.33669922 86.10105469 24.32574219 87.05664062 24.31445312 C88.02794922 24.29318359 88.99925781 24.27191406 90 24.25 C91.91528886 24.21554777 93.83066155 24.18541178 95.74609375 24.16015625 C96.59743896 24.14218994 97.44878418 24.12422363 98.32592773 24.10571289 C100.5625 24.1875 100.5625 24.1875 103.5625 25.1875 C103.5625 25.8475 103.5625 26.5075 103.5625 27.1875 C104.14 27.414375 104.7175 27.64125 105.3125 27.875 C108.77165713 29.89284166 111.09081458 32.46415261 112.16015625 36.37109375 C113.38634515 44.95441608 114.38056357 56.6226899 109.5625 64.1875 C105.51242086 68.59205534 101.48542344 72.96482989 95.22265625 73.3203125 C94.36542969 73.31773437 93.50820312 73.31515625 92.625 73.3125 C91.34302734 73.31636719 91.34302734 73.31636719 90.03515625 73.3203125 C87.73569148 73.19680254 85.76609652 72.83170687 83.5625 72.1875 C83.8925 73.1775 84.2225 74.1675 84.5625 75.1875 C86.5425 75.1875 88.5225 75.1875 90.5625 75.1875 C90.64328641 77.31188339 90.70159141 79.4371323 90.75 81.5625 C90.80220703 83.33753906 90.80220703 83.33753906 90.85546875 85.1484375 C90.75878906 86.15132813 90.66210938 87.15421875 90.5625 88.1875 C89.5725 88.8475 88.5825 89.5075 87.5625 90.1875 C87.28664063 91.02667969 87.01078125 91.86585938 86.7265625 92.73046875 C86.15035156 93.94669922 86.15035156 93.94669922 85.5625 95.1875 C82.9609375 96.11328125 82.9609375 96.11328125 79.9375 96.5 C78.93460937 96.64050781 77.93171875 96.78101563 76.8984375 96.92578125 C76.12757813 97.01214844 75.35671875 97.09851563 74.5625 97.1875 C74.43875 97.991875 74.315 98.79625 74.1875 99.625 C73.98125 100.470625 73.775 101.31625 73.5625 102.1875 C72.5725 102.6825 72.5725 102.6825 71.5625 103.1875 C74.2025 103.5175 76.8425 103.8475 79.5625 104.1875 C79.5625 104.8475 79.5625 105.5075 79.5625 106.1875 C80.54347656 106.24808594 81.52445312 106.30867188 82.53515625 106.37109375 C91.87943961 106.95044864 101.22154247 107.55671695 110.5625 108.1875 C110.5625 108.5175 110.5625 108.8475 110.5625 109.1875 C107.9225 109.1875 105.2825 109.1875 102.5625 109.1875 C102.60375 110.21875 102.645 111.25 102.6875 112.3125 C102.71044805 118.66910948 101.54770512 124.9244103 100.5625 131.1875 C90.85256635 129.52543929 82.00348567 124.49139273 73.29589844 120.0690918 C69.0562549 117.91805102 64.78372232 115.92297117 60.41796875 114.0390625 C58.06471769 112.95904412 55.86774067 111.64071469 53.640625 110.32421875 C47.50699937 106.96917165 41.01330566 104.18783569 34.5625 101.5 C31.72764661 100.25975164 29.17025967 98.84698343 26.5625 97.1875 C27.16304201 93.42230404 28.25611659 90.44677226 30 87.0625 C30.43183594 86.21429688 30.86367187 85.36609375 31.30859375 84.4921875 C32.5625 82.1875 32.5625 82.1875 34.5625 79.1875 C34.95263716 77.1978005 35.29452649 75.19730131 35.5625 73.1875 C34.510625 72.9090625 34.510625 72.9090625 33.4375 72.625 C29.46109811 70.63679906 27.03255588 67.85325172 24.5625 64.1875 C23.6875 61.25 23.6875 61.25 23.5625 59.1875 C22.9025 59.1875 22.2425 59.1875 21.5625 59.1875 C21.5625 52.2575 21.5625 45.3275 21.5625 38.1875 C13.36699435 36.35529847 13.36699435 36.35529847 10.03369141 38.70849609 C8.12608987 41.92286483 8.0493965 44.12008369 8.0234375 47.8515625 C8.00023438 49.13804687 7.97703125 50.42453125 7.953125 51.75 C7.94657683 53.10416085 7.94138386 54.45832889 7.9375 55.8125 C7.91600292 58.47181533 7.878655 61.12989796 7.8359375 63.7890625 C7.82997559 64.96807129 7.82401367 66.14708008 7.81787109 67.36181641 C7.5625 70.1875 7.5625 70.1875 5.5625 72.1875 C3.25 72.453125 3.25 72.453125 0.5625 72.4375 C-0.7678125 72.44523437 -0.7678125 72.44523437 -2.125 72.453125 C-4.4375 72.1875 -4.4375 72.1875 -6.4375 70.1875 C-6.68473816 67.33421326 -6.68473816 67.33421326 -6.68041992 63.64233398 C-6.68231827 62.97065186 -6.68421661 62.29896973 -6.68617249 61.60693359 C-6.68988324 59.382369 -6.67917302 57.15812942 -6.66796875 54.93359375 C-6.66677712 53.39185118 -6.66632375 51.85010788 -6.6665802 50.30836487 C-6.66501488 47.07605449 -6.65672083 43.8438548 -6.64331055 40.61157227 C-6.62630639 36.4595031 -6.62249658 32.3075555 -6.62325573 28.15545559 C-6.62298439 24.97197805 -6.61750924 21.78852732 -6.61025429 18.60505867 C-6.60706288 17.07358058 -6.60509912 15.54209945 -6.60436058 14.01061821 C-6.60220278 11.87478283 -6.59347128 9.73907884 -6.58276367 7.60327148 C-6.57895187 6.38574692 -6.57514008 5.16822235 -6.57121277 3.9138031 C-6.33770296 -0.84728675 -4.26225078 0.02771294 0 0 Z " fill="#fe883a" transform="translate(88.4375,127.8125)"/>
<path d="M0 0 C0.66 0 1.32 0 2 0 C1.88207105 2.62547073 1.75558961 5.25014884 1.625 7.875 C1.5940625 8.58269531 1.563125 9.29039063 1.53125 10.01953125 C1.29092205 14.70592634 0.85409916 19.33844469 0.28892517 23.99742126 C-0.96361368 34.41623168 -1.48106625 44.79126076 -1.83425903 55.27529907 C-2.01528648 60.60086658 -2.22141143 65.92543749 -2.4296875 71.25 C-2.49474236 72.91468071 -2.49474236 72.91468071 -2.56111145 74.61299133 C-3.08681042 87.68714289 -3.81433514 100.74947988 -4.5625 113.8125 C-4.62662079 114.9437027 -4.69074158 116.0749054 -4.75680542 117.24038696 C-4.94100493 120.47940815 -5.12798039 123.71825339 -5.31640625 126.95703125 C-5.37051666 127.89889282 -5.42462708 128.84075439 -5.4803772 129.81115723 C-5.6423223 132.54161915 -5.81920353 135.27072578 -6 138 C-6.06355682 139.06181488 -6.12711365 140.12362976 -6.19259644 141.21762085 C-6.26559967 142.28364532 -6.33860291 143.3496698 -6.41381836 144.44799805 C-6.50789223 145.90172066 -6.50789223 145.90172066 -6.60386658 147.3848114 C-7.00290793 150.01919755 -7.66622941 151.63236864 -9.0625 153.875 C-12.26456008 159.3509868 -11.4906731 165.8706082 -11 172 C-10.67 172.66 -10.34 173.32 -10 174 C-9.86700218 176.70016495 -9.81034492 179.36111312 -9.8125 182.0625 C-9.81185547 182.90780273 -9.81121094 183.75310547 -9.81054688 184.62402344 C-9.91898121 198.76484614 -11.04519048 212.89624446 -12 227 C-13.99954746 227.04254356 -16.00041636 227.04080783 -18 227 C-18.33 226.67 -18.66 226.34 -19 226 C-20.61005376 225.78415199 -22.22831436 225.62882272 -23.84765625 225.5 C-24.84603516 225.4175 -25.84441406 225.335 -26.87304688 225.25 C-27.92556641 225.1675 -28.97808594 225.085 -30.0625 225 C-36.73120461 224.46348574 -43.36844923 223.89163708 -50 223 C-50 222.34 -50 221.68 -50 221 C-55.28 220.67 -60.56 220.34 -66 220 C-66 219.67 -66 219.34 -66 219 C-63.03 218.67 -60.06 218.34 -57 218 C-56.34 216.35 -55.68 214.7 -55 213 C-53.39125 212.7834375 -53.39125 212.7834375 -51.75 212.5625 C-50.5125 212.376875 -49.275 212.19125 -48 212 C-47.236875 211.9175 -46.47375 211.835 -45.6875 211.75 C-43.7066689 211.09938313 -43.7066689 211.09938313 -42.9375 208.5 C-42.628125 207.675 -42.31875 206.85 -42 206 C-41.01 205.67 -40.02 205.34 -39 205 C-39 200.71 -39 196.42 -39 192 C-40.98 192 -42.96 192 -45 192 C-45 196.62 -45 201.24 -45 206 C-45.33 206 -45.66 206 -46 206 C-46 200.39 -46 194.78 -46 189 C-43.834375 189.0825 -41.66875 189.165 -39.4375 189.25 C-31.39095944 189.24188857 -28.38554296 187.70843436 -22.1875 182.75 C-17.64227869 177.0360075 -17.82444991 170.90451284 -17.75 163.875 C-17.74057373 163.19397217 -17.73114746 162.51294434 -17.72143555 161.8112793 C-17.76616507 154.87482785 -19.31279293 150.12663274 -24 145 C-24.66 144.67 -25.32 144.34 -26 144 C-26 143.34 -26 142.68 -26 142 C-26.7113208 142.01047363 -27.4226416 142.02094727 -28.15551758 142.03173828 C-31.37447586 142.07328001 -34.59337776 142.09932039 -37.8125 142.125 C-38.93205078 142.14175781 -40.05160156 142.15851563 -41.20507812 142.17578125 C-42.27822266 142.18222656 -43.35136719 142.18867188 -44.45703125 142.1953125 C-45.44678955 142.20578613 -46.43654785 142.21625977 -47.45629883 142.22705078 C-50 142 -50 142 -53 140 C-55.05709596 139.75944532 -55.05709596 139.75944532 -57.1875 139.875 C-58.445625 139.91625 -59.70375 139.9575 -61 140 C-61.99 137.525 -61.99 137.525 -63 135 C-62.01 134.01 -62.01 134.01 -61 133 C-61.66 133.33 -62.32 133.66 -63 134 C-63.33 134.99 -63.66 135.98 -64 137 C-64.66 137 -65.32 137 -66 137 C-65.70996094 136.28328125 -65.41992188 135.5665625 -65.12109375 134.828125 C-64.40212101 133.01440979 -63.70473306 131.191901 -63.03515625 129.359375 C-62.71417969 128.49828125 -62.39320313 127.6371875 -62.0625 126.75 C-61.74410156 125.87859375 -61.42570313 125.0071875 -61.09765625 124.109375 C-60 122 -60 122 -57 121 C-56.30013803 119.12821912 -56.30013803 119.12821912 -56 116.875 C-55.18402325 112.55308925 -53.86154313 108.97693305 -52 105 C-51.34 105 -50.68 105 -50 105 C-49.731875 103.948125 -49.46375 102.89625 -49.1875 101.8125 C-48.12747781 98.40927088 -47.08611696 95.86841082 -45 93 C-44.34 93 -43.68 93 -43 93 C-42.82597656 91.95005859 -42.82597656 91.95005859 -42.6484375 90.87890625 C-41.936661 87.71879009 -40.87185072 84.92616338 -39.625 81.9375 C-39.20476562 80.91527344 -38.78453125 79.89304687 -38.3515625 78.83984375 C-37.11305579 76.23754786 -35.7286084 74.28176309 -34 72 C-33.25774664 70.39926854 -32.57107226 68.77177486 -31.9375 67.125 C-31.60105469 66.25359375 -31.26460937 65.3821875 -30.91796875 64.484375 C-29.88023773 61.67587742 -28.90164243 58.85520104 -28 56 C-27.34 56 -26.68 56 -26 56 C-25.867146 55.41500732 -25.73429199 54.83001465 -25.59741211 54.22729492 C-24.66478009 50.75022018 -23.0813779 47.563703 -21.5625 44.3125 C-21.24990234 43.62349609 -20.93730469 42.93449219 -20.61523438 42.22460938 C-18.24145179 37.1207259 -18.24145179 37.1207259 -16 36 C-13.03494617 31.36710339 -11.49115552 27.31224154 -10 22 C-9.0839144 20.02752741 -8.08508004 18.11108604 -7.078125 16.18359375 C-5.49016611 12.96740164 -4.21868826 9.64188524 -2.9296875 6.296875 C-2.05385975 4.13306527 -1.07376886 2.07151868 0 0 Z " fill="#fff6bb" transform="translate(218,11)"/>
<path d="M0 0 C0.68964844 0.31453125 1.37929687 0.6290625 2.08984375 0.953125 C4.05781233 1.84937407 6.02661701 2.74378868 7.99609375 3.63671875 C9.78203362 4.44724283 11.56648075 5.26109013 13.34765625 6.08203125 C17.20458233 7.83899757 21.05072478 9.38085466 25.0625 10.75 C32.01912369 13.21911151 38.4868561 16.62716152 45.04003906 19.99389648 C50.25381077 22.67027332 55.4287382 25.25748662 60.875 27.4375 C67.28364582 30.07063514 73.61472347 32.88420217 79.5 36.5625 C81.78752585 37.87782737 83.91364795 38.75944923 86.375 39.6875 C90.96070924 41.46018462 95.19616165 43.64583278 99.5 46 C105.19958511 49.11191633 110.89666239 51.75841055 117 54 C118.66828222 54.6626135 120.33535503 55.32830115 122 56 C122.06058594 55.0821875 122.12117187 54.164375 122.18359375 53.21875 C122.62311242 46.781492 123.10530999 40.39064295 124 34 C125.39572052 33.97263293 126.79160221 33.95344011 128.1875 33.9375 C129.35345703 33.92009766 129.35345703 33.92009766 130.54296875 33.90234375 C133.12238294 34.00486419 135.47799967 34.46914924 138 35 C137.73636367 40.35293046 137.46972206 45.70570021 137.20043945 51.05834961 C137.10946818 52.87471587 137.01928127 54.69112161 136.92993164 56.50756836 C135.97668192 75.86546077 135.97668192 75.86546077 135 85 C128.6974839 83.68277413 122.62307133 82.04525638 116.5 80.0625 C115.70980469 79.81048828 114.91960937 79.55847656 114.10546875 79.29882812 C110.13242894 78.02758544 106.17335516 76.72180365 102.22265625 75.3828125 C99.1507845 74.35493505 96.11396541 73.46796112 92.9375 72.8125 C91.80634766 72.57466797 91.80634766 72.57466797 90.65234375 72.33203125 C90.10707031 72.22246094 89.56179687 72.11289062 89 72 C89 71.34 89 70.68 89 70 C88.32195312 69.97421875 87.64390625 69.9484375 86.9453125 69.921875 C80.84106493 69.54987099 76.02191278 68.4493606 70.4375 65.98828125 C66.70736468 64.47590267 62.94508605 63.76356504 59 63 C59 62.34 59 61.68 59 61 C57.80375 60.9175 56.6075 60.835 55.375 60.75 C46.68578408 59.78910724 38.21372123 56.97569494 30.10546875 53.77734375 C26.24443631 52.35184198 22.28649081 51.22449436 18.34765625 50.03515625 C15.26955938 49.08335267 12.23107718 48.05593494 9.1875 47 C4.53315471 45.42194362 -0.15922267 44.19507826 -4.9375 43.0625 C-12.24498596 41.32617188 -19.06064961 38.89931763 -26 36 C-25.47885065 31.94348612 -24.43676965 29.94227373 -21.625 27 C-18.9845667 24.13370479 -16.92911374 21.39891469 -15 18 C-13.69864875 16.30824337 -12.36244796 14.64295195 -11 13 C-10.195625 12.01 -9.39125 11.02 -8.5625 10 C-6.15967374 7.18693511 -3.61393575 4.61393575 -1 2 C-0.67 1.34 -0.34 0.68 0 0 Z " fill="#fce9a4" transform="translate(67,203)"/>
<path d="M0 0 C0.99 0 1.98 0 3 0 C3.16604736 0.61931396 3.33209473 1.23862793 3.50317383 1.87670898 C4.27016956 4.73106112 5.04130976 7.58427841 5.8125 10.4375 C6.07353516 11.41138672 6.33457031 12.38527344 6.60351562 13.38867188 C8.03925983 18.68851778 9.60672465 23.8990257 11.3815918 29.09448242 C12.11479542 31.35372216 12.60502141 33.59642897 13 35.9375 C13.81137999 40.29190592 14.95911617 44.45341012 16.27734375 48.6796875 C16.91045659 50.71249304 17.49092157 52.7615421 18.0625 54.8125 C18.91372195 57.90895274 18.91372195 57.90895274 20 60.4375 C21.06253678 63.16025049 21.7300917 65.9029523 22.42480469 68.73754883 C23.00230932 71.00908339 23.6346359 73.25731213 24.2890625 75.5078125 C24.50820312 76.26707031 24.72734375 77.02632813 24.953125 77.80859375 C25.40374054 79.36216943 25.85953551 80.91425151 26.3203125 82.46484375 C27.55171397 86.76741911 28.27474942 90.47386489 28 95 C28.66 95 29.32 95 30 95 C32.11708383 102.70782949 34.21420337 110.36268453 35.60546875 118.2421875 C35.83930394 120.01766679 35.83930394 120.01766679 37 121 C37.23481693 123.18292774 37.41363323 125.37203174 37.5625 127.5625 C37.64628906 128.76003906 37.73007813 129.95757812 37.81640625 131.19140625 C37.87699219 132.11824219 37.93757813 133.04507813 38 134 C37.01 134.33 36.02 134.66 35 135 C34.34 134.67 33.68 134.34 33 134 C33 134.66 33 135.32 33 136 C33.99 136.33 34.98 136.66 36 137 C36 138.98 36 140.96 36 143 C34.68 143.33 33.36 143.66 32 144 C32 144.99 32 145.98 32 147 C31.34 147 30.68 147 30 147 C30 146.01 30 145.02 30 144 C12.2442852 141.44402832 12.2442852 141.44402832 -3.8125 147.625 C-5.3903125 148.800625 -5.3903125 148.800625 -7 150 C-7.13277643 141.71241781 -6.77148219 133.47491969 -6.28978157 125.2040596 C-6.1562966 122.91023788 -6.02684493 120.61621664 -5.89830017 118.32211304 C-5.57751785 112.61120082 -5.25028831 106.90066194 -4.9229126 101.19012451 C-4.60260139 95.59830117 -4.28587928 90.00628733 -3.97265625 84.4140625 C-3.92837053 83.62849409 -3.88408482 82.84292568 -3.83845711 82.03355217 C-3.24727145 71.48578679 -2.80604365 60.94706556 -2.5 50.38671875 C-2.16709906 39.23415591 -1.30921601 28.25636909 0.0625 17.1875 C0.2517381 15.58541449 0.43988609 13.98319984 0.62695312 12.38085938 C1.07229414 8.58565634 1.53160267 4.79242339 2 1 C1.34 0.67 0.68 0.34 0 0 Z " fill="#fd9b46" transform="translate(218,10)"/>
<path d="M0 0 C0.98871094 -0.01417969 1.97742188 -0.02835937 2.99609375 -0.04296875 C5.5625 0.1875 5.5625 0.1875 7.5625 2.1875 C7.78955078 4.61767578 7.78955078 4.61767578 7.7578125 7.6328125 C7.74814453 9.24736328 7.74814453 9.24736328 7.73828125 10.89453125 C7.72152344 12.02246094 7.70476562 13.15039062 7.6875 14.3125 C7.67847656 15.44816406 7.66945313 16.58382812 7.66015625 17.75390625 C7.63653098 20.56531299 7.60359013 23.37630298 7.5625 26.1875 C8.31934082 25.86587891 9.07618164 25.54425781 9.85595703 25.21289062 C15.2210557 23.18028965 20.93689932 23.45681853 26.5625 24.1875 C31.00316585 26.2197917 32.98412499 28.65580342 34.6953125 33.1875 C36.00762902 38.24460546 36.02522835 43.42892649 36.1875 48.625 C36.24550781 50.15157227 36.24550781 50.15157227 36.3046875 51.70898438 C36.39830872 54.20164936 36.48403993 56.6943195 36.5625 59.1875 C39.2025 59.5175 41.8425 59.8475 44.5625 60.1875 C44.8925 48.9675 45.2225 37.7475 45.5625 26.1875 C48.40464068 25.24011977 50.23858391 25.05289441 53.1875 25.0625 C54.38246094 25.05863281 54.38246094 25.05863281 55.6015625 25.0546875 C57.5625 25.1875 57.5625 25.1875 58.5625 26.1875 C58.85515642 30.60031423 58.87677045 35.01915928 58.91259766 39.44042969 C58.92904227 40.92431447 58.95617811 42.40812389 58.99462891 43.89160156 C59.21774003 52.548313 59.36053138 60.15141117 53.5625 67.1875 C50.33848424 70.52324913 47.26041745 72.97025197 42.4765625 73.35546875 C32.93363851 73.43689302 32.93363851 73.43689302 28.96484375 69.671875 C25.94056903 66.38306561 23.8429526 63.81496791 23.5625 59.1875 C22.9025 59.1875 22.2425 59.1875 21.5625 59.1875 C21.5625 52.2575 21.5625 45.3275 21.5625 38.1875 C13.36699435 36.35529847 13.36699435 36.35529847 10.03369141 38.70849609 C8.12608987 41.92286483 8.0493965 44.12008369 8.0234375 47.8515625 C8.00023438 49.13804687 7.97703125 50.42453125 7.953125 51.75 C7.94657683 53.10416085 7.94138386 54.45832889 7.9375 55.8125 C7.91600292 58.47181533 7.878655 61.12989796 7.8359375 63.7890625 C7.82997559 64.96807129 7.82401367 66.14708008 7.81787109 67.36181641 C7.5625 70.1875 7.5625 70.1875 5.5625 72.1875 C3.25 72.453125 3.25 72.453125 0.5625 72.4375 C-0.7678125 72.44523437 -0.7678125 72.44523437 -2.125 72.453125 C-4.4375 72.1875 -4.4375 72.1875 -6.4375 70.1875 C-6.68473816 67.33421326 -6.68473816 67.33421326 -6.68041992 63.64233398 C-6.68231827 62.97065186 -6.68421661 62.29896973 -6.68617249 61.60693359 C-6.68988324 59.382369 -6.67917302 57.15812942 -6.66796875 54.93359375 C-6.66677712 53.39185118 -6.66632375 51.85010788 -6.6665802 50.30836487 C-6.66501488 47.07605449 -6.65672083 43.8438548 -6.64331055 40.61157227 C-6.62630639 36.4595031 -6.62249658 32.3075555 -6.62325573 28.15545559 C-6.62298439 24.97197805 -6.61750924 21.78852732 -6.61025429 18.60505867 C-6.60706288 17.07358058 -6.60509912 15.54209945 -6.60436058 14.01061821 C-6.60220278 11.87478283 -6.59347128 9.73907884 -6.58276367 7.60327148 C-6.57895187 6.38574692 -6.57514008 5.16822235 -6.57121277 3.9138031 C-6.33770296 -0.84728675 -4.26225078 0.02771294 0 0 Z " fill="#fbdb8e" transform="translate(88.4375,127.8125)"/>
<path d="M0 0 C2.97 0.33 5.94 0.66 9 1 C9 1.99 9 2.98 9 4 C9.70125 3.525625 10.4025 3.05125 11.125 2.5625 C17.20406194 -0.74133801 24.22867316 -0.3614209 31 0 C31.99 0.33 32.98 0.66 34 1 C34 1.66 34 2.32 34 3 C34.5775 3.226875 35.155 3.45375 35.75 3.6875 C39.20915713 5.70534166 41.52831458 8.27665261 42.59765625 12.18359375 C43.82384515 20.76691608 44.81806357 32.4351899 40 40 C35.95945292 44.39418901 31.95542822 48.70725746 25.73046875 49.16796875 C24.89128906 49.17441406 24.05210937 49.18085938 23.1875 49.1875 C21.94033203 49.20876953 21.94033203 49.20876953 20.66796875 49.23046875 C17.55177231 48.96128048 14.92508508 48.08035989 12 47 C12.01047363 47.62567871 12.02094727 48.25135742 12.03173828 48.89599609 C12.07323191 51.7222901 12.09930473 54.54852011 12.125 57.375 C12.15013672 58.85226563 12.15013672 58.85226563 12.17578125 60.359375 C12.18222656 61.30039063 12.18867188 62.24140625 12.1953125 63.2109375 C12.20578613 64.08024902 12.21625977 64.94956055 12.22705078 65.84521484 C12 68 12 68 10 70 C7.6171875 70.1953125 7.6171875 70.1953125 4.875 70.125 C3.96492187 70.10695313 3.05484375 70.08890625 2.1171875 70.0703125 C1.41851562 70.04710937 0.71984375 70.02390625 0 70 C-1.36818854 67.26362291 -1.17807975 65.02421544 -1.23706055 61.96142578 C-1.26346115 60.69315948 -1.28986176 59.42489319 -1.31706238 58.11819458 C-1.34069189 56.7272408 -1.36390038 55.33627982 -1.38671875 53.9453125 C-1.41237416 52.52285537 -1.43815816 51.10040056 -1.46406555 49.677948 C-1.51706447 46.69371246 -1.56598237 43.70944014 -1.61254883 40.72509766 C-1.67287384 36.90268562 -1.74710863 33.0806832 -1.82492352 29.25859261 C-1.88256087 26.31959116 -1.93084056 23.3804899 -1.976511 20.44128036 C-1.99990092 19.03223628 -2.02665014 17.62324378 -2.05682945 16.21432877 C-2.09805296 14.24218731 -2.12490202 12.26976126 -2.15112305 10.29736328 C-2.17031296 9.17532501 -2.18950287 8.05328674 -2.20927429 6.89724731 C-2 4 -2 4 0 0 Z " fill="#fbcc79" transform="translate(158,152)"/>
<path d="M0 0 C4.12711391 3.11826384 6.28790682 4.81519018 7.39453125 10.0078125 C7.45640625 11.0596875 7.51828125 12.1115625 7.58203125 13.1953125 C8.24203125 13.1953125 8.90203125 13.1953125 9.58203125 13.1953125 C10.40495642 30.54531818 10.40495642 30.54531818 5.58203125 37.1953125 C0.86489855 42.30636025 -3.6310867 45.85064357 -10.72265625 46.49609375 C-24.82214116 46.54237215 -24.82214116 46.54237215 -30.28125 41.4609375 C-37.31722416 33.94424461 -39.08456049 27.86597956 -38.82421875 17.63671875 C-37.86630316 9.52206845 -33.41263299 4.66599557 -27.3828125 -0.4921875 C-20.38442675 -5.16705352 -6.9731407 -4.34491991 0 0 Z " fill="#fbbc66" transform="translate(244.41796875,154.8046875)"/>
<path d="M0 0 C0.33 0 0.66 0 1 0 C1.21124707 12.59971417 0.67249047 25.12593042 -0.06201172 37.70263672 C-0.18812878 39.91476275 -0.30619504 42.12736139 -0.41650391 44.34033203 C-0.57814731 47.58225981 -0.76298476 50.82213317 -0.953125 54.0625 C-1.02058929 55.53299805 -1.02058929 55.53299805 -1.0894165 57.03320312 C-1.44084283 62.49493919 -2.30702533 66.53592931 -5.120224 71.26602173 C-6.62778944 74.23733 -6.41524401 77.10844901 -6.3125 80.375 C-6.28800781 81.57898438 -6.26351562 82.78296875 -6.23828125 84.0234375 C-6.19283095 86.92635033 -6.19283095 86.92635033 -5 89 C-4.86700218 91.70016495 -4.81034492 94.36111312 -4.8125 97.0625 C-4.81185547 97.90780273 -4.81121094 98.75310547 -4.81054688 99.62402344 C-4.91898121 113.76484614 -6.04519048 127.89624446 -7 142 C-8.99954746 142.04254356 -11.00041636 142.04080783 -13 142 C-13.33 141.67 -13.66 141.34 -14 141 C-15.61005376 140.78415199 -17.22831436 140.62882272 -18.84765625 140.5 C-19.84603516 140.4175 -20.84441406 140.335 -21.87304688 140.25 C-22.92556641 140.1675 -23.97808594 140.085 -25.0625 140 C-31.73120461 139.46348574 -38.36844923 138.89163708 -45 138 C-45 137.34 -45 136.68 -45 136 C-50.28 135.67 -55.56 135.34 -61 135 C-61 134.67 -61 134.34 -61 134 C-58.03 133.67 -55.06 133.34 -52 133 C-51.34 131.35 -50.68 129.7 -50 128 C-48.39125 127.7834375 -48.39125 127.7834375 -46.75 127.5625 C-45.5125 127.376875 -44.275 127.19125 -43 127 C-42.236875 126.9175 -41.47375 126.835 -40.6875 126.75 C-38.7066689 126.09938313 -38.7066689 126.09938313 -37.9375 123.5 C-37.628125 122.675 -37.31875 121.85 -37 121 C-35.515 120.505 -35.515 120.505 -34 120 C-34 115.71 -34 111.42 -34 107 C-35.98 107 -37.96 107 -40 107 C-40 111.62 -40 116.24 -40 121 C-40.33 121 -40.66 121 -41 121 C-41 115.39 -41 109.78 -41 104 C-38.834375 104.0825 -36.66875 104.165 -34.4375 104.25 C-26.39095944 104.24188857 -23.38554296 102.70843436 -17.1875 97.75 C-12.64227869 92.0360075 -12.82444991 85.90451284 -12.75 78.875 C-12.74057373 78.19397217 -12.73114746 77.51294434 -12.72143555 76.8112793 C-12.76817731 69.56277897 -14.83165839 64.83567825 -19 59 C-18.01 58.67 -17.02 58.34 -16 58 C-15.67 58.99 -15.34 59.98 -15 61 C-12.36 61 -9.72 61 -7 61 C-6.505 60.01 -6.505 60.01 -6 59 C-5.34 58.67 -4.68 58.34 -4 58 C-3.67 46.78 -3.34 35.56 -3 24 C-2.34 24 -1.68 24 -1 24 C-1.01160156 22.68644531 -1.02320313 21.37289062 -1.03515625 20.01953125 C-1.04453828 18.28385559 -1.05363804 16.54817839 -1.0625 14.8125 C-1.07087891 13.94818359 -1.07925781 13.08386719 -1.08789062 12.19335938 C-1.10396812 7.99713231 -1.07559038 4.09063114 0 0 Z " fill="#fcac54" transform="translate(213,96)"/>
<path d="M0 0 C6.22503249 -0.25408296 12.1201425 0.4851497 18.28125 1.35546875 C24.32241818 2.19945548 30.38059356 2.90460137 36.4375 3.625 C38.13700806 3.82766479 38.13700806 3.82766479 39.87084961 4.03442383 C42.58046787 4.35712096 45.2901799 4.67900291 48 5 C48 5.66 48 6.32 48 7 C49.47146484 7.09087891 49.47146484 7.09087891 50.97265625 7.18359375 C60.31693961 7.76294864 69.65904247 8.36921695 79 9 C79 9.33 79 9.66 79 10 C76.36 10 73.72 10 71 10 C71.04125 11.03125 71.0825 12.0625 71.125 13.125 C71.14794805 19.48160948 69.98520512 25.7369103 69 32 C59.29006635 30.33793929 50.44098567 25.30389273 41.73339844 20.8815918 C37.4937549 18.73055102 33.22122232 16.73547117 28.85546875 14.8515625 C26.50221769 13.77154412 24.30524067 12.45321469 22.078125 11.13671875 C14.99157595 7.2604297 7.44789473 4.11772337 0 1 C0 0.67 0 0.34 0 0 Z " fill="#fcac54" transform="translate(120,227)"/>
<path d="M0 0 C3.03215675 2.19831364 3.81654398 3.44963194 5 7 C5.52011703 11.87716293 5.61882999 16.55415249 3.5 21.0625 C0.94421492 24.06554747 0.61216944 24.45413111 -3 25 C-9.25 25 -9.25 25 -11 24 C-14.95009471 18.73320705 -15.80671509 14.50261252 -15 8 C-14.22622912 5.03387831 -13.42137791 3.48879838 -11.4375 1.1875 C-7.68362449 -0.64131115 -4.09237486 -0.69209281 0 0 Z " fill="#fcac54" transform="translate(235,164)"/>
<path d="M0 0 C4.03247179 0.73317669 5.01379945 1.38121111 7.4375 4.625 C7.93359375 8.12109375 7.93359375 8.12109375 7.875 12.0625 C7.87371094 13.36058594 7.87242187 14.65867188 7.87109375 15.99609375 C7.42236804 19.75164498 6.78645395 21.6915389 4.4375 24.625 C0.10799686 26.09539729 -1.83107484 25.95746598 -6 24.0625 C-9.13974848 21.07467483 -9.09075334 17.87214822 -9.25 13.6875 C-8.89897291 6.08457234 -8.89897291 6.08457234 -6.5 2.75 C-3.5625 0.625 -3.5625 0.625 0 0 Z " fill="#fcac54" transform="translate(178.5625,163.375)"/>
<path d="M0 0 C0.33 0 0.66 0 1 0 C1.21124707 12.59971417 0.67249047 25.12593042 -0.06201172 37.70263672 C-0.18812878 39.91476275 -0.30619504 42.12736139 -0.41650391 44.34033203 C-0.57814731 47.58225981 -0.76298476 50.82213317 -0.953125 54.0625 C-1.02058929 55.53299805 -1.02058929 55.53299805 -1.0894165 57.03320312 C-1.44016636 62.48442573 -2.29213822 66.50766148 -5.12365723 71.21643066 C-6.73494251 74.49578562 -6.4220605 77.9264358 -6.25 81.5 C-6.22292969 82.59054688 -6.22292969 82.59054688 -6.1953125 83.703125 C-6.1488332 85.46933843 -6.07711781 87.23485892 -6 89 C-6.66 88.67 -7.32 88.34 -8 88 C-8 82.72 -8 77.44 -8 72 C-8.66 72 -9.32 72 -10 72 C-9.7525 72.99 -9.7525 72.99 -9.5 74 C-8.67019433 78.97883405 -8.38137498 84.14412495 -10 89 C-10.66 89 -11.32 89 -12 89 C-11.67 90.32 -11.34 91.64 -11 93 C-12.485 93.495 -12.485 93.495 -14 94 C-13.83886719 93.01128906 -13.67773438 92.02257812 -13.51171875 91.00390625 C-12.94045979 86.984872 -12.81635832 82.99259232 -12.8125 78.9375 C-12.80025391 78.25623047 -12.78800781 77.57496094 -12.77539062 76.87304688 C-12.75436052 69.57560204 -14.80521669 64.87269664 -19 59 C-17.515 58.505 -17.515 58.505 -16 58 C-15.67 58.99 -15.34 59.98 -15 61 C-12.36 61 -9.72 61 -7 61 C-6.67 60.34 -6.34 59.68 -6 59 C-5.01 58.505 -5.01 58.505 -4 58 C-3.67 46.78 -3.34 35.56 -3 24 C-2.34 24 -1.68 24 -1 24 C-1.01160156 22.68644531 -1.02320313 21.37289062 -1.03515625 20.01953125 C-1.04453828 18.28385559 -1.05363804 16.54817839 -1.0625 14.8125 C-1.07087891 13.94818359 -1.07925781 13.08386719 -1.08789062 12.19335938 C-1.10396812 7.99713231 -1.07559038 4.09063114 0 0 Z M-10 67 C-9 69 -9 69 -9 69 Z " fill="#fcac54" transform="translate(213,96)"/>
<path d="M0 0 C3.74352944 3.74352944 4.47984387 7.69508638 5.5 12.8125 C6.25307873 16.54331349 7.00833959 20.0241848 8.25 23.625 C9.3822127 28.71995713 9.1517761 33.90590303 8 39 C7.01 39.66 6.02 40.32 5 41 C4.67 40.34 4.34 39.68 4 39 C2.515 39.495 2.515 39.495 1 40 C1.49056885 40.56388428 1.9811377 41.12776855 2.48657227 41.70874023 C5.0521152 45.59285388 4.20939055 49.56191168 3.9375 54.0625 C3.90978516 54.97322266 3.88207031 55.88394531 3.85351562 56.82226562 C3.50520263 63.47945915 3.50520263 63.47945915 0.94140625 66.12109375 C0.30074219 66.41113281 -0.33992187 66.70117188 -1 67 C-0.47731534 64.23723823 0.10869587 61.6739124 1 59 C1.22718496 56.43365139 1.41608184 53.88321893 1.5625 51.3125 C1.60568359 50.61060547 1.64886719 49.90871094 1.69335938 49.18554688 C1.7991736 47.45724794 1.90006581 45.7286489 2 44 C1.34 44 0.68 44 0 44 C-0.4125 42.7625 -0.825 41.525 -1.25 40.25 C-2.95207797 35.72710736 -4.97456062 33.1252441 -9.25 30.75 C-9.8275 30.5025 -10.405 30.255 -11 30 C-8.3333581 28.66667905 -6.83319697 29.32897967 -4 30 C-4 30.99 -4 31.98 -4 33 C-3.01 31.02 -2.02 29.04 -1 27 C-0.67 27.66 -0.34 28.32 0 29 C0.66 29 1.32 29 2 29 C1.65772428 26.02934491 1.65772428 26.02934491 1 23 C0.34 22.67 -0.32 22.34 -1 22 C-1 21.34 -1 20.68 -1 20 C0.65 20 2.3 20 4 20 C3.71767279 17.89455987 3.4238102 15.79066411 3.125 13.6875 C2.96257812 12.51574219 2.80015625 11.34398437 2.6328125 10.13671875 C2.17699379 6.85469105 2.17699379 6.85469105 0 4 C0 2.68 0 1.36 0 0 Z " fill="#fcac54" transform="translate(252,124)"/>
<path d="M0 0 C0.98871094 -0.01417969 1.97742188 -0.02835937 2.99609375 -0.04296875 C5.5625 0.1875 5.5625 0.1875 7.5625 2.1875 C7.78955078 4.61767578 7.78955078 4.61767578 7.7578125 7.6328125 C7.74814453 9.24736328 7.74814453 9.24736328 7.73828125 10.89453125 C7.72152344 12.02246094 7.70476562 13.15039062 7.6875 14.3125 C7.67847656 15.44816406 7.66945313 16.58382812 7.66015625 17.75390625 C7.63653098 20.56531299 7.60359013 23.37630298 7.5625 26.1875 C8.31426514 25.86152832 9.06603027 25.53555664 9.84057617 25.19970703 C13.30536293 23.91125014 16.18991812 23.99361996 19.875 24.0625 C21.12925781 24.08054688 22.38351563 24.09859375 23.67578125 24.1171875 C25.10470703 24.15199219 25.10470703 24.15199219 26.5625 24.1875 C27.0575 25.1775 27.0575 25.1775 27.5625 26.1875 C26.67046875 26.15269531 25.7784375 26.11789063 24.859375 26.08203125 C23.68890625 26.05496094 22.5184375 26.02789062 21.3125 26 C20.15234375 25.96519531 18.9921875 25.93039063 17.796875 25.89453125 C14.23954166 26.21675347 13.24777529 27.0014105 10.5625 29.1875 C9.2425 29.1875 7.9225 29.1875 6.5625 29.1875 C5.24888302 26.56026604 5.34996091 24.46139439 5.24609375 21.5234375 C5.18325195 19.84121094 5.18325195 19.84121094 5.11914062 18.125 C5.07982422 16.949375 5.04050781 15.77375 5 14.5625 C4.93522461 12.78746094 4.93522461 12.78746094 4.86914062 10.9765625 C4.76282574 8.04699672 4.66079358 5.11734412 4.5625 2.1875 C2.22955225 2.14508277 -0.10452567 2.14657063 -2.4375 2.1875 C-3.74112595 3.26629307 -3.74112595 3.26629307 -3.55775452 5.85133362 C-3.55553391 7.03936081 -3.55331329 8.227388 -3.55102539 9.45141602 C-3.55117142 10.10505127 -3.55131744 10.75868652 -3.5514679 11.43212891 C-3.55076883 13.60192128 -3.54297678 15.77162879 -3.53515625 17.94140625 C-3.53329205 19.44213311 -3.53186816 20.94286057 -3.53086853 22.44358826 C-3.52704352 26.40068226 -3.5172134 30.35773978 -3.50616455 34.31481934 C-3.49595006 38.34984849 -3.49137083 42.38488353 -3.48632812 46.41992188 C-3.47559111 54.34246469 -3.4585149 62.26497781 -3.4375 70.1875 C-0.4675 70.5175 2.5025 70.8475 5.5625 71.1875 C5.5625 71.5175 5.5625 71.8475 5.5625 72.1875 C3.93786158 72.24145478 2.31271459 72.28027195 0.6875 72.3125 C-0.21742187 72.33570313 -1.12234375 72.35890625 -2.0546875 72.3828125 C-4.4375 72.1875 -4.4375 72.1875 -6.4375 70.1875 C-6.68473816 67.33421326 -6.68473816 67.33421326 -6.68041992 63.64233398 C-6.68231827 62.97065186 -6.68421661 62.29896973 -6.68617249 61.60693359 C-6.68988324 59.382369 -6.67917302 57.15812942 -6.66796875 54.93359375 C-6.66677712 53.39185118 -6.66632375 51.85010788 -6.6665802 50.30836487 C-6.66501488 47.07605449 -6.65672083 43.8438548 -6.64331055 40.61157227 C-6.62630639 36.4595031 -6.62249658 32.3075555 -6.62325573 28.15545559 C-6.62298439 24.97197805 -6.61750924 21.78852732 -6.61025429 18.60505867 C-6.60706288 17.07358058 -6.60509912 15.54209945 -6.60436058 14.01061821 C-6.60220278 11.87478283 -6.59347128 9.73907884 -6.58276367 7.60327148 C-6.57895187 6.38574692 -6.57514008 5.16822235 -6.57121277 3.9138031 C-6.33770296 -0.84728675 -4.26225078 0.02771294 0 0 Z " fill="#fcac54" transform="translate(88.4375,127.8125)"/>
<path d="M0 0 C0.66 0.66 1.32 1.32 2 2 C1.01 2.33 0.02 2.66 -1 3 C-0.34 4.32 0.32 5.64 1 7 C1.62648437 6.97679687 2.25296875 6.95359375 2.8984375 6.9296875 C3.71570313 6.91164062 4.53296875 6.89359375 5.375 6.875 C6.18710938 6.85179687 6.99921875 6.82859375 7.8359375 6.8046875 C10 7 10 7 12 9 C13.31747324 9.69748583 14.64914193 10.36959957 16 11 C15.34 11.66 14.68 12.32 14 13 C13.01 13 12.02 13 11 13 C11 12.01 11 11.02 11 10 C8.03 10 5.06 10 2 10 C1.19535552 14.19831427 0.89982456 18.10155931 0.97827148 22.37255859 C0.99836777 23.61339203 1.01846405 24.85422546 1.03916931 26.13265991 C1.06635901 27.47125485 1.09366996 28.80984733 1.12109375 30.1484375 C1.14542342 31.52990903 1.16926551 32.91138922 1.19264221 34.2928772 C1.25520019 37.91296325 1.32434545 41.53289413 1.39489746 45.15283203 C1.46583792 48.85311877 1.53050052 52.55351474 1.59570312 56.25390625 C1.72435033 63.50272506 1.85996191 70.75139135 2 78 C1.34 78 0.68 78 0 78 C-0.33 61.17 -0.66 44.34 -1 27 C-1.66 27 -2.32 27 -3 27 C-3.5625 25.0625 -3.5625 25.0625 -4 23 C-3.67 22.67 -3.34 22.34 -3 22 C-2.76924918 20.65252916 -2.58846937 19.29622435 -2.4375 17.9375 C-2.293125 16.638125 -2.14875 15.33875 -2 14 C-2.66 14 -3.32 14 -4 14 C-4.33 16.64 -4.66 19.28 -5 22 C-5.33 22 -5.66 22 -6 22 C-6.33 20.35 -6.66 18.7 -7 17 C-7.33 24.92 -7.66 32.84 -8 41 C-8.33 41 -8.66 41 -9 41 C-9.04946866 36.92492428 -9.08575189 32.84996503 -9.10986328 28.7746582 C-9.1199157 27.38855952 -9.1335597 26.00248201 -9.15087891 24.61645508 C-9.17515952 22.6233025 -9.18542031 20.62999467 -9.1953125 18.63671875 C-9.20578613 17.43748779 -9.21625977 16.23825684 -9.22705078 15.00268555 C-9 12 -9 12 -7 9 C-6.34 9 -5.68 9 -5 9 C-4.67 7.68 -4.34 6.36 -4 5 C-3.34 5 -2.68 5 -2 5 C-1.855625 4.360625 -1.71125 3.72125 -1.5625 3.0625 C-1 1 -1 1 0 0 Z " fill="#fcac54" transform="translate(156,143)"/>
<path d="M0 0 C0 0.66 0 1.32 0 2 C0.99 2.33 1.98 2.66 3 3 C2.91253716 4.43861294 2.80434652 5.87597508 2.6875 7.3125 C2.62949219 8.11300781 2.57148438 8.91351563 2.51171875 9.73828125 C1.89998154 12.44206631 1.25272384 13.402614 -1 15 C-3.72507798 15.39078556 -6.23121956 15.13616953 -9 15 C-9 14.34 -9 13.68 -9 13 C-9.66 13 -10.32 13 -11 13 C-12.18306728 10.63386544 -12.13354608 9.13219264 -12.125 6.5 C-12.12757813 5.7059375 -12.13015625 4.911875 -12.1328125 4.09375 C-12 2 -12 2 -11 0 C-7.30428099 -1.56357343 -3.84441631 -0.66537975 0 0 Z " fill="#fcac54" transform="translate(145,134)"/>
<path d="M0 0 C3.03215675 2.19831364 3.81654398 3.44963194 5 7 C5.52011703 11.87716293 5.61882999 16.55415249 3.5 21.0625 C0.94421492 24.06554747 0.61216944 24.45413111 -3 25 C-9.25 25 -9.25 25 -11 24 C-14.95009471 18.73320705 -15.80671509 14.50261252 -15 8 C-14.22622912 5.03387831 -13.42137791 3.48879838 -11.4375 1.1875 C-7.68362449 -0.64131115 -4.09237486 -0.69209281 0 0 Z M-9 3 C-9 3.66 -9 4.32 -9 5 C-9.32355469 5.6084375 -9.64710938 6.216875 -9.98046875 6.84375 C-11.68559643 10.44999704 -11.48027956 14.09324838 -11 18 C-9.81705737 20.55998481 -9.81705737 20.55998481 -8 22 C-7.34 22 -6.68 22 -6 22 C-6 21.34 -6 20.68 -6 20 C-4.68 20 -3.36 20 -2 20 C-0.96986723 18.35178756 0.03114628 16.68496298 1 15 C1.99 15 2.98 15 4 15 C4 13.02 4 11.04 4 9 C3.34 9 2.68 9 2 9 C1.814375 7.2984375 1.814375 7.2984375 1.625 5.5625 C1.41875 4.386875 1.2125 3.21125 1 2 C-2.65430271 0.17284864 -6.09022516 0.09022516 -9 3 Z " fill="#fcac54" transform="translate(235,164)"/>
<path d="M0 0 C0.33 0 0.66 0 1 0 C1.20638953 22.80127986 1.20638953 22.80127986 0 32 C1.65 32 3.3 32 5 32 C5.33 31.01 5.66 30.02 6 29 C7.98 29 9.96 29 12 29 C11.34 30.32 10.68 31.64 10 33 C12.78934042 33.92978014 14.94421489 34.2417268 17.8515625 34.46484375 C19.25148437 34.58182617 19.25148437 34.58182617 20.6796875 34.70117188 C22.65068541 34.85932224 24.62205244 35.01293489 26.59375 35.16210938 C27.98980469 35.28102539 27.98980469 35.28102539 29.4140625 35.40234375 C30.2695166 35.46929443 31.1249707 35.53624512 32.00634766 35.60522461 C32.66425293 35.73550049 33.3221582 35.86577637 34 36 C34.33 36.66 34.66 37.32 35 38 C30.87421801 37.71879943 26.74959195 37.42310967 22.625 37.125 C21.46871094 37.04636719 20.31242187 36.96773437 19.12109375 36.88671875 C12.27819993 36.38413333 5.68550759 35.55721311 -1 34 C-1.13947228 22.62526092 -0.73570866 11.35093354 0 0 Z " fill="#fcac54" transform="translate(207,205)"/>
<path d="M0 0 C2.84450614 3.71973879 3.3227506 6.37390802 3 11 C3.33 10.34 3.66 9.68 4 9 C4.99 9 5.98 9 7 9 C6.52269162 10.4589426 6.04308958 11.91713496 5.5625 13.375 C5.29566406 14.18710938 5.02882812 14.99921875 4.75390625 15.8359375 C4 18 4 18 3 20 C2.34 20 1.68 20 1 20 C0.67 20.99 0.34 21.98 0 23 C-0.66 22.67 -1.32 22.34 -2 22 C-2 21.01 -2 20.02 -2 19 C-3.32 18.67 -4.64 18.34 -6 18 C-5.360625 17.525625 -4.72125 17.05125 -4.0625 16.5625 C-1.15149728 12.94579965 -1.19350218 9.52795106 -1 5 C-1.66 4.67 -2.32 4.34 -3 4 C-3 3.34 -3 2.68 -3 2 C-3.66 1.67 -4.32 1.34 -5 1 C-2 0 -2 0 0 0 Z " fill="#fcac54" transform="translate(148,132)"/>
<path d="M0 0 C0.33 3.63 0.66 7.26 1 11 C1.66 10.67 2.32 10.34 3 10 C3.33 14.29 3.66 18.58 4 23 C3.34 23.33 2.68 23.66 2 24 C1.67 22.68 1.34 21.36 1 20 C0.34 21.98 -0.32 23.96 -1 26 C-1.33 26 -1.66 26 -2 26 C-1.98952637 25.41508789 -1.97905273 24.83017578 -1.96826172 24.22753906 C-1.92659736 21.56840337 -1.90064099 18.90933647 -1.875 16.25 C-1.85824219 15.32960937 -1.84148437 14.40921875 -1.82421875 13.4609375 C-1.81777344 12.57148438 -1.81132812 11.68203125 -1.8046875 10.765625 C-1.79421387 9.94868164 -1.78374023 9.13173828 -1.77294922 8.29003906 C-2.02170084 5.78112482 -2.74299871 4.16604375 -4 2 C-1 0 -1 0 0 0 Z M-4 27 C-3.67 28.32 -3.34 29.64 -3 31 C-4.98 31.99 -4.98 31.99 -7 33 C-5.125 28.125 -5.125 28.125 -4 27 Z " fill="#fcac54" transform="translate(257,162)"/>
<path d="M0 0 C0 1.98 0 3.96 0 6 C-1.32 6.33 -2.64 6.66 -4 7 C-4 7.99 -4 8.98 -4 10 C-4.66 10 -5.32 10 -6 10 C-6 9.01 -6 8.02 -6 7 C-7.299375 6.855625 -8.59875 6.71125 -9.9375 6.5625 C-13.875 6.125 -13.875 6.125 -15 5 C-17.69235776 4.76321284 -20.36498156 4.57801975 -23.0625 4.4375 C-23.82111328 4.39431641 -24.57972656 4.35113281 -25.36132812 4.30664062 C-27.24065438 4.20026367 -29.12030244 4.09960066 -31 4 C-31 3.34 -31 2.68 -31 2 C-28.41638482 1.94592433 -25.83390745 1.906293 -23.25 1.875 C-22.15558594 1.84986328 -22.15558594 1.84986328 -21.0390625 1.82421875 C-17.1070092 1.78847281 -14.39522895 2.00887274 -11 4 C-6.88040943 3.74252559 -3.23928818 0 0 0 Z " fill="#fcac54" transform="translate(254,147)"/>
<path d="M0 0 C0.33 0.66 0.66 1.32 1 2 C1.99 1.67 2.98 1.34 4 1 C3.67 2.98 3.34 4.96 3 7 C2.34 7 1.68 7 1 7 C0.67 9.64 0.34 12.28 0 15 C-0.33 15 -0.66 15 -1 15 C-1.33 13.35 -1.66 11.7 -2 10 C-2.33 17.92 -2.66 25.84 -3 34 C-3.33 34 -3.66 34 -4 34 C-4.04946866 29.92492428 -4.08575189 25.84996503 -4.10986328 21.7746582 C-4.1199157 20.38855952 -4.1335597 19.00248201 -4.15087891 17.61645508 C-4.17515952 15.6233025 -4.18542031 13.62999467 -4.1953125 11.63671875 C-4.20578613 10.43748779 -4.21625977 9.23825684 -4.22705078 8.00268555 C-4 5 -4 5 -2 2 C-1.34 2 -0.68 2 0 2 C0 1.34 0 0.68 0 0 Z " fill="#fcac54" transform="translate(151,150)"/>
<path d="M0 0 C0 0.66 0 1.32 0 2 C-0.66 2 -1.32 2 -2 2 C-2 2.66 -2 3.32 -2 4 C-4.06663 5.82488441 -6.12885545 7.51437809 -8.3125 9.1875 C-9.20485352 9.90196289 -9.20485352 9.90196289 -10.11523438 10.63085938 C-11.68088917 11.83964984 -13.33689697 12.92923503 -15 14 C-15.99 13.67 -16.98 13.34 -18 13 C-16.62660359 10.04191542 -15.27436849 7.35860436 -13 5 C-10.3125 4.75 -10.3125 4.75 -8 5 C-8 4.34 -8 3.68 -8 3 C-2 0 -2 0 0 0 Z " fill="#fcac54" transform="translate(82,121)"/>
<path d="M0 0 C0.99 0.33 1.98 0.66 3 1 C2.91291331 2.45945288 2.80473093 3.91765868 2.6875 5.375 C2.62949219 6.18710938 2.57148438 6.99921875 2.51171875 7.8359375 C2 10 2 10 -1 12 C-1.33 11.67 -1.66 11.34 -2 11 C-1.67 13.31 -1.34 15.62 -1 18 C-1.99 17.67 -2.98 17.34 -4 17 C-4.05449838 15.27119018 -4.09301688 13.54187288 -4.125 11.8125 C-4.14820313 10.84957031 -4.17140625 9.88664063 -4.1953125 8.89453125 C-3.98896101 5.8364022 -3.38418613 3.72481396 -2 1 C-1.34 0.67 -0.68 0.34 0 0 Z " fill="#fcac54" transform="translate(175,166)"/>
<path d="M0 0 C0.66 0.33 1.32 0.66 2 1 C1.54625 1.37125 1.0925 1.7425 0.625 2.125 C-1.47029394 4.54264685 -2.12013285 6.95430602 -3 10 C-3.33 9.34 -3.66 8.68 -4 8 C-7.12197478 9.3089572 -7.12197478 9.3089572 -9 12 C-9.66 12 -10.32 12 -11 12 C-11.66 13.65 -12.32 15.3 -13 17 C-15.31 17.33 -17.62 17.66 -20 18 C-18.33333333 16.33333333 -16.66666667 14.66666667 -15 13 C-14.443125 12.401875 -13.88625 11.80375 -13.3125 11.1875 C-12 10 -12 10 -10 10 C-10 9.34 -10 8.68 -10 8 C-8.06640625 6.30859375 -8.06640625 6.30859375 -5.5625 4.4375 C-2.67307373 2.34532911 -2.67307373 2.34532911 0 0 Z " fill="#fcac54" transform="translate(123,88)"/>
<path d="M0 0 C0.99 0.33 1.98 0.66 3 1 C2.86183041 4.64616671 2.71318466 8.29183074 2.5625 11.9375 C2.52318359 12.97841797 2.48386719 14.01933594 2.44335938 15.09179688 C2.40146484 16.08115234 2.35957031 17.07050781 2.31640625 18.08984375 C2.26141968 19.46450806 2.26141968 19.46450806 2.20532227 20.86694336 C2 23 2 23 1 24 C-1.18639453 24.07258946 -3.37500389 24.08373783 -5.5625 24.0625 C-7.35880859 24.04896484 -7.35880859 24.04896484 -9.19140625 24.03515625 C-10.11824219 24.02355469 -11.04507813 24.01195312 -12 24 C-12 23.67 -12 23.34 -12 23 C-11.28972656 22.93941406 -10.57945312 22.87882812 -9.84765625 22.81640625 C-8.46900391 22.69072266 -8.46900391 22.69072266 -7.0625 22.5625 C-6.14597656 22.48128906 -5.22945312 22.40007812 -4.28515625 22.31640625 C-2.03840268 22.23955024 -2.03840268 22.23955024 -1 21 C-0.84313751 19.44051458 -0.74923361 17.87457332 -0.68359375 16.30859375 C-0.64169922 15.36435547 -0.59980469 14.42011719 -0.55664062 13.44726562 C-0.49766602 11.95743164 -0.49766602 11.95743164 -0.4375 10.4375 C-0.39431641 9.44041016 -0.35113281 8.44332031 -0.30664062 7.41601562 C-0.20019702 4.9441585 -0.09818072 2.4721969 0 0 Z " fill="#fcac54" transform="translate(170,199)"/>
<path d="M0 0 C5.04608688 4.52853951 5.83613329 7.03779403 6.203125 13.671875 C6.34469389 21.30914421 6.05521351 27.87116848 3 35 C1.6971229 32.39424579 2.24474685 31.42317938 2.9375 28.625 C4.14916044 22.8842364 5.0454218 16.82069594 4 11 C2.69212263 9.96692955 1.35909742 8.96469268 0 8 C-0.52799676 5.23857697 -0.18598981 2.83634455 0 0 Z " fill="#fcac54" transform="translate(195,157)"/>
<path d="M0 0 C0.66 0 1.32 0 2 0 C1.03644647 18.82004556 1.03644647 18.82004556 0 28 C-0.33 28 -0.66 28 -1 28 C-1.33 21.73 -1.66 15.46 -2 9 C-2.99 9.99 -3.98 10.98 -5 12 C-3.41037341 7.96479403 -1.71767682 3.98188718 0 0 Z M-1 6 C0 8 0 8 0 8 Z " fill="#fcac54" transform="translate(218,11)"/>
<path d="M0 0 C0.33 0 0.66 0 1 0 C1 7.92 1 15.84 1 24 C2.65 23.34 4.3 22.68 6 22 C9.55078125 21.8046875 9.55078125 21.8046875 13.3125 21.875 C14.56675781 21.89304688 15.82101563 21.91109375 17.11328125 21.9296875 C18.54220703 21.96449219 18.54220703 21.96449219 20 22 C20.33 22.66 20.66 23.32 21 24 C20.10796875 23.96519531 19.2159375 23.93039063 18.296875 23.89453125 C17.12640625 23.86746094 15.9559375 23.84039062 14.75 23.8125 C13.58984375 23.77769531 12.4296875 23.74289063 11.234375 23.70703125 C7.67704166 24.02925347 6.68527529 24.8139105 4 27 C2.68 27 1.36 27 0 27 C0 18.09 0 9.18 0 0 Z " fill="#fcac54" transform="translate(95,130)"/>
<path d="M0 0 C5.90622747 5.90622747 6.77538742 18.0400182 8 26 C7.34 25.34 6.68 24.68 6 24 C5.34 24.33 4.68 24.66 4 25 C3.34 23.68 2.68 22.36 2 21 C2.99 21 3.98 21 5 21 C4.34 17.7 3.68 14.4 3 11 C2.01 11.33 1.02 11.66 0 12 C0 8.04 0 4.08 0 0 Z " fill="#fcac54" transform="translate(231,51)"/>
<path d="M0 0 C1.95143115 2.86975169 1.98930952 4.12614763 1.6875 7.6875 C1 11 1 11 0 12 C-0.07179964 13.51928038 -0.08392007 15.04167482 -0.0625 16.5625 C-0.05347656 17.38878906 -0.04445312 18.21507812 -0.03515625 19.06640625 C-0.02355469 19.70449219 -0.01195312 20.34257812 0 21 C-0.66 21 -1.32 21 -2 21 C-2.2498764 18.4380143 -2.47541116 15.87765869 -2.6875 13.3125 C-2.76033203 12.59126953 -2.83316406 11.87003906 -2.90820312 11.12695312 C-3.2715846 6.44574473 -2.87521097 3.74738294 0 0 Z " fill="#fcac54" transform="translate(188,237)"/>
<path d="M0 0 C0.33 0.99 0.66 1.98 1 3 C1.66 3 2.32 3 3 3 C3.06058594 4.09699219 3.12117187 5.19398438 3.18359375 6.32421875 C3.26804498 7.77865654 3.35269066 9.23308305 3.4375 10.6875 C3.49647461 11.7693457 3.49647461 11.7693457 3.55664062 12.87304688 C3.78185678 16.66707282 4.12839305 20.28651492 5 24 C3.02 23.67 1.04 23.34 -1 23 C-1 22.01 -1 21.02 -1 20 C-0.34 20 0.32 20 1 20 C1.02686553 18.02090602 1.04633375 16.04171029 1.0625 14.0625 C1.07410156 12.96035156 1.08570313 11.85820312 1.09765625 10.72265625 C1.31262571 8.08552366 1.31262571 8.08552366 0 7 C-0.04092937 4.66702567 -0.04241723 2.33294775 0 0 Z " fill="#fcac54" transform="translate(202,165)"/>
<path d="M0 0 C0.33 0 0.66 0 1 0 C1.04934656 5.80239614 1.08569402 11.60467081 1.10986328 17.40722656 C1.11993627 19.38218309 1.13359521 21.35712466 1.15087891 23.33203125 C1.17507039 26.16670418 1.18646991 29.00118038 1.1953125 31.8359375 C1.20563507 32.72243988 1.21595764 33.60894226 1.22659302 34.52230835 C1.2269907 36.68285952 1.12272534 38.84293718 1 41 C0.34 41.66 -0.32 42.32 -1 43 C-1.33 40.03 -1.66 37.06 -2 34 C-1.67 34 -1.34 34 -1 34 C-0.67 22.78 -0.34 11.56 0 0 Z " fill="#fcac54" transform="translate(210,120)"/>
<path d="M0 0 C1 2 1 2 0.875 3.9375 C-0.40781906 6.96128778 -2.06503967 7.59632332 -5 9 C-10.13709163 10.73967766 -14.52471657 11.22080148 -19.9375 11.125 C-20.62134766 11.11597656 -21.30519531 11.10695312 -22.00976562 11.09765625 C-23.67333287 11.07438958 -25.33671631 11.03853167 -27 11 C-27 10.67 -27 10.34 -27 10 C-26.05898437 9.96261719 -25.11796875 9.92523438 -24.1484375 9.88671875 C-22.90320313 9.82097656 -21.65796875 9.75523437 -20.375 9.6875 C-18.53035156 9.60048828 -18.53035156 9.60048828 -16.6484375 9.51171875 C-11.13152916 8.73793396 -7.22475408 6.50227867 -3.125 2.8125 C-2.52945313 2.28269531 -1.93390625 1.75289062 -1.3203125 1.20703125 C-0.88460937 0.80871094 -0.44890625 0.41039062 0 0 Z " fill="#fcac54" transform="translate(250,191)"/>
<path d="M0 0 C2 1 2 1 3.125 4.0625 C4.49007724 9.28633887 4.72683909 14.81948273 3 20 C2.34 20 1.68 20 1 20 C1.33 21.32 1.66 22.64 2 24 C1.01 24.33 0.02 24.66 -1 25 C-0.83628906 24.03964844 -0.67257813 23.07929688 -0.50390625 22.08984375 C0.14094818 17.57586275 0.11017662 13.11378358 0.0625 8.5625 C0.05798828 7.73556641 0.05347656 6.90863281 0.04882812 6.05664062 C0.03715811 4.03772854 0.01922718 2.01885426 0 0 Z " fill="#fcac54" transform="translate(200,165)"/>
<path d="M0 0 C0.33 0 0.66 0 1 0 C1.02505615 0.56509277 1.0501123 1.13018555 1.07592773 1.71240234 C1.19179956 4.26683742 1.31456537 6.8208955 1.4375 9.375 C1.47681641 10.26445312 1.51613281 11.15390625 1.55664062 12.0703125 C1.59853516 12.92109375 1.64042969 13.771875 1.68359375 14.6484375 C1.72025146 15.43395996 1.75690918 16.21948242 1.79467773 17.02880859 C1.890891 19.07523496 1.890891 19.07523496 3 21 C3.99 21.33 4.98 21.66 6 22 C2.535 24.475 2.535 24.475 -1 27 C-1.1723784 17.95971078 -0.6331684 9.01134307 0 0 Z " fill="#fcac54" transform="translate(212,133)"/>
<path d="M0 0 C0.99 0 1.98 0 3 0 C2.58894145 5.24099655 1.75960806 8.24039194 -2 12 C-2.66 12 -3.32 12 -4 12 C-4.103125 12.70125 -4.20625 13.4025 -4.3125 14.125 C-5.09359003 17.39137647 -6.42058743 20.0471852 -8 23 C-8.67578125 21.34765625 -8.67578125 21.34765625 -9 19 C-7.85546875 16.30859375 -7.85546875 16.30859375 -6.1875 13.4375 C-5.37345703 12.01244141 -5.37345703 12.01244141 -4.54296875 10.55859375 C-3.40827883 8.67701932 -2.21880693 6.82821039 -1 5 C-0.61500109 3.34450469 -0.27206865 1.6777567 0 0 Z " fill="#fcac54" transform="translate(124,202)"/>
<path d="M0 0 C0.66 0.33 1.32 0.66 2 1 C1.51789063 1.37511719 1.03578125 1.75023438 0.5390625 2.13671875 C-0.09257813 2.64847656 -0.72421875 3.16023438 -1.375 3.6875 C-2.31472656 4.43580078 -2.31472656 4.43580078 -3.2734375 5.19921875 C-5.46673485 7.26180344 -5.46673485 7.26180344 -7 12 C-3.04 12 0.92 12 5 12 C4.67 12.66 4.34 13.32 4 14 C0.04 14 -3.92 14 -8 14 C-8.33 13.01 -8.66 12.02 -9 11 C-10.32 11.33 -11.64 11.66 -13 12 C-12.67 11.34 -12.34 10.68 -12 10 C-11.34 10 -10.68 10 -10 10 C-10 9.34 -10 8.68 -10 8 C-8.38542921 6.56418526 -6.70780925 5.19855217 -5 3.875 C-4.071875 3.15054688 -3.14375 2.42609375 -2.1875 1.6796875 C-1.465625 1.12539062 -0.74375 0.57109375 0 0 Z " fill="#fcac54" transform="translate(90,115)"/>
<path d="M0 0 C0.495 0.309375 0.99 0.61875 1.5 0.9375 C4.97986781 2.41644382 8.24028509 2.62402851 12 3 C12 3.33 12 3.66 12 4 C9.03 4 6.06 4 3 4 C2.67 5.32 2.34 6.64 2 8 C2.99 9.485 2.99 9.485 4 11 C0.31245243 10.50168276 -1.60490662 9.89932357 -4 7 C-3.01 7 -2.02 7 -1 7 C-1 6.01 -1 5.02 -1 4 C-0.34 4 0.32 4 1 4 C0.67 2.68 0.34 1.36 0 0 Z " fill="#fcac54" transform="translate(81,199)"/>
<path d="M0 0 C0.33 0 0.66 0 1 0 C1.33 4.29 1.66 8.58 2 13 C2.33 13 2.66 13 3 13 C3 14.65 3 16.3 3 18 C4.65 17.67 6.3 17.34 8 17 C7.67 18.32 7.34 19.64 7 21 C4.0625 20.625 4.0625 20.625 1 20 C-0.1482685 17.703463 -0.11561175 16.41686833 -0.09765625 13.8671875 C-0.09443359 13.06152344 -0.09121094 12.25585938 -0.08789062 11.42578125 C-0.07951172 10.58402344 -0.07113281 9.74226562 -0.0625 8.875 C-0.05798828 8.02550781 -0.05347656 7.17601562 -0.04882812 6.30078125 C-0.03702874 4.20049091 -0.01909306 2.1002367 0 0 Z " fill="#fcac54" transform="translate(124,167)"/>
<path d="M0 0 C2.01966764 2.31887766 2.95760023 4.13534764 3.109375 7.23046875 C2.67168278 13.32831722 2.67168278 13.32831722 -0.0625 16.0625 C-1.0215625 16.5265625 -1.0215625 16.5265625 -2 17 C-2.66 16.67 -3.32 16.34 -4 16 C-3.505 15.29875 -3.01 14.5975 -2.5 13.875 C-0.8063319 10.62880281 -0.74837685 8.60659844 -1 5 C-1.66 4.67 -2.32 4.34 -3 4 C-3 3.34 -3 2.68 -3 2 C-3.66 1.67 -4.32 1.34 -5 1 C-2 0 -2 0 0 0 Z " fill="#fcac54" transform="translate(148,132)"/>
<path d="M0 0 C10.55041118 -0.16746684 19.79609384 1.25478667 30 4 C20.6307976 6.84306832 9.3359989 3.00327102 0 1 C0 0.67 0 0.34 0 0 Z " fill="#fcac54" transform="translate(243,243)"/>
<path d="M0 0 C2.35232273 2.35232273 2.29557039 2.86280332 2.3125 6.0625 C2.20142281 10.96576434 1.25305251 15.61442866 -1 20 C-4 22 -4 22 -7.1875 21.625 C-8.115625 21.41875 -9.04375 21.2125 -10 21 C-10 20.67 -10 20.34 -10 20 C-8.88625 19.7525 -7.7725 19.505 -6.625 19.25 C-3.05994805 18.40663441 -3.05994805 18.40663441 -1.8125 16.375 C-0.71215249 13.1585996 -0.56329467 10.13930414 -0.375 6.75 C-0.30023438 5.48671875 -0.22546875 4.2234375 -0.1484375 2.921875 C-0.09945312 1.95765625 -0.05046875 0.9934375 0 0 Z " fill="#fcac54" transform="translate(186,169)"/>
<path d="M0 0 C4.75269291 3.55522256 4.75269291 3.55522256 5.38330078 7.23925781 C5.41158453 9.89175878 5.27304235 12.48089162 5.0625 15.125 C5.02576172 16.03121094 4.98902344 16.93742187 4.95117188 17.87109375 C4.53695385 24.44985069 4.53695385 24.44985069 1.93359375 27.1171875 C1.29550781 27.40851563 0.65742188 27.69984375 0 28 C0.52268466 25.23723823 1.10869587 22.6739124 2 20 C2.22718496 17.43365139 2.41608184 14.88321893 2.5625 12.3125 C2.60568359 11.61060547 2.64886719 10.90871094 2.69335938 10.18554688 C2.7991736 8.45724794 2.90006581 6.7286489 3 5 C2.34 5 1.68 5 1 5 C0.67 3.35 0.34 1.7 0 0 Z " fill="#fcac54" transform="translate(251,163)"/>
<path d="M0 0 C0.66 0.33 1.32 0.66 2 1 C-0.75 5.875 -0.75 5.875 -3 7 C-3.33 15.91 -3.66 24.82 -4 34 C-4.33 34 -4.66 34 -5 34 C-5.12406007 29.96174934 -5.21455045 25.92424362 -5.2746582 21.88452148 C-5.29972617 20.51192898 -5.33379082 19.13946898 -5.37719727 17.76733398 C-5.43817531 15.78949304 -5.46361009 13.81065816 -5.48828125 11.83203125 C-5.51446533 10.64327393 -5.54064941 9.4545166 -5.56762695 8.22973633 C-4.84301484 4.10677133 -3.14919485 2.64358017 0 0 Z " fill="#fcac54" transform="translate(101,164)"/>
<path d="M0 0 C4.68520915 1.21815438 8.70543612 2.69559987 13 5 C9.3558226 7.4294516 7.28758728 7.16179575 3 7 C2.67 6.01 2.34 5.02 2 4 C2.66 4 3.32 4 4 4 C4 3.34 4 2.68 4 2 C2.68 2 1.36 2 0 2 C0 1.34 0 0.68 0 0 Z " fill="#fcac54" transform="translate(147,241)"/>
<path d="M0 0 C2.66788441 2.66788441 2.79298368 4.8921892 3.5625 8.5625 C4.11175423 12.59976646 4.11175423 12.59976646 6 16 C6.23192865 17.51469448 6.41215238 19.03754562 6.5625 20.5625 C6.64628906 21.38878906 6.73007813 22.21507813 6.81640625 23.06640625 C6.90728516 24.02353516 6.90728516 24.02353516 7 25 C6.34 24.67 5.68 24.34 5 24 C4.2986716 21.67684969 3.63514826 19.34210921 3 17 C2.66226563 16.40316406 2.32453125 15.80632813 1.9765625 15.19140625 C0.64815851 12.21046769 0.56981492 9.49691533 0.375 6.25 C0.30023438 5.07953125 0.22546875 3.9090625 0.1484375 2.703125 C0.09945312 1.81109375 0.05046875 0.9190625 0 0 Z " fill="#fcac54" transform="translate(224,25)"/>
<path d="M0 0 C2.97 0.495 2.97 0.495 6 1 C6 1.66 6 2.32 6 3 C7.299375 3.103125 8.59875 3.20625 9.9375 3.3125 C14.90160353 3.848308 19.34248334 5.24930225 24 7 C20.56177228 8.1433729 18.03406234 7.86227289 14.5 7.1875 C13.09234375 6.93033203 13.09234375 6.93033203 11.65625 6.66796875 C9.18425165 6.04633387 7.21617317 5.23875717 5 4 C5 3.34 5 2.68 5 2 C3.35 1.67 1.7 1.34 0 1 C0 0.67 0 0.34 0 0 Z " fill="#fcac54" transform="translate(120,263)"/>
<path d="M0 0 C8.62557807 -0.16206723 16.85181576 -0.13391701 25 3 C25 3.33 25 3.66 25 4 C16.39235455 4.46112386 8.38520694 2.72848437 0 1 C0 0.67 0 0.34 0 0 Z " fill="#fcac54" transform="translate(116,225)"/>
<path d="M0 0 C-1.25 2.9375 -1.25 2.9375 -3 6 C-5.1875 6.875 -5.1875 6.875 -7 7 C-7 5.68 -7 4.36 -7 3 C-8.98 2.34 -10.96 1.68 -13 1 C-13 0.67 -13 0.34 -13 0 C-11.39679026 -0.19551338 -9.79237014 -0.38111983 -8.1875 -0.5625 C-7.29417969 -0.66691406 -6.40085937 -0.77132812 -5.48046875 -0.87890625 C-3 -1 -3 -1 0 0 Z " fill="#fcac54" transform="translate(97,200)"/>
<path d="M0 0 C0.33 0 0.66 0 1 0 C1.8320582 5.72040011 2.12036664 11.22240116 2 17 C2.66 17 3.32 17 4 17 C4 19.31 4 21.62 4 24 C2 21 2 21 2 19 C1.34 19 0.68 19 0 19 C0 12.73 0 6.46 0 0 Z " fill="#fcac54" transform="translate(110,168)"/>
<path d="M0 0 C2.94484141 1.66874346 3.91035007 2.7634238 5.125 5.96875 C6.38325692 10.7544651 6.21698613 15.523318 6.125 20.4375 C6.11597656 21.35982422 6.10695313 22.28214844 6.09765625 23.23242188 C6.0742766 25.48855809 6.04150916 27.74413684 6 30 C5.67 30 5.34 30 5 30 C4.93941406 28.68644531 4.87882812 27.37289062 4.81640625 26.01953125 C4.73196744 24.28384459 4.64732112 22.54816802 4.5625 20.8125 C4.52318359 19.94818359 4.48386719 19.08386719 4.44335938 18.19335938 C4.23652984 14.04085878 3.99896469 10.05462138 3 6 C2.34 6 1.68 6 1 6 C0.67 4.02 0.34 2.04 0 0 Z " fill="#fcac54" transform="translate(118,155)"/>
<path d="M0 0 C11.63856502 -0.76681614 11.63856502 -0.76681614 14.9765625 1.11328125 C16.3125 2.5 16.3125 2.5 18 5 C13.125 4.125 13.125 4.125 12 3 C9.81707226 2.76518307 7.62796826 2.58636677 5.4375 2.4375 C3.64119141 2.31181641 3.64119141 2.31181641 1.80859375 2.18359375 C0.88175781 2.12300781 -0.04507813 2.06242188 -1 2 C-0.67 1.34 -0.34 0.68 0 0 Z " fill="#fcac54" transform="translate(103,150)"/>
<path d="M0 0 C0.99 0 1.98 0 3 0 C2.67 4.62 2.34 9.24 2 14 C-1.75635569 13.24872886 -3.83210307 12.75994274 -7 11 C-5.125 9.9375 -5.125 9.9375 -3 9 C-2.34 9.33 -1.68 9.66 -1 10 C-1 10.99 -1 11.98 -1 13 C-0.34 13 0.32 13 1 13 C0.67 8.71 0.34 4.42 0 0 Z " fill="#fcac54" transform="translate(187,245)"/>
<path d="M0 0 C0.33 0 0.66 0 1 0 C1 6.93 1 13.86 1 21 C1.66 21 2.32 21 3 21 C3.33 22.32 3.66 23.64 4 25 C3.01 25 2.02 25 1 25 C-1.24434537 21.63348195 -1.20138902 20.78403012 -0.9765625 16.89453125 C-0.925 15.91162109 -0.8734375 14.92871094 -0.8203125 13.91601562 C-0.75585938 12.89185547 -0.69140625 11.86769531 -0.625 10.8125 C-0.56828125 9.77673828 -0.5115625 8.74097656 -0.453125 7.67382812 C-0.31163334 5.11518729 -0.16022134 2.55752516 0 0 Z " fill="#fcac54" transform="translate(109,166)"/>
<path d="M0 0 C1.65 0 3.3 0 5 0 C4.51917969 0.66386719 4.03835937 1.32773438 3.54296875 2.01171875 C1.67792695 5.62376172 1.44576934 8.83345814 1.3125 12.8125 C1.27833984 13.50537109 1.24417969 14.19824219 1.20898438 14.91210938 C1.12713656 16.60752849 1.06187635 18.30373458 1 20 C0.34 20 -0.32 20 -1 20 C-2.125 14.375 -2.125 14.375 -1 11 C-0.77820215 9.10787263 -0.59385985 7.21115528 -0.4375 5.3125 C-0.35371094 4.31863281 -0.26992187 3.32476562 -0.18359375 2.30078125 C-0.12300781 1.54152344 -0.06242188 0.78226563 0 0 Z " fill="#fcac54" transform="translate(192,238)"/>
<path d="M0 0 C0.99 0.33 1.98 0.66 3 1 C5.57265818 1.07029121 8.11641431 1.09370832 10.6875 1.0625 C11.38939453 1.05798828 12.09128906 1.05347656 12.81445312 1.04882812 C14.54300538 1.03706927 16.27151365 1.01913454 18 1 C17.67 1.66 17.34 2.32 17 3 C11.72 3 6.44 3 1 3 C1 7.62 1 12.24 1 17 C0.67 17 0.34 17 0 17 C0 11.39 0 5.78 0 0 Z " fill="#fcac54" transform="translate(172,200)"/>
<path d="M0 0 C0.33 0.99 0.66 1.98 1 3 C-4.67865564 7.75779256 -8.76892678 8.54454667 -16 8 C-19.0625 7 -19.0625 7 -21 6 C-18.42350854 4.71175427 -16.9679289 5.09584237 -14.125 5.4375 C-11.01645545 5.80402988 -8.14652844 6 -5 6 C-4.67 5.01 -4.34 4.02 -4 3 C-1.9375 1.3125 -1.9375 1.3125 0 0 Z " fill="#fcac54" transform="translate(140,193)"/>
<path d="M0 0 C4.875 0.875 4.875 0.875 6 2 C6.07226502 3.85287502 6.0838122 5.70833878 6.0625 7.5625 C6.05347656 8.57441406 6.04445313 9.58632812 6.03515625 10.62890625 C6.02355469 11.41136719 6.01195313 12.19382813 6 13 C5.01 13.495 5.01 13.495 4 14 C4 10.7 4 7.4 4 4 C1.03 3.505 1.03 3.505 -2 3 C-1.34 2.01 -0.68 1.02 0 0 Z " fill="#fcac54" transform="translate(103,164)"/>
<path d="M0 0 C0.33 0.66 0.66 1.32 1 2 C0.01 2.495 0.01 2.495 -1 3 C-1.73075648 5.3140622 -2.40138258 7.64828869 -3 10 C-4.11375 9.690625 -4.11375 9.690625 -5.25 9.375 C-8.32330841 8.95591249 -9.42786866 9.38050989 -12 11 C-8.42270128 6.33867137 -4.89132699 3.26088466 0 0 Z " fill="#fcac54" transform="translate(76,127)"/>
<path d="M0 0 C2.27477677 3.53854164 1.99082706 5.70947373 1.125 9.75 C0.92132813 10.73484375 0.71765625 11.7196875 0.5078125 12.734375 C0.34023437 13.48203125 0.17265625 14.2296875 0 15 C0.99 15 1.98 15 3 15 C3.33 14.01 3.66 13.02 4 12 C4.33 12.66 4.66 13.32 5 14 C4.67 14.66 4.34 15.32 4 16 C2.35 16 0.7 16 -1 16 C-1.02725341 14.2709226 -1.04650987 12.54171824 -1.0625 10.8125 C-1.07410156 9.84957031 -1.08570313 8.88664063 -1.09765625 7.89453125 C-1.00486622 5.14423487 -0.62111685 2.67520409 0 0 Z M5 12 C8 13 8 13 8 13 Z " fill="#fcac54" transform="translate(208,221)"/>
<path d="M0 0 C0.66 0 1.32 0 2 0 C2 0.66 2 1.32 2 2 C3.093125 1.95875 4.18625 1.9175 5.3125 1.875 C9 2 9 2 12 4 C12 4.66 12 5.32 12 6 C8.37 6.33 4.74 6.66 1 7 C1 5.68 1 4.36 1 3 C0.67 2.01 0.34 1.02 0 0 Z " fill="#fcac54" transform="translate(134,147)"/>
<path d="M0 0 C0.66 0.33 1.32 0.66 2 1 C2 1.99 2 2.98 2 4 C1.01 4 0.02 4 -1 4 C-1.33 4.99 -1.66 5.98 -2 7 C-3.32 7 -4.64 7 -6 7 C-6 7.66 -6 8.32 -6 9 C-8.375 10.6875 -8.375 10.6875 -11 12 C-11.66 11.67 -12.32 11.34 -13 11 C-11.625 9.5 -11.625 9.5 -10 8 C-9.34 8 -8.68 8 -8 8 C-8 7.34 -8 6.68 -8 6 C-6.25 4.4921875 -6.25 4.4921875 -4 2.875 C-3.2575 2.33617187 -2.515 1.79734375 -1.75 1.2421875 C-1.1725 0.83226562 -0.595 0.42234375 0 0 Z " fill="#fcac54" transform="translate(62,138)"/>
<path d="M0 0 C2.97 0.33 5.94 0.66 9 1 C9 1.99 9 2.98 9 4 C10.299375 4.12375 11.59875 4.2475 12.9375 4.375 C15.15234375 4.5859375 15.15234375 4.5859375 17 5 C17.33 5.66 17.66 6.32 18 7 C11.68878497 5.9007105 5.93661416 4.41862058 0 2 C0 1.34 0 0.68 0 0 Z " fill="#fcac54" transform="translate(95,254)"/>
<path d="M0 0 C0.928125 0.2784375 0.928125 0.2784375 1.875 0.5625 C4.04160178 1.23686176 4.04160178 1.23686176 6 0 C7.99960012 -0.039992 10.00047242 -0.04346799 12 0 C10.44288747 3.11422506 8.15309849 3.7266333 5 5 C2.125 4.6875 2.125 4.6875 0 4 C0 2.68 0 1.36 0 0 Z " fill="#fcac54" transform="translate(162,242)"/>
<path d="M0 0 C0.33 0.66 0.66 1.32 1 2 C-1.64 2 -4.28 2 -7 2 C-7.66 3.65 -8.32 5.3 -9 7 C-9.33 6.34 -9.66 5.68 -10 5 C-10.99 5 -11.98 5 -13 5 C-13.33 5.99 -13.66 6.98 -14 8 C-13.69209738 5.15190074 -13.34521809 3.41713852 -11.5 1.1875 C-7.73512805 -0.60081417 -4.09873595 -0.23646554 0 0 Z " fill="#fcac54" transform="translate(235,164)"/>
<path d="M0 0 C0 0.33 0 0.66 0 1 C-4.455 1.495 -4.455 1.495 -9 2 C-9 6.29 -9 10.58 -9 15 C-9.66 14.67 -10.32 14.34 -11 14 C-11.08078641 11.87561661 -11.13909141 9.7503677 -11.1875 7.625 C-11.22230469 6.44164062 -11.25710937 5.25828125 -11.29296875 4.0390625 C-11.19628906 3.03617188 -11.09960938 2.03328125 -11 1 C-6.8204355 -1.78637633 -4.85331323 -0.79562512 0 0 Z " fill="#fcac54" transform="translate(143,132)"/>
<path d="M0 0 C0.66 0.33 1.32 0.66 2 1 C-3.90805785 9.39566116 -3.90805785 9.39566116 -8.8125 10.8125 C-9.534375 10.874375 -10.25625 10.93625 -11 11 C-5.57534247 4.21917808 -5.57534247 4.21917808 -2 2 C-1.34 2 -0.68 2 0 2 C0 1.34 0 0.68 0 0 Z " fill="#fcac54" transform="translate(146,69)"/>
<path d="M0 0 C0 4.02646222 -1.20506099 7.41012198 -3 11 C-3.598125 11.144375 -4.19625 11.28875 -4.8125 11.4375 C-7.41224542 12.10600597 -8.94337945 13.31063312 -11 15 C-9.46401812 11.54404076 -7.41603323 8.89923988 -5 6 C-4.54753906 5.45472656 -4.09507813 4.90945312 -3.62890625 4.34765625 C-2.42277725 2.89551794 -1.21179089 1.4474169 0 0 Z " fill="#fcac54" transform="translate(61,210)"/>
<path d="M0 0 C1.32 1.32 2.64 2.64 4 4 C3.01 4.495 3.01 4.495 2 5 C2.33 5.99 2.66 6.98 3 8 C2.67 8.99 2.34 9.98 2 11 C0.35 11 -1.3 11 -3 11 C-3 10.01 -3 9.02 -3 8 C-2.34 8 -1.68 8 -1 8 C-1 7.01 -1 6.02 -1 5 C-0.34 5 0.32 5 1 5 C0.67 3.35 0.34 1.7 0 0 Z " fill="#fcac54" transform="translate(113,192)"/>
<path d="M0 0 C0.33 0 0.66 0 1 0 C1 3.63 1 7.26 1 11 C-3.455 10.01 -3.455 10.01 -8 9 C-6 7 -6 7 -2.875 6.875 C-1.92625 6.91625 -0.9775 6.9575 0 7 C0 4.69 0 2.38 0 0 Z " fill="#fcac54" transform="translate(201,277)"/>
<path d="M0 0 C-0.66 1.32 -1.32 2.64 -2 4 C-2.66 4 -3.32 4 -4 4 C-4 4.66 -4 5.32 -4 6 C-6.5 7.625 -6.5 7.625 -9 9 C-9.33 7.68 -9.66 6.36 -10 5 C-4.03225806 0 -4.03225806 0 0 0 Z " fill="#fcac54" transform="translate(51,146)"/>
<path d="M0 0 C2.07984914 3.11977371 2.78770149 5.45013819 3.6875 9.0625 C3.95949219 10.12597656 4.23148437 11.18945312 4.51171875 12.28515625 C5 15 5 15 4 17 C3.67 15.68 3.34 14.36 3 13 C2.34 13 1.68 13 1 13 C-0.10228696 8.59085217 -0.07654536 4.51617599 0 0 Z " fill="#fcac54" transform="translate(276,204)"/>
<path d="M0 0 C0.625 1.875 0.625 1.875 1 4 C0.34 4.66 -0.32 5.32 -1 6 C-2.09265382 8.56517557 -3.03881096 11.16816889 -4 13.78515625 C-5 16 -5 16 -7 17 C-5.33333333 12 -3.66666667 7 -2 2 C-1.34 2 -0.68 2 0 2 C0 1.34 0 0.68 0 0 Z " fill="#fcac54" transform="translate(168,114)"/>
<path d="M0 0 C-2.31 1.32 -4.62 2.64 -7 4 C-6.67 4.66 -6.34 5.32 -6 6 C-7.98 5.34 -9.96 4.68 -12 4 C-8.66437635 0.13769893 -4.98576775 -1.84658065 0 0 Z " fill="#fcac54" transform="translate(95,207)"/>
<path d="M0 0 C1.32 0.33 2.64 0.66 4 1 C0.7 3.64 -2.6 6.28 -6 9 C-6.33 8.01 -6.66 7.02 -7 6 C-5.75 4.5 -5.75 4.5 -4 3 C-2.68 3 -1.36 3 0 3 C0 2.01 0 1.02 0 0 Z " fill="#fcac54" transform="translate(183,36)"/>
<path d="M0 0 C0.8971875 0.5259375 0.8971875 0.5259375 1.8125 1.0625 C1.8125 1.7225 1.8125 2.3825 1.8125 3.0625 C-0.62597451 2.94852456 -3.06263174 2.82179026 -5.5 2.6875 C-6.53543945 2.64109375 -6.53543945 2.64109375 -7.59179688 2.59375 C-11.25740789 2.38125081 -13.06650792 2.14316139 -16.1875 0.0625 C-15.04861328 0.07990234 -15.04861328 0.07990234 -13.88671875 0.09765625 C-12.89285156 0.10667969 -11.89898437 0.11570313 -10.875 0.125 C-9.88886719 0.13660156 -8.90273438 0.14820313 -7.88671875 0.16015625 C-0.26935053 -0.11543594 -0.26935053 -0.11543594 0 0 Z " fill="#fcac54" transform="translate(286.1875,245.9375)"/>
<path d="M0 0 C1.93835966 0.06010418 3.87584491 0.14891717 5.8125 0.25 C6.89144531 0.29640625 7.97039063 0.3428125 9.08203125 0.390625 C12 1 12 1 13.88671875 3.046875 C14.25410156 3.69140625 14.62148438 4.3359375 15 5 C9.7415998 4.32584613 4.97361654 2.75734451 0 1 C0 0.67 0 0.34 0 0 Z " fill="#fcac54" transform="translate(43,239)"/>
<path d="M0 0 C1 2 1 2 0.65234375 3.83984375 C-0.68772134 7.7721659 -1.4398665 9.60671478 -4.9375 12.0625 C-7.93646701 12.98055113 -9.16252291 13.20047107 -12 12 C-10.906875 11.4225 -9.81375 10.845 -8.6875 10.25 C-4.19401013 7.67711467 -2.16095825 4.65437162 0 0 Z " fill="#fcac54" transform="translate(145,188)"/>
<path d="M0 0 C0.66 0.33 1.32 0.66 2 1 C1.34 1.825 0.68 2.65 0 3.5 C-2.61882469 7.39584875 -2.37773361 10.39164993 -2 15 C-1.67 15.99 -1.34 16.98 -1 18 C-1.99 17.67 -2.98 17.34 -4 17 C-4.05449838 15.27119018 -4.09301688 13.54187288 -4.125 11.8125 C-4.14820313 10.84957031 -4.17140625 9.88664063 -4.1953125 8.89453125 C-3.98896101 5.8364022 -3.38418613 3.72481396 -2 1 C-1.34 0.67 -0.68 0.34 0 0 Z " fill="#fcac54" transform="translate(175,166)"/>
<path d="M0 0 C-1.20381448 2.49361571 -2.45428722 4.68143083 -4 7 C-7.625 8.1875 -7.625 8.1875 -11 9 C-9.625 7 -9.625 7 -8 5 C-7.34 5 -6.68 5 -6 5 C-6 4.34 -6 3.68 -6 3 C-2.53846154 0 -2.53846154 0 0 0 Z " fill="#fcac54" transform="translate(163,57)"/>
<path d="M0 0 C0.66 0.33 1.32 0.66 2 1 C1.34 1.66 0.68 2.32 0 3 C-0.6425235 5.06874034 -0.6425235 5.06874034 -1 7 C-3.66666667 7.66666667 -6.33333333 8.33333333 -9 9 C-9 8.34 -9 7.68 -9 7 C-7.03125 5.2734375 -7.03125 5.2734375 -4.5 3.375 C-3.6646875 2.74335937 -2.829375 2.11171875 -1.96875 1.4609375 C-1.3190625 0.97882812 -0.669375 0.49671875 0 0 Z " fill="#fcac54" transform="translate(182,40)"/>
<path d="M0 0 C5.65020618 0.60108576 10.66164461 2.07528683 16 4 C12.23952955 5.02708885 8.91104938 5.28970736 5 5 C4.34 4.01 3.68 3.02 3 2 C2.01 1.34 1.02 0.68 0 0 Z " fill="#fcac54" transform="translate(161,276)"/>
<path d="M0 0 C4.95 0.99 4.95 0.99 10 2 C10.33 3.32 10.66 4.64 11 6 C9.3501725 5.57781184 7.70516335 5.13675575 6.0625 4.6875 C5.14597656 4.44386719 4.22945312 4.20023437 3.28515625 3.94921875 C2.53105469 3.63597656 1.77695313 3.32273437 1 3 C0.67 2.01 0.34 1.02 0 0 Z " fill="#fcac54" transform="translate(171,254)"/>
<path d="M0 0 C1.32 0.33 2.64 0.66 4 1 C3.67 1.99 3.34 2.98 3 4 C-2.61 4 -8.22 4 -14 4 C-10.57905758 1.71937172 -9.31812778 1.78074993 -5.3125 1.875 C-3.82169922 1.90207031 -3.82169922 1.90207031 -2.30078125 1.9296875 C-1.54152344 1.95289063 -0.78226563 1.97609375 0 2 C0 1.34 0 0.68 0 0 Z " fill="#fcac54" transform="translate(188,149)"/>
<path d="M0 0 C2.12966005 2.12966005 2.47624662 3.04068204 3.1875 5.875 C3.36667969 6.55304687 3.54585937 7.23109375 3.73046875 7.9296875 C4.02970718 10.22818556 3.69377386 11.80550964 3 14 C3 13.01 3 12.02 3 11 C2.01 11.33 1.02 11.66 0 12 C0 8.04 0 4.08 0 0 Z " fill="#fcac54" transform="translate(231,51)"/>
<path d="M0 0 C0.66 0.33 1.32 0.66 2 1 C0.75 3.5 0.75 3.5 -1 6 C-2.32 6 -3.64 6 -5 6 C-5.33 6.99 -5.66 7.98 -6 9 C-7.65 9.33 -9.3 9.66 -11 10 C-7.50640535 6.40365256 -3.88901869 3.16548033 0 0 Z " fill="#fcac54" transform="translate(204,22)"/>
<path d="M0 0 C0.66 0 1.32 0 2 0 C2 2.64 2 5.28 2 8 C1.34 7.34 0.68 6.68 0 6 C-1.32 7.98 -2.64 9.96 -4 12 C-4.33 11.34 -4.66 10.68 -5 10 C-4.00390625 7.6171875 -4.00390625 7.6171875 -2.5625 4.875 C-1.85287109 3.50988281 -1.85287109 3.50988281 -1.12890625 2.1171875 C-0.75636719 1.41851562 -0.38382813 0.71984375 0 0 Z " fill="#fcac54" transform="translate(218,11)"/>
<path d="M0 0 C0.68707031 0.0721875 1.37414063 0.144375 2.08203125 0.21875 C2.98308594 0.3115625 3.88414063 0.404375 4.8125 0.5 C5.70582031 0.5928125 6.59914063 0.685625 7.51953125 0.78125 C10.08305099 1.04392401 10.08305099 1.04392401 13 1 C12.01 2.485 12.01 2.485 11 4 C11.33 4.66 11.66 5.32 12 6 C10.55903414 5.57405412 9.12231288 5.13373367 7.6875 4.6875 C6.88699219 4.44386719 6.08648437 4.20023438 5.26171875 3.94921875 C2.90035427 2.95817977 1.66120007 1.91925057 0 0 Z " fill="#fcac54" transform="translate(48,194)"/>
<path d="M0 0 C1 2 1 2 0.0625 5.125 C-0.288125 6.07375 -0.63875 7.0225 -1 8 C-1.66 8 -2.32 8 -3 8 C-3 8.99 -3 9.98 -3 11 C-3.66 11 -4.32 11 -5 11 C-5.33 11.66 -5.66 12.32 -6 13 C-5.3578757 10.02348631 -4.38279178 7.52216183 -3 4.8125 C-2.4740625 3.77029297 -2.4740625 3.77029297 -1.9375 2.70703125 C-1 1 -1 1 0 0 Z " fill="#fcac54" transform="translate(184,83)"/>
<path d="M0 0 C0.66 0.33 1.32 0.66 2 1 C0.9375 3.9375 0.9375 3.9375 -1 7 C-4.6875 7.875 -4.6875 7.875 -8 8 C-3.375 3.125 -3.375 3.125 0 2 C0 1.34 0 0.68 0 0 Z " fill="#fcac54" transform="translate(216,12)"/>
<path d="M0 0 C1.45823212 -0.0270043 2.91660675 -0.04639787 4.375 -0.0625 C5.18710938 -0.07410156 5.99921875 -0.08570313 6.8359375 -0.09765625 C9 0 9 0 11 1 C11 1.66 11 2.32 11 3 C11.99 3 12.98 3 14 3 C14 3.66 14 4.32 14 5 C12.41531323 4.54636829 10.83230076 4.08688548 9.25 3.625 C8.36828125 3.36976563 7.4865625 3.11453125 6.578125 2.8515625 C4.23919428 2.0790066 2.16557438 1.16374324 0 0 Z " fill="#fcac54" transform="translate(70,247)"/>
<path d="M0 0 C8.57142857 -0.28571429 8.57142857 -0.28571429 12 2 C11.01 2 10.02 2 9 2 C9 2.66 9 3.32 9 4 C2.25 2.25 2.25 2.25 0 0 Z " fill="#fcac54" transform="translate(120,227)"/>
<path d="M0 0 C2.475 0.99 2.475 0.99 5 2 C5 3.32 5 4.64 5 6 C5.66 6 6.32 6 7 6 C7.33 7.32 7.66 8.64 8 10 C7.01 10 6.02 10 5 10 C2 4.25 2 4.25 2 2 C1.34 2 0.68 2 0 2 C0 1.34 0 0.68 0 0 Z " fill="#fcac54" transform="translate(114,155)"/>
<path d="M0 0 C-0.99 1.485 -0.99 1.485 -2 3 C-2.99 3 -3.98 3 -5 3 C-5 2.01 -5 1.02 -5 0 C-7.97 -0.33 -10.94 -0.66 -14 -1 C-14 -1.33 -14 -1.66 -14 -2 C-8.0819503 -3.32854177 -5.22270869 -2.66464729 0 0 Z " fill="#fcac54" transform="translate(172,153)"/>
<path d="M0 0 C3 2 3 2 4 5 C4.06802967 6.72795352 4.08495645 8.45835365 4.0625 10.1875 C4.05347656 11.08855469 4.04445312 11.98960937 4.03515625 12.91796875 C4.02355469 13.60503906 4.01195312 14.29210937 4 15 C3.67 15 3.34 15 3 15 C3 12.36 3 9.72 3 7 C2.34 7 1.68 7 1 7 C0.67 4.69 0.34 2.38 0 0 Z " fill="#fcac54" transform="translate(236,166)"/>
<path d="M0 0 C2.3297964 3.64030688 2.3862557 6.75118727 2 11 C0.48046875 12.71484375 0.48046875 12.71484375 -1 14 C-1.02694851 12.04174127 -1.04637218 10.08337774 -1.0625 8.125 C-1.07410156 7.03445312 -1.08570313 5.94390625 -1.09765625 4.8203125 C-1 2 -1 2 0 0 Z " fill="#fcac54" transform="translate(260,155)"/>
<path d="M0 0 C0.33 0 0.66 0 1 0 C1.05389087 1.95803507 1.09274217 3.91648909 1.125 5.875 C1.14820313 6.96554688 1.17140625 8.05609375 1.1953125 9.1796875 C1 12 1 12 -1 14 C-1.33 11.03 -1.66 8.06 -2 5 C-1.67 5 -1.34 5 -1 5 C-0.67 3.35 -0.34 1.7 0 0 Z " fill="#fcac54" transform="translate(210,149)"/>
<path d="M0 0 C1.32 0.33 2.64 0.66 4 1 C4 1.66 4 2.32 4 3 C4.66 3 5.32 3 6 3 C4.75023244 6.65316671 4.32901247 7.78065836 1 10 C1.33 7.36 1.66 4.72 2 2 C1.34 2 0.68 2 0 2 C0 1.34 0 0.68 0 0 Z " fill="#fcac54" transform="translate(61,200)"/>
<path d="M0 0 C0 0.66 0 1.32 0 2 C-0.66 2 -1.32 2 -2 2 C-2 2.66 -2 3.32 -2 4 C-5.46153846 7 -5.46153846 7 -8 7 C-8 5.68 -8 4.36 -8 3 C-2 0 -2 0 0 0 Z " fill="#fcac54" transform="translate(82,121)"/>
<path d="M0 0 C0.33 0.66 0.66 1.32 1 2 C1.66 2.33 2.32 2.66 3 3 C0.69 4.65 -1.62 6.3 -4 8 C-3.67 6.35 -3.34 4.7 -3 3 C-2.34 3 -1.68 3 -1 3 C-0.67 2.01 -0.34 1.02 0 0 Z " fill="#fcac54" transform="translate(205,17)"/>
<path d="M0 0 C0.57234375 0.23589844 1.1446875 0.47179687 1.734375 0.71484375 C0.6515625 1.33359375 0.6515625 1.33359375 -0.453125 1.96484375 C-3.24532362 3.70221178 -5.73575085 5.61866232 -8.265625 7.71484375 C-8.925625 7.38484375 -9.585625 7.05484375 -10.265625 6.71484375 C-9.03009224 5.51229851 -7.77660161 4.32818143 -6.515625 3.15234375 C-5.81953125 2.49105469 -5.1234375 1.82976562 -4.40625 1.1484375 C-2.265625 -0.28515625 -2.265625 -0.28515625 0 0 Z " fill="#fcac54" transform="translate(221.265625,153.28515625)"/>
<path d="M0 0 C0.66 0.66 1.32 1.32 2 2 C3.32 2.66 4.64 3.32 6 4 C1.545 4.495 1.545 4.495 -3 5 C-2.67 3.68 -2.34 2.36 -2 1 C-1.34 0.67 -0.68 0.34 0 0 Z " fill="#fcac54" transform="translate(171,148)"/>
<path d="M0 0 C0 3 0 3 -1 5 C-3.32156597 5.40729228 -5.6568787 5.74438677 -8 6 C-5.79072873 2.51167694 -3.91402949 1.26941497 0 0 Z " fill="#fcac54" transform="translate(111,100)"/>
<path d="M0 0 C0.66 0.33 1.32 0.66 2 1 C-1.32307692 5.8 -1.32307692 5.8 -4.75 6.8125 C-5.4925 6.874375 -6.235 6.93625 -7 7 C-5.625 5 -5.625 5 -4 3 C-3.34 3 -2.68 3 -2 3 C-2 2.34 -2 1.68 -2 1 C-1.34 0.67 -0.68 0.34 0 0 Z " fill="#fcac54" transform="translate(170,50)"/>
<path d="M0 0 C1.8871875 0.0309375 1.8871875 0.0309375 3.8125 0.0625 C3.4825 0.7225 3.1525 1.3825 2.8125 2.0625 C2.090625 2.041875 1.36875 2.02125 0.625 2 C-2.10675138 2.06070559 -4.53006091 2.45508535 -7.1875 3.0625 C-7.1875 2.4025 -7.1875 1.7425 -7.1875 1.0625 C-4.43671116 0.14557039 -2.82801087 -0.04636083 0 0 Z " fill="#fcac54" transform="translate(157.1875,267.9375)"/>
<path d="M0 0 C2.97 0.99 5.94 1.98 9 3 C6.04335481 4.4783226 3.25770263 4.06032783 0 4 C0 2.68 0 1.36 0 0 Z " fill="#fcac54" transform="translate(135,235)"/>
<path d="M0 0 C0.66 0 1.32 0 2 0 C1.67 1.32 1.34 2.64 1 4 C2.65 4 4.3 4 6 4 C5.01 5.485 5.01 5.485 4 7 C2.68 7 1.36 7 0 7 C0 4.69 0 2.38 0 0 Z " fill="#fcac54" transform="translate(97,146)"/>
<path d="M0 0 C0.99 0.33 1.98 0.66 3 1 C1.54744301 4.82946843 -0.42895561 6.12050295 -4 8 C-4 5 -4 5 -2.5625 3.4375 C-2.046875 2.963125 -1.53125 2.48875 -1 2 C-0.67 1.34 -0.34 0.68 0 0 Z " fill="#fcac54" transform="translate(125,82)"/>
<path d="M0 0 C0.65234375 1.734375 0.65234375 1.734375 1 4 C0.00390625 6.140625 0.00390625 6.140625 -1.4375 8.25 C-1.91058594 8.95640625 -2.38367188 9.6628125 -2.87109375 10.390625 C-3.24363281 10.92171875 -3.61617187 11.4528125 -4 12 C-5 9 -5 9 -4.00390625 6.73828125 C-3.52824219 5.93777344 -3.05257812 5.13726562 -2.5625 4.3125 C-2.08941406 3.50425781 -1.61632812 2.69601563 -1.12890625 1.86328125 C-0.75636719 1.24839844 -0.38382813 0.63351563 0 0 Z " fill="#fcac54" transform="translate(206,36)"/>
<path d="M0 0 C0.33 0 0.66 0 1 0 C1.3125 2.75 1.3125 2.75 1 6 C-1.5 8.375 -1.5 8.375 -4 10 C-3.52449439 8.51965236 -3.04448784 7.04074979 -2.5625 5.5625 C-2.29566406 4.73878906 -2.02882812 3.91507813 -1.75390625 3.06640625 C-1 1 -1 1 0 0 Z " fill="#fcac54" transform="translate(159,132)"/>
<path d="M0 0 C0 0.66 0 1.32 0 2 C0.99 2 1.98 2 3 2 C3 2.66 3 3.32 3 4 C-0.34373475 3.44271087 -3.03312999 2.64826111 -6 1 C-4 0 -4 0 0 0 Z " fill="#fcac54" transform="translate(190,281)"/>
<path d="M0 0 C2.475 0.495 2.475 0.495 5 1 C5 1.66 5 2.32 5 3 C6.65 3.33 8.3 3.66 10 4 C9.34 4.66 8.68 5.32 8 6 C7.01 6 6.02 6 5 6 C4.67 4.68 4.34 3.36 4 2 C2.68 1.67 1.36 1.34 0 1 C0 0.67 0 0.34 0 0 Z " fill="#fcac54" transform="translate(34,188)"/>
<path d="M0 0 C0.66 0.33 1.32 0.66 2 1 C2 1.99 2 2.98 2 4 C2.99 4.33 3.98 4.66 5 5 C1.65626525 4.44271087 -1.03312999 3.64826111 -4 2 C-2.125 0.9375 -2.125 0.9375 0 0 Z " fill="#fcac54" transform="translate(184,254)"/>
<path d="M0 0 C3.465 1.485 3.465 1.485 7 3 C6.67 3.66 6.34 4.32 6 5 C4.68 5 3.36 5 2 5 C1.67 5.66 1.34 6.32 1 7 C1.33 5.35 1.66 3.7 2 2 C1.34 2 0.68 2 0 2 C0 1.34 0 0.68 0 0 Z " fill="#fcac54" transform="translate(67,203)"/>
<path d="M0 0 C2.97 0 5.94 0 9 0 C9.33 0.99 9.66 1.98 10 3 C6.66666667 2.33333333 3.33333333 1.66666667 0 1 C0 0.67 0 0.34 0 0 Z " fill="#fcac54" transform="translate(58,244)"/>
<path d="M0 0 C-0.33 0.99 -0.66 1.98 -1 3 C-2.98 3.33 -4.96 3.66 -7 4 C-3.375 0 -3.375 0 0 0 Z " fill="#fcac54" transform="translate(195,197)"/>
<path d="M0 0 C2.97 0.33 5.94 0.66 9 1 C7.515 2.485 7.515 2.485 6 4 C1.125 2.25 1.125 2.25 0 0 Z " fill="#fcac54" transform="translate(125,187)"/>
<path d="M0 0 C2.64 0 5.28 0 8 0 C8.33 1.65 8.66 3.3 9 5 C8.67 4.34 8.34 3.68 8 3 C6.11235097 2.31527335 6.11235097 2.31527335 3.9375 1.875 C3.20402344 1.70742187 2.47054687 1.53984375 1.71484375 1.3671875 C1.14894531 1.24601563 0.58304687 1.12484375 0 1 C0 0.67 0 0.34 0 0 Z " fill="#fcac54" transform="translate(102,163)"/>
<path d="M0 0 C1.32 0 2.64 0 4 0 C4 0.66 4 1.32 4 2 C1.5 3.625 1.5 3.625 -1 5 C-1 1 -1 1 0 0 Z " fill="#fcac54" transform="translate(200,18)"/>
</svg>