<svg version="1.1" xmlns="http://www.w3.org/2000/svg" width="300px" height="300px" transform="rotate(0) scale(1, 1)">
<path d="M0 0 C99 0 198 0 300 0 C300 99 300 198 300 300 C201 300 102 300 0 300 C0 201 0 102 0 0 Z " fill="#ffc42e" transform="translate(0,0)"/>
<path d="M0 0 C99 0 198 0 300 0 C300 49.5 300 99 300 150 C262.05 150 224.1 150 185 150 C185 118.98 185 87.96 185 56 C171.8 56 158.6 56 145 56 C145 87.02 145 118.04 145 150 C97.15 150 49.3 150 0 150 C0 100.5 0 51 0 0 Z " fill="#ff2e69" transform="translate(0,0)"/>
<path d="M0 0 C13.2 0 26.4 0 40 0 C40.1358491 18.75971616 40.24620303 37.51902927 40.31087303 56.27911377 C40.34170894 64.99126901 40.38369083 73.70309516 40.45263672 82.41503906 C40.51275562 90.01528602 40.5512236 97.61529447 40.56453097 105.21577263 C40.57230035 109.23405392 40.59034011 113.25165334 40.63438034 117.26971436 C40.86142889 138.82592479 40.87827088 156.81102157 24.90625 173.140625 C11.47171911 185.91289028 -4.6499207 188.18767883 -22.4375 188.0625 C-28.6559375 188.0315625 -28.6559375 188.0315625 -35 188 C-35 176.45 -35 164.9 -35 153 C-24.5 152.8125 -24.5 152.8125 -21.24023438 152.79223633 C-14.65338613 152.58016898 -9.87160189 151.60629266 -5 147 C-0.27958822 139.99565625 -0.42145075 132.47594792 -0.45410156 124.31030273 C-0.44535168 122.94937466 -0.434861 121.58845686 -0.42277527 120.22755432 C-0.39506718 116.55869988 -0.39150718 112.89018364 -0.39249516 109.22123981 C-0.38935288 105.3774843 -0.36370749 101.5338782 -0.34051514 97.69020081 C-0.30005181 90.42314595 -0.27963727 83.15618061 -0.26654124 75.88903052 C-0.25063831 67.61078565 -0.21220894 59.3326924 -0.17194796 51.05453575 C-0.08968133 34.03637912 -0.03847972 17.01832053 0 0 Z " fill="#ffa12e" transform="translate(145,56)"/>
<path d="M0 0 C0.33 0 0.66 0 1 0 C1 9.57 1 19.14 1 29 C-8.57 29 -18.14 29 -28 29 C-25.91945369 27.95972684 -23.83321935 26.92682073 -21.703125 25.9921875 C-11.36455201 21.28385649 -5.18493522 14.56112407 -1 4 C-0.63704461 2.6744238 -0.29259593 1.34286132 0 0 Z " fill="#ffffff" transform="translate(299,271)"/>
<path d="M0 0 C1.04027316 2.08054631 2.07317927 4.16678065 3.0078125 6.296875 C7.8269153 16.87868114 14.48310622 22.38544457 25 27 C26.32 27.66 27.64 28.32 29 29 C19.43 29 9.86 29 0 29 C0 19.43 0 9.86 0 0 Z " fill="#ffffff" transform="translate(0,271)"/>
<path d="M0 0 C9.57 0 19.14 0 29 0 C29 9.57 29 19.14 29 29 C27.95972684 26.91945369 26.92682073 24.83321935 25.9921875 22.703125 C21.1730847 12.12131886 14.51689378 6.61455543 4 2 C2.68 1.34 1.36 0.68 0 0 Z " fill="#ffffff" transform="translate(271,0)"/>
<path d="M0 0 C9.57 0 19.14 0 29 0 C26.91945369 1.04027316 24.83321935 2.07317927 22.703125 3.0078125 C12.12131886 7.8269153 6.61455543 14.48310622 2 25 C1.34 26.32 0.68 27.64 0 29 C0 19.43 0 9.86 0 0 Z " fill="#ffffff" transform="translate(0,0)"/>
</svg>