<svg width="765" height="286" viewBox="0 0 765 286" fill="none" xmlns="http://www.w3.org/2000/svg">
<path d="M41.76 119H63.84V182.52C63.84 195.853 62.7733 204.387 60.64 208.12C58.5067 211.853 53.92 216.92 46.88 223.32C39.9467 229.72 34.5067 232.92 30.56 232.92C26.72 232.92 21.7067 230.627 15.52 226.04C9.33333 221.453 4.69333 216.067 1.6 209.88L19.36 197.4C19.4667 197.507 19.8933 198.147 20.64 199.32C21.4933 200.387 22.24 201.347 22.88 202.2C23.52 202.947 24.32 203.8 25.28 204.76C27.3067 207 29.0133 208.12 30.4 208.12C31.8933 208.12 33.5467 207.267 35.36 205.56C37.1733 203.747 38.6667 201.88 39.84 199.96C41.12 198.04 41.76 192.227 41.76 182.52V119ZM102.595 212.12C104.302 213.72 105.635 214.52 106.595 214.52C107.555 214.52 108.835 213.72 110.435 212.12C112.142 210.52 113.368 209.08 114.115 207.8C115.502 205.453 116.195 198.84 116.195 187.96C116.195 177.08 115.502 170.413 114.115 167.96C113.368 166.68 112.142 165.24 110.435 163.64C108.835 162.04 107.555 161.24 106.595 161.24C105.635 161.24 104.302 162.04 102.595 163.64C100.995 165.24 99.8217 166.68 99.075 167.96C97.6883 170.307 96.995 176.92 96.995 187.8C96.995 198.68 97.6883 205.347 99.075 207.8C99.8217 209.08 100.995 210.52 102.595 212.12ZM120.995 225.08C114.488 230.307 109.688 232.92 106.595 232.92C103.502 232.92 98.6483 230.307 92.035 225.08C85.5283 219.853 81.5283 215.96 80.035 213.4C77.795 209.453 76.675 200.92 76.675 187.8C76.675 174.68 77.795 166.2 80.035 162.36C81.5283 159.8 85.5283 155.907 92.035 150.68C98.6483 145.453 103.502 142.84 106.595 142.84C109.688 142.84 114.488 145.453 120.995 150.68C127.608 155.907 131.662 159.8 133.155 162.36C135.395 166.2 136.515 174.68 136.515 187.8C136.515 200.92 135.395 209.453 133.155 213.4C131.662 215.96 127.608 219.853 120.995 225.08ZM151.65 231V143.64C151.65 138.2 151.01 134.04 149.73 131.16C148.45 128.28 146.423 125.667 143.65 123.32L161.25 111C168.93 117.08 172.77 125.667 172.77 136.76V151.32C179.17 145.667 183.757 142.84 186.53 142.84C189.41 142.84 193.73 145.72 199.49 151.48C205.357 157.133 208.717 161.293 209.57 163.96C210.743 166.627 211.33 174.627 211.33 187.96C211.33 201.187 210.743 209.133 209.57 211.8C208.717 214.467 205.357 218.68 199.49 224.44C193.73 230.093 189.57 232.92 187.01 232.92C183.277 232.92 177.303 229.027 169.09 221.24L167.33 231H151.65ZM173.57 206.68C174.317 207.96 175.81 209.347 178.05 210.84C180.397 212.227 182.157 212.92 183.33 212.92C184.503 212.92 185.73 212.227 187.01 210.84C188.397 209.453 189.41 208.013 190.05 206.52C190.69 205.027 191.01 198.84 191.01 187.96C191.01 176.973 190.69 170.787 190.05 169.4C189.41 167.907 188.397 166.467 187.01 165.08C185.73 163.587 184.503 162.84 183.33 162.84C182.263 162.84 180.557 163.587 178.21 165.08C175.97 166.467 174.477 167.693 173.73 168.76C172.877 170.573 172.45 177.027 172.45 188.12C172.45 199.107 172.823 205.293 173.57 206.68Z" fill="#FF7A00"/>
<path d="M284.574 185.88C285.747 187.8 286.334 191.64 286.334 197.4C286.334 203.053 285.16 207.853 282.814 211.8C280.68 214.893 276.147 219.213 269.214 224.76C262.28 230.2 257.16 232.92 253.854 232.92C247.987 232.92 241.267 229.88 233.694 223.8C226.12 217.613 221.32 210.84 219.294 203.48L237.054 191.32C238.76 196.333 241.48 200.92 245.214 205.08C248.947 209.24 251.56 211.32 253.054 211.32C254.654 211.32 256.307 210.84 258.014 209.88C259.827 208.813 261.214 207.747 262.174 206.68C263.56 204.973 264.254 202.307 264.254 198.68C264.254 195.053 263.4 192.813 261.694 191.96C259.56 190.147 255.4 187.747 249.214 184.76C243.134 181.773 237.48 178.573 232.254 175.16C227.027 171.64 223.667 168.227 222.174 164.92C220.787 161.613 220.094 157.347 220.094 152.12C220.094 146.787 221.267 142.147 223.614 138.2C225.747 135.107 230.28 130.84 237.214 125.4C244.147 119.853 249.267 117.08 252.574 117.08C258.44 117.08 265.16 120.173 272.734 126.36C280.307 132.44 285.107 139.16 287.134 146.52L269.374 158.84C267.667 153.827 264.947 149.24 261.214 145.08C257.48 140.813 254.814 138.68 253.214 138.68C251.72 138.68 250.067 139.16 248.254 140.12C246.44 141.08 244.947 142.307 243.774 143.8C242.707 145.187 242.174 147.64 242.174 151.16C242.174 154.573 243.24 156.867 245.374 158.04C247.08 159.533 250.974 161.88 257.054 165.08C272.627 173.613 281.8 180.547 284.574 185.88ZM319.433 142.84C323.273 142.84 329.193 146.733 337.193 154.52L339.113 144.76H354.793V271H333.673V224.6C327.166 230.147 322.526 232.92 319.753 232.92C316.979 232.92 312.659 230.093 306.793 224.44C301.033 218.68 297.726 214.467 296.873 211.8C295.699 209.133 295.113 201.187 295.113 187.96C295.113 174.627 295.699 166.627 296.873 163.96C297.726 161.293 301.033 157.133 306.793 151.48C312.659 145.72 316.873 142.84 319.433 142.84ZM332.873 169.24C332.126 167.853 330.579 166.467 328.233 165.08C325.993 163.587 324.286 162.84 323.113 162.84C321.939 162.84 320.659 163.533 319.273 164.92C317.993 166.307 317.033 167.747 316.393 169.24C315.753 170.733 315.433 176.973 315.433 187.96C315.433 198.84 315.753 205.027 316.393 206.52C317.033 207.907 317.993 209.347 319.273 210.84C320.659 212.227 321.886 212.92 322.953 212.92C324.126 212.92 325.833 212.227 328.073 210.84C330.419 209.347 331.966 208.067 332.713 207C333.566 205.187 333.993 198.787 333.993 187.8C333.993 176.707 333.619 170.52 332.873 169.24ZM366.869 144.76H387.989V204.28C387.989 206.093 388.842 208.013 390.549 210.04C392.255 211.96 393.855 212.92 395.349 212.92C396.842 212.92 399.935 210.733 404.629 206.36V144.76H425.749V231H409.429L407.509 221.56C399.509 229.133 393.909 232.92 390.709 232.92C387.509 232.92 382.709 229.987 376.309 224.12C370.015 218.147 366.869 212.28 366.869 206.52V144.76ZM440.931 144.76H462.051V200.12C462.051 205.56 462.691 209.773 463.971 212.76C465.251 215.747 467.278 218.36 470.051 220.6L452.451 232.92C444.771 226.84 440.931 218.2 440.931 207V144.76ZM451.811 111.32C452.985 111.32 455.598 113.08 459.651 116.6C463.705 120.013 465.731 122.36 465.731 123.64C465.731 124.813 463.651 127.16 459.491 130.68C455.438 134.2 452.825 135.96 451.651 135.96C450.585 135.96 448.025 134.253 443.971 130.84C439.918 127.32 437.891 124.973 437.891 123.8C437.891 122.52 439.918 120.12 443.971 116.6C448.131 113.08 450.745 111.32 451.811 111.32ZM501.52 231H480.4V175.8C480.4 170.36 479.707 166.147 478.32 163.16C477.04 160.067 475.067 157.4 472.4 155.16L490 142.84C493.84 146.04 496.773 149.773 498.8 154.04C506.693 146.573 512.24 142.84 515.44 142.84C517.573 142.84 520.827 144.813 525.2 148.76C529.573 152.707 532.133 157.027 532.88 161.72L515.76 174.04C515.653 171.48 515.013 168.973 513.84 166.52C512.773 164.067 511.813 162.84 510.96 162.84C509.147 162.84 506 165.08 501.52 169.56V231ZM595.89 187.64V193.4H557.17C557.17 199.8 557.97 204.867 559.57 208.6C560.103 209.88 561.063 211.213 562.45 212.6C563.837 213.88 565.277 214.52 566.77 214.52C568.263 214.52 570.13 213.24 572.37 210.68C574.61 208.12 576.37 205.027 577.65 201.4L594.13 213.08C591.25 218.413 586.823 223.053 580.85 227C574.983 230.947 570.237 232.92 566.61 232.92C562.983 232.92 557.703 230.093 550.77 224.44C543.943 218.787 539.783 214.413 538.29 211.32C536.797 208.12 536.05 200.333 536.05 187.96C536.05 175.48 536.797 167.693 538.29 164.6C539.783 161.4 543.943 156.973 550.77 151.32C557.703 145.667 562.77 142.84 565.97 142.84C569.17 142.84 574.183 145.667 581.01 151.32C587.943 156.973 592.157 161.4 593.65 164.6C595.143 167.693 595.89 175.373 595.89 187.64ZM573.65 167.64C572.903 166.147 571.677 164.707 569.97 163.32C568.37 161.933 566.823 161.24 565.33 161.24C563.943 161.24 562.343 162.68 560.53 165.56C558.717 168.333 557.597 172.547 557.17 178.2H575.41C575.09 172.547 574.503 169.027 573.65 167.64Z" fill="#C75A1A"/>
<path d="M730.907 33.3308C709.414 11.8378 680.836 0 650.442 0C632.013 0 613.708 4.50676 597.504 13.0398C581.824 21.2949 568.086 33.2929 557.771 47.7471L554 53.0226L586.609 80.8374L590.541 75.5289C590.636 75.4017 590.734 75.2695 590.834 75.1422C592.243 73.2563 593.756 71.4462 595.355 69.7115C598.839 65.9212 602.742 62.4986 607.014 59.4956C622.774 48.4261 641.9 44.1548 660.871 47.4741C679.842 50.7929 696.384 61.2967 707.453 77.057C716.609 90.0877 721.12 105.372 720.503 121.25C720.131 130.857 717.802 140.333 713.766 149.008C712.639 151.436 711.38 153.798 709.985 156.08C709.038 157.65 708.024 159.182 706.949 160.671L707.619 163.151H753.113L754.956 158.885C761.113 144.619 764.234 129.448 764.234 113.796C764.233 83.3973 752.4 54.8237 730.907 33.3308Z" fill="#FF7A00"/>
<path d="M634.032 115.865C634.451 115.663 634.88 115.465 635.314 115.281C629.661 102.448 617.644 93.2739 599.475 87.9325L598.117 89.8279L579.764 115.455C604.774 111.868 622.66 115.738 630.354 118.029C631.514 117.214 632.744 116.493 634.032 115.865Z" fill="#FF7A00"/>
<path d="M695.809 151.93C697.185 149.983 698.425 147.965 699.533 145.891C709.664 126.911 708.552 103.226 695.88 85.1844C686.979 72.5169 673.684 64.0732 658.433 61.405C643.187 58.7412 627.814 62.1733 615.146 71.0695C613.26 72.3942 611.464 73.8181 609.767 75.3358C609.479 75.5952 609.191 75.8542 608.909 76.1186C619.464 79.8475 628.242 84.8966 635.092 91.2044C640.467 96.1592 644.686 101.887 647.703 108.322C648.486 110.001 649.193 111.726 649.811 113.494C651.744 113.786 653.611 114.291 655.388 114.979C657.288 115.71 659.079 116.652 660.743 117.779C660.762 117.789 660.781 117.803 660.795 117.817L662.12 118.774C667.145 122.654 670.761 128.269 672.067 134.718C672.416 136.443 672.6 138.226 672.6 140.055C672.6 141.275 672.52 142.478 672.355 143.656C670.677 156.164 660.362 165.969 647.628 166.856C644.111 177.373 640.179 184.553 639.812 185.213L631.561 200.29H702.975L691.443 157.498L691.297 156.951L693.984 154.377C694.616 153.576 695.224 152.76 695.809 151.93Z" fill="#C75A1A"/>
<path d="M623.825 214.434L614.759 231H711.253L706.788 214.434H623.825Z" fill="#FF7A00"/>
<path d="M645.733 152.784C652.748 152.784 658.457 147.074 658.457 140.055C658.457 135.958 656.51 132.304 653.492 129.98L652.842 129.504C652.828 129.494 652.818 129.49 652.809 129.485C650.786 128.122 648.349 127.326 645.733 127.326C645.181 127.326 644.644 127.359 644.111 127.434C637.855 128.226 633.004 133.586 633.004 140.054C633.004 146.084 637.214 151.142 642.848 152.448C643.771 152.671 644.738 152.784 645.733 152.784Z" fill="#FF7A00"/>
</svg>
