<svg width="951" height="149" viewBox="0 0 951 149" fill="none" xmlns="http://www.w3.org/2000/svg">
<path d="M49.36 131.6C38.0533 131.6 29.4133 128.56 23.44 122.48C17.5733 116.293 14.64 107.013 14.64 94.64V84.88H29.04V96.56C29.04 111.92 35.8133 119.6 49.36 119.6C56.4 119.6 61.84 117.2 65.68 112.4C69.52 107.6 71.44 99.92 71.44 89.36V18H86.48V92.56C86.48 105.467 83.12 115.227 76.4 121.84C69.7867 128.347 60.7733 131.6 49.36 131.6ZM160.488 131.6C151.848 131.6 144.221 130.107 137.608 127.12C130.994 124.133 125.448 119.973 120.968 114.64C116.488 109.307 113.074 103.173 110.728 96.24C108.488 89.3067 107.368 81.8933 107.368 74C107.368 66.1067 108.488 58.6933 110.728 51.76C113.074 44.8267 116.488 38.6933 120.968 33.36C125.448 28.0267 130.994 23.8667 137.608 20.88C144.221 17.8933 151.848 16.4 160.488 16.4C169.128 16.4 176.754 17.8933 183.368 20.88C189.981 23.8667 195.528 28.0267 200.008 33.36C204.488 38.6933 207.848 44.8267 210.088 51.76C212.434 58.6933 213.608 66.1067 213.608 74C213.608 81.8933 212.434 89.3067 210.088 96.24C207.848 103.173 204.488 109.307 200.008 114.64C195.528 119.973 189.981 124.133 183.368 127.12C176.754 130.107 169.128 131.6 160.488 131.6ZM160.488 119.6C168.701 119.6 175.581 117.68 181.128 113.84C186.781 109.893 190.994 104.507 193.767 97.68C196.648 90.7467 198.088 82.8533 198.088 74C198.088 65.04 196.648 57.1467 193.767 50.32C190.994 43.4933 186.781 38.16 181.128 34.32C175.581 30.3733 168.701 28.4 160.488 28.4C152.274 28.4 145.341 30.3733 139.688 34.32C134.141 38.16 129.928 43.4933 127.048 50.32C124.274 57.1467 122.888 65.04 122.888 74C122.888 82.8533 124.274 90.7467 127.048 97.68C129.928 104.507 134.141 109.893 139.688 113.84C145.341 117.68 152.274 119.6 160.488 119.6ZM235.65 130V18H278.53C289.517 18 298.157 20.6133 304.45 25.84C310.743 30.96 313.89 38 313.89 46.96C313.89 53.5733 312.077 59.1733 308.45 63.76C304.93 68.3467 299.49 71.7067 292.13 73.84C299.383 75.8667 304.823 79.12 308.45 83.6C312.077 87.9733 313.89 93.36 313.89 99.76C313.89 108.933 310.85 116.293 304.77 121.84C298.797 127.28 290.583 130 280.13 130H235.65ZM276.13 29.52H250.69V68.24H276.13C290.957 68.24 298.37 61.7867 298.37 48.88C298.37 35.9733 290.957 29.52 276.13 29.52ZM276.13 79.76H250.69V118.48H276.13C290.957 118.48 298.37 111.813 298.37 98.48C298.37 86 290.957 79.76 276.13 79.76ZM369.841 131.6C357.895 131.6 348.508 128.72 341.681 122.96C334.961 117.093 331.335 108.507 330.801 97.2H345.681C346.001 104.453 348.188 110.107 352.241 114.16C356.401 118.107 362.375 120.08 370.161 120.08C377.308 120.08 382.961 118.213 387.121 114.48C391.281 110.747 393.361 105.787 393.361 99.6C393.361 95.2267 392.135 91.7067 389.681 89.04C387.335 86.3733 383.548 84.2933 378.321 82.8L357.841 76.88C348.988 74.32 342.588 70.5333 338.641 65.52C334.801 60.4 332.881 54.4267 332.881 47.6C332.881 41.7333 334.375 36.4533 337.361 31.76C340.455 27.0667 344.828 23.3333 350.481 20.56C356.241 17.7867 363.068 16.4 370.961 16.4C382.055 16.4 390.641 19.0667 396.721 24.4C402.908 29.7333 406.321 36.9867 406.961 46.16H392.561C391.601 40.6133 389.308 36.1867 385.681 32.88C382.161 29.5733 376.935 27.92 370.001 27.92C362.748 27.92 357.201 29.7333 353.361 33.36C349.521 36.88 347.601 41.2533 347.601 46.48C347.601 50.4267 348.881 53.8933 351.441 56.88C354.108 59.8667 358.481 62.2133 364.561 63.92L381.041 68.4C390.855 71.0667 397.948 74.8 402.321 79.6C406.695 84.4 408.881 90.5867 408.881 98.16C408.881 108.187 405.415 116.293 398.481 122.48C391.548 128.56 382.001 131.6 369.841 131.6ZM477.363 119.6C489.096 119.6 498.269 115.547 504.883 107.44C511.603 99.3333 514.963 88.1867 514.963 74C514.963 59.8133 511.603 48.6667 504.883 40.56C498.269 32.4533 489.096 28.4 477.363 28.4C465.736 28.4 456.563 32.4533 449.843 40.56C443.123 48.6667 439.763 59.8133 439.763 74C439.763 88.1867 443.123 99.3333 449.843 107.44C456.563 115.547 465.736 119.6 477.363 119.6ZM477.363 131.6C466.803 131.6 457.523 129.2 449.523 124.4C441.523 119.6 435.283 112.88 430.803 104.24C426.429 95.6 424.243 85.52 424.243 74C424.243 62.48 426.429 52.4 430.803 43.76C435.283 35.12 441.523 28.4 449.523 23.6C457.523 18.8 466.803 16.4 477.363 16.4C488.029 16.4 497.309 18.8 505.203 23.6C513.203 28.4 519.389 35.12 523.763 43.76C528.243 52.4 530.483 62.48 530.483 74C530.483 83.6 528.776 92.2933 525.363 100.08C521.949 107.76 517.149 114.267 510.963 119.6C513.523 119.387 516.243 119.227 519.123 119.12C522.003 118.907 525.256 118.8 528.883 118.8H536.563V130H527.283C518.856 130 511.976 130.053 506.643 130.16C501.309 130.373 496.936 130.587 493.523 130.8C490.109 131.013 487.176 131.173 484.723 131.28C482.376 131.493 479.923 131.6 477.363 131.6ZM716.275 130V18H731.315V130H716.275ZM760.181 130V18H799.861C812.235 18 821.675 20.56 828.181 25.68C834.795 30.6933 838.101 38 838.101 47.6C838.101 55.0667 835.968 61.3067 831.701 66.32C827.435 71.3333 821.515 74.7467 813.941 76.56C818.315 78.8 822.101 81.9467 825.301 86C828.501 89.9467 831.115 95.12 833.141 101.52C835.168 107.813 836.661 115.76 837.621 125.36L838.101 130H822.901L822.421 125.36C821.248 113.627 819.275 104.507 816.501 98C813.835 91.3867 810.101 86.7467 805.301 84.08C800.501 81.4133 794.261 80.08 786.581 80.08H775.221V130H760.181ZM775.221 69.2H799.541C815.008 69.2 822.741 62.3733 822.741 48.72C822.741 41.8933 820.821 36.9867 816.981 34C813.141 31.0133 806.848 29.52 798.101 29.52H775.221V69.2ZM861.275 130V18H930.075V29.52H876.315V67.44H930.075V78.96H876.315V118.48H930.075V130H861.275Z" fill="#3F8EFC"/>
<ellipse cx="626" cy="72" rx="58" ry="62" fill="#ADD7F6"/>
<path d="M621.201 137.313C622.723 138.196 623.484 138.638 624.558 138.867C625.392 139.044 626.608 139.044 627.442 138.867C628.516 138.638 629.277 138.196 630.799 137.313C644.191 129.54 681 105.124 681 71.5536V34.6215C681 30.8056 681 28.8977 680.262 27.4435C679.607 26.1543 678.585 25.1252 677.296 24.4589C675.844 23.7072 673.893 23.6843 669.992 23.6384C649.562 23.3981 637.781 21.7199 626 10C614.219 21.7199 602.438 23.3981 582.008 23.6384C578.107 23.6843 576.156 23.7072 574.703 24.4589C573.415 25.1252 572.393 26.1543 571.738 27.4435C571 28.8977 571 30.8056 571 34.6215V71.5536C571 105.124 607.808 129.54 621.201 137.313Z" stroke="#87BFFF" stroke-width="20" stroke-linecap="round" stroke-linejoin="round"/>
<path d="M620.21 104.285C623.815 107.919 627.163 107.891 630.769 104.285L635.176 99.9077C635.634 99.4786 636.034 99.3068 636.635 99.3068H642.816C647.938 99.3068 650.313 96.9607 650.313 91.8104V85.6302C650.313 85.0293 650.485 84.6288 650.914 84.171L655.264 79.7646C658.926 76.1595 658.898 72.8119 655.264 69.2067L650.914 64.8004C650.485 64.3712 650.313 63.9421 650.313 63.3699V57.1609C650.313 52.0679 647.967 49.6646 642.816 49.6646H636.635C636.034 49.6646 635.634 49.5215 635.176 49.0922L630.769 44.7146C627.163 41.0808 623.815 41.1095 620.21 44.7146L615.803 49.0922C615.374 49.5215 614.945 49.6646 614.372 49.6646H608.163C603.04 49.6646 600.665 52.0108 600.665 57.1609V63.3699C600.665 63.9421 600.522 64.3712 600.093 64.8004L595.715 69.2067C592.081 72.8119 592.109 76.1595 595.715 79.7646L600.093 84.171C600.522 84.6288 600.665 85.0293 600.665 85.6302V91.8104C600.665 96.932 603.04 99.3068 608.163 99.3068H614.372C614.945 99.3068 615.374 99.4786 615.803 99.9077L620.21 104.285ZM620.668 88.892C619.781 88.892 619.208 88.6058 618.779 88.1195L609.221 77.5042C608.821 77.0465 608.592 76.4742 608.592 75.8734C608.592 74.5285 609.622 73.5271 611.081 73.5271C611.854 73.5271 612.426 73.7847 612.941 74.3283L620.525 82.7117L635.262 61.9678C635.834 61.138 636.406 60.7946 637.408 60.7946C638.81 60.7946 639.811 61.8247 639.811 63.1696C639.811 63.6559 639.611 64.2282 639.296 64.6859L622.613 88.005C622.184 88.5486 621.526 88.892 620.668 88.892Z" fill="#3F8EFC"/>
</svg>
