<?xml version="1.0" encoding="UTF-8"?>
<svg version="1.1" xmlns="http://www.w3.org/2000/svg" width="300" height="300">
<path d="M0 0 C12.54 0 25.08 0 38 0 C38 0.66 38 1.32 38 2 C39.65 2.33 41.3 2.66 43 3 C43 3.99 43 4.98 43 6 C43.598125 6.103125 44.19625 6.20625 44.8125 6.3125 C47.36604035 7.11504125 48.32057364 7.93888584 50 10 C50.66666667 11.33333333 51.33333333 12.66666667 52 14 C52.99 14.495 52.99 14.495 54 15 C54.40729228 17.32156597 54.74438677 19.6568787 55 22 C55.99 22 56.98 22 58 22 C58 31.57 58 41.14 58 51 C57.01 51 56.02 51 55 51 C54.67 53.31 54.34 55.62 54 58 C53.01 58 52.02 58 51 58 C50.90074219 58.7643335 50.80148438 59.52866699 50.69921875 60.31616211 C49.90121225 63.37918077 49.26833032 64.04880674 46.8125 65.94140625 C42.74855385 69.28781191 39.02376929 72.86397571 35.3125 76.58984375 C34.72041748 77.18302399 34.12833496 77.77620422 33.51831055 78.38735962 C31.67681683 80.23537185 29.83835297 82.08636394 28 83.9375 C26.7359115 85.20661373 25.47159044 86.47549589 24.20703125 87.74414062 C21.13533276 90.8267632 18.06679992 93.91250428 15 97 C16.10601562 96.35160156 17.21203125 95.70320313 18.3515625 95.03515625 C20.45234658 93.8035777 21.98934523 93.0025235 24.375 92.4375 C25.179375 92.2209375 25.179375 92.2209375 26 92 C26.33 91.01 26.66 90.02 27 89 C36.9 88.505 36.9 88.505 47 88 C46.34 87.34 45.68 86.68 45 86 C44.66666667 80.66666667 44.66666667 80.66666667 46 78 C59.2 78 72.4 78 86 78 C86.33 78.66 86.66 79.32 87 80 C89.31850007 80.61432869 89.31850007 80.61432869 92 81 C94.75 81.4375 94.75 81.4375 97 82 C97.33 82.66 97.66 83.32 98 84 C100.02600175 84.22511131 102.05459276 84.4440878 104.08984375 84.55859375 C106 85 106 85 108 88 C110.56282742 88.72965366 110.56282742 88.72965366 113 89 C113.33 89.99 113.66 90.98 114 92 C114.5775 92.12375 115.155 92.2475 115.75 92.375 C119.13013025 93.31392507 120.71316406 95.4122646 123 98 C123.350625 98.721875 123.70125 99.44375 124.0625 100.1875 C125.29365471 102.56773244 126.60764943 102.87418797 129 104 C131.79745247 106.46834042 133.39270191 108.67059681 135 112 C135.66 112.33 136.32 112.66 137 113 C137.625 116.0625 137.625 116.0625 138 119 C138.99 118.67 139.98 118.34 141 118 C141.33 120.64 141.66 123.28 142 126 C142.99 126 143.98 126 145 126 C145.33 129.96 145.66 133.92 146 138 C146.99 138.33 147.98 138.66 149 139 C149 151.87 149 164.74 149 178 C148.01 178.33 147.02 178.66 146 179 C145.67 182.3 145.34 185.6 145 189 C144.01 189.33 143.02 189.66 142 190 C141.67 192.64 141.34 195.28 141 198 C140.01 197.67 139.02 197.34 138 197 C137.67 198.98 137.34 200.96 137 203 C135.68 203.33 134.36 203.66 133 204 C133 205.32 133 206.64 133 208 C132.01 208.33 131.02 208.66 130 209 C129.67 209.99 129.34 210.98 129 212 C127.37960346 213.71168648 125.7045305 215.37207761 124 217 C123.1028125 217.8971875 122.205625 218.794375 121.28125 219.71875 C118.52083333 222.47916667 115.76041667 225.23958333 113 228 C112.11183594 228.89976562 111.22367188 229.79953125 110.30859375 230.7265625 C108 233 108 233 105.5625 234.875 C102.74816182 237.20884142 100.60232268 239.75803273 98.33203125 242.609375 C97.89246094 243.06828125 97.45289063 243.5271875 97 244 C96.34 244 95.68 244 95 244 C94.34 245.32 93.68 246.64 93 248 C92.34 248 91.68 248 91 248 C90.79375 248.556875 90.5875 249.11375 90.375 249.6875 C88.48959912 252.85840149 85.84640641 254.68729479 83 257 C82.34 257.99 81.68 258.98 81 260 C80.34 260 79.68 260 79 260 C78.34 261.32 77.68 262.64 77 264 C76.34 264 75.68 264 75 264 C74.34 265.32 73.68 266.64 73 268 C72.34 268 71.68 268 71 268 C70.34 269.32 69.68 270.64 69 272 C68.34 272 67.68 272 67 272 C66.67 272.99 66.34 273.98 66 275 C63.5625 277.6875 63.5625 277.6875 61 280 C60.34 280 59.68 280 59 280 C58.34 281.32 57.68 282.64 57 284 C56.34 284 55.68 284 55 284 C54.67 284.99 54.34 285.98 54 287 C52.37660195 288.70884005 50.70680947 290.37446717 49 292 C48.195625 292.86625 48.195625 292.86625 47.375 293.75 C46 295 46 295 43 296 C41.97980427 296.9793879 40.97850195 297.97895449 40 299 C36.81884354 300.59057823 33.38041378 300.16300545 29.88671875 300.16796875 C29.08015335 300.17129715 28.27358795 300.17462555 27.44258118 300.17805481 C25.73361787 300.18312243 24.02464464 300.18546319 22.31567383 300.18530273 C19.70832846 300.18748259 17.10141072 300.20562141 14.49414062 300.22460938 C12.83333478 300.22754471 11.17252692 300.22952857 9.51171875 300.23046875 C8.73446945 300.23765427 7.95722015 300.24483978 7.15641785 300.25224304 C3.0182264 300.23489588 -0.3522043 300.04451864 -4 298 C-4.99 296.515 -4.99 296.515 -6 295 C-6.99 294.67 -7.98 294.34 -9 294 C-9.495 292.515 -9.495 292.515 -10 291 C-10.99 290.34 -11.98 289.68 -13 289 C-14.1875 286.875 -14.1875 286.875 -15 285 C-15.66 285 -16.32 285 -17 285 C-17.495 281.535 -17.495 281.535 -18 278 C-18.99 278 -19.98 278 -21 278 C-21 268.76 -21 259.52 -21 250 C-20.01 250.33 -19.02 250.66 -18 251 C-17.896875 249.88625 -17.79375 248.7725 -17.6875 247.625 C-17.460625 246.42875 -17.23375 245.2325 -17 244 C-16.01 243.34 -15.02 242.68 -14 242 C-13.67 241.01 -13.34 240.02 -13 239 C-10.68108896 236.48784637 -8.34357316 234.26220057 -5.625 232.1875 C-3.50662812 230.4221901 -2.00831143 228.88887899 -0.26953125 226.80078125 C5.75303069 219.84615615 12.41539782 213.480309 18.9375 207 C20.30296745 205.63955682 21.66820386 204.27888169 23.03320312 202.91796875 C26.35280886 199.6092969 29.67553273 196.30378678 33 193 C32.1946582 193.61705811 32.1946582 193.61705811 31.37304688 194.24658203 C30.66212891 194.78653809 29.95121094 195.32649414 29.21875 195.8828125 C28.51685547 196.41793457 27.81496094 196.95305664 27.09179688 197.50439453 C24.5329347 199.33394515 21.86492294 200.71078468 19 202 C19 202.66 19 203.32 19 204 C12.07 204.33 5.14 204.66 -2 205 C-1.34 205.66 -0.68 206.32 0 207 C0.33333333 212.33333333 0.33333333 212.33333333 -1 215 C-4.97114431 216.32371477 -8.79578775 216.1824184 -12.9375 216.203125 C-13.81398193 216.20882507 -14.69046387 216.21452515 -15.59350586 216.22039795 C-17.44611404 216.22983993 -19.29873896 216.23637875 -21.15136719 216.24023438 C-23.98922781 216.24996307 -26.82637113 216.28100291 -29.6640625 216.3125 C-31.46353736 216.31902796 -33.26301741 216.32427924 -35.0625 216.328125 C-35.91255615 216.3404718 -36.7626123 216.3528186 -37.63842773 216.36553955 C-43.62732182 216.34281506 -43.62732182 216.34281506 -45.62011719 214.50970459 C-46.07547852 214.01150208 -46.53083984 213.51329956 -47 213 C-49.04100238 212.42982192 -49.04100238 212.42982192 -51.1875 212.3125 C-53.0746875 212.1578125 -53.0746875 212.1578125 -55 212 C-55.33 210.68 -55.66 209.36 -56 208 C-58.64 208 -61.28 208 -64 208 C-64.33 207.01 -64.66 206.02 -65 205 C-65.825 204.67 -66.65 204.34 -67.5 204 C-68.325 203.67 -69.15 203.34 -70 203 C-70.33 202.01 -70.66 201.02 -71 200 C-73.50447516 198.78130071 -73.50447516 198.78130071 -76 198 C-76 197.34 -76 196.68 -76 196 C-77.32 196 -78.64 196 -80 196 C-80.495 194.02 -80.495 194.02 -81 192 C-81.99 192 -82.98 192 -84 192 C-84 190.68 -84 189.36 -84 188 C-84.86625 187.6596875 -84.86625 187.6596875 -85.75 187.3125 C-89.52284957 185.11167108 -91.62574899 182.40344128 -92.75 178.1875 C-92.8325 177.465625 -92.915 176.74375 -93 176 C-93.99 176.33 -94.98 176.66 -96 177 C-96.33 174.69 -96.66 172.38 -97 170 C-97.99 170 -98.98 170 -100 170 C-100.33 165.38 -100.66 160.76 -101 156 C-101.99 156 -102.98 156 -104 156 C-104 142.47 -104 128.94 -104 115 C-103.67 115.66 -103.34 116.32 -103 117 C-102.34 117 -101.68 117 -101 117 C-100.67 112.71 -100.34 108.42 -100 104 C-98.515 103.505 -98.515 103.505 -97 103 C-96.67 100.69 -96.34 98.38 -96 96 C-95.01 96 -94.02 96 -93 96 C-92.731875 95.195625 -92.46375 94.39125 -92.1875 93.5625 C-91.795625 92.716875 -91.40375 91.87125 -91 91 C-89.515 90.505 -89.515 90.505 -88 90 C-88 88.68 -88 87.36 -88 86 C-86.515 85.505 -86.515 85.505 -85 85 C-84.835 84.34 -84.67 83.68 -84.5 83 C-84.335 82.34 -84.17 81.68 -84 81 C-82.515 80.505 -82.515 80.505 -81 80 C-80.505 78.515 -80.505 78.515 -80 77 C-78.515 76.505 -78.515 76.505 -77 76 C-76.505 74.515 -76.505 74.515 -76 73 C-74.515 72.505 -74.515 72.505 -73 72 C-72.505 70.515 -72.505 70.515 -72 69 C-71.01 69 -70.02 69 -69 69 C-68.34 67.68 -67.68 66.36 -67 65 C-66.34 65 -65.68 65 -65 65 C-65 64.01 -65 63.02 -65 62 C-63.02 61.505 -63.02 61.505 -61 61 C-60.67 59.68 -60.34 58.36 -60 57 C-59.01 57 -58.02 57 -57 57 C-57 56.01 -57 55.02 -57 54 C-56.01 53.67 -55.02 53.34 -54 53 C-53.67 52.01 -53.34 51.02 -53 50 C-52.01 49.67 -51.02 49.34 -50 49 C-49.67 48.01 -49.34 47.02 -49 46 C-48.01 45.67 -47.02 45.34 -46 45 C-45.67 44.01 -45.34 43.02 -45 42 C-44.01 41.67 -43.02 41.34 -42 41 C-41.67 40.01 -41.34 39.02 -41 38 C-39.515 37.505 -39.515 37.505 -38 37 C-37.67 36.01 -37.34 35.02 -37 34 C-36.01 33.67 -35.02 33.34 -34 33 C-33.67 32.01 -33.34 31.02 -33 30 C-32.01 29.67 -31.02 29.34 -30 29 C-29.505 27.515 -29.505 27.515 -29 26 C-28.01 25.67 -27.02 25.34 -26 25 C-25.505 23.515 -25.505 23.515 -25 22 C-24.01 21.67 -23.02 21.34 -22 21 C-21.505 19.515 -21.505 19.515 -21 18 C-20.01 17.67 -19.02 17.34 -18 17 C-17.505 15.515 -17.505 15.515 -17 14 C-16.01 13.67 -15.02 13.34 -14 13 C-13.67 12.01 -13.34 11.02 -13 10 C-12.01 9.67 -11.02 9.34 -10 9 C-9.67 8.01 -9.34 7.02 -9 6 C-7.68 6 -6.36 6 -5 6 C-5 5.01 -5 4.02 -5 3 C-2.525 2.505 -2.525 2.505 0 2 C0 1.34 0 0.68 0 0 Z M53 91 C53.66 91.66 54.32 92.32 55 93 C55.99 92.67 56.98 92.34 58 92 C56.35 91.67 54.7 91.34 53 91 Z M59 93 C59.639375 93.61875 60.27875 94.2375 60.9375 94.875 C67.41221354 101.40521108 73.35972752 107.45327331 77 116 C77.76221316 114.224434 77.76221316 114.224434 78 112 C76.95792566 109.73169518 76.95792566 109.73169518 75.3125 107.5625 C74.75046875 106.77488281 74.1884375 105.98726562 73.609375 105.17578125 C73.07828125 104.45777344 72.5471875 103.73976563 72 103 C71.360625 102.0925 70.72125 101.185 70.0625 100.25 C67.39323024 97.33806935 64.42321577 94.98141799 61 93 C60.34 93 59.68 93 59 93 Z M13 98 C12.01 99.485 12.01 99.485 11 101 C11.99 100.67 12.98 100.34 14 100 C13.67 99.34 13.34 98.68 13 98 Z M10 101 C7.69 103.31 5.38 105.62 3 108 C6.24565858 108.34055197 6.24565858 108.34055197 8.6875 105.5 C9.450625 104.675 10.21375 103.85 11 103 C10.67 102.34 10.34 101.68 10 101 Z M1 110 C0.01 111.485 0.01 111.485 -1 113 C-0.01 112.67 0.98 112.34 2 112 C1.67 111.34 1.34 110.68 1 110 Z M-2 113 C-2.99 113.99 -3.98 114.98 -5 116 C-4.01 116 -3.02 116 -2 116 C-2 115.01 -2 114.02 -2 113 Z M78 116 C79 118 79 118 79 118 Z M-6 117 C-6.99 117.99 -7.98 118.98 -9 120 C-8.01 120 -7.02 120 -6 120 C-6 119.01 -6 118.02 -6 117 Z M79 121 C79 126.28 79 131.56 79 137 C82.40131554 134.24666281 82.40131554 134.24666281 82.3125 130.125 C82.19349602 126.73025484 81.5337071 124.0674142 80 121 C79.67 121 79.34 121 79 121 Z M-12 122 C-12 122.66 -12 123.32 -12 124 C-11.34 124 -10.68 124 -10 124 C-10 123.34 -10 122.68 -10 122 C-10.66 122 -11.32 122 -12 122 Z M-15 126 C-15.33 126.66 -15.66 127.32 -16 128 C-15.34 128 -14.68 128 -14 128 C-14.33 127.34 -14.66 126.68 -15 126 Z M-18 129 C-18.99 129.495 -18.99 129.495 -20 130 C-20 130.66 -20 131.32 -20 132 C-19.01 131.67 -18.02 131.34 -17 131 C-17.33 130.34 -17.66 129.68 -18 129 Z M-22 133 C-22.99 133.99 -23.98 134.98 -25 136 C-24.01 136 -23.02 136 -22 136 C-22 135.01 -22 134.02 -22 133 Z M-26 137 C-27.20276695 138.40372802 -28.38680519 139.82352097 -29.5625 141.25 C-30.22378906 142.03890625 -30.88507813 142.8278125 -31.56640625 143.640625 C-33.257 145.87304376 -33.257 145.87304376 -32.71484375 148.296875 C-32.47894531 148.85890625 -32.24304688 149.4209375 -32 150 C-30.99193149 148.40089132 -29.99379615 146.79551738 -29 145.1875 C-28.443125 144.29417969 -27.88625 143.40085938 -27.3125 142.48046875 C-25.76615208 140.02577377 -25.76615208 140.02577377 -26 137 Z M78 139 C77.54173828 140.09054688 77.54173828 140.09054688 77.07421875 141.203125 C73.06038086 150.02226178 67.78281997 156.1958839 61 163 C60.39542969 163.60714844 59.79085937 164.21429688 59.16796875 164.83984375 C58.78253906 165.22269531 58.39710938 165.60554688 58 166 C58.33 166.66 58.66 167.32 59 168 C61.43370015 165.68391361 63.84345729 163.34426618 66.25 161 C66.93191406 160.35160156 67.61382812 159.70320313 68.31640625 159.03515625 C74.28665849 153.18083124 78.15121531 147.48784694 79 139 C78.67 139 78.34 139 78 139 Z M-34 150 C-36.09350689 153.4019487 -36.17942163 156.05272412 -36 160 C-33.64551835 157.44931155 -33.01672076 156.28982642 -32.8125 152.75 C-32.874375 151.8425 -32.93625 150.935 -33 150 C-33.33 150 -33.66 150 -34 150 Z M56 168 C55.34 169.32 54.68 170.64 54 172 C54.99 171.67 55.98 171.34 57 171 C57.33 170.01 57.66 169.02 58 168 C57.34 168 56.68 168 56 168 Z M-36 169 C-35.88637738 170.4800841 -35.75877092 171.95910074 -35.625 173.4375 C-35.55539063 174.26121094 -35.48578125 175.08492187 -35.4140625 175.93359375 C-35.27742188 176.61550781 -35.14078125 177.29742187 -35 178 C-34.34 178.33 -33.68 178.66 -33 179 C-33.12375 177.72125 -33.2475 176.4425 -33.375 175.125 C-33.44460937 174.40570313 -33.51421875 173.68640625 -33.5859375 172.9453125 C-33.86374749 170.77331755 -33.86374749 170.77331755 -36 169 Z M52 172 C51.34 173.32 50.68 174.64 50 176 C51.32 174.68 52.64 173.36 54 172 C53.34 172 52.68 172 52 172 Z M48 176 C47.34 177.32 46.68 178.64 46 180 C47.32 178.68 48.64 177.36 50 176 C49.34 176 48.68 176 48 176 Z M-33 179 C-32.60791281 184.35852494 -30.6642613 188.14168125 -27 192 C-26.34 192 -25.68 192 -25 192 C-26.45668783 189.03216871 -28.01232086 186.13584687 -29.625 183.25 C-30.07101563 182.45078125 -30.51703125 181.6515625 -30.9765625 180.828125 C-31.31429687 180.22484375 -31.65203125 179.6215625 -32 179 C-32.33 179 -32.66 179 -33 179 Z M44 180 C43.34 181.32 42.68 182.64 42 184 C43.32 182.68 44.64 181.36 46 180 C45.34 180 44.68 180 44 180 Z M40 184 C39.34 185.32 38.68 186.64 38 188 C39.32 186.68 40.64 185.36 42 184 C41.34 184 40.68 184 40 184 Z M36 188 C35.34 189.32 34.68 190.64 34 192 C35.32 190.68 36.64 189.36 38 188 C37.34 188 36.68 188 36 188 Z M-25 192 C-24.34 193.32 -23.68 194.64 -23 196 C-22.34 195.67 -21.68 195.34 -21 195 C-21.97850195 193.97895449 -22.97980427 192.9793879 -24 192 C-24.33 192 -24.66 192 -25 192 Z M-21 196 C-19.79307846 199.62076461 -18.25895772 200.37428173 -14.98828125 202.1484375 C-11.98928277 203.43288086 -9.24220658 203.73533008 -6 204 C-8.58937338 201.95007941 -11.29320546 200.10769646 -14.0625 198.3125 C-14.73410156 197.87550781 -15.40570313 197.43851563 -16.09765625 196.98828125 C-18.08640824 195.76949577 -18.08640824 195.76949577 -21 196 Z " fill="#27BE88" transform="translate(126,0)"/>
<path d="M0 0 C13.2 0 26.4 0 40 0 C40.495 0.99 40.495 0.99 41 2 C43.31850007 2.61432869 43.31850007 2.61432869 46 3 C48.75 3.4375 48.75 3.4375 51 4 C51.495 4.99 51.495 4.99 52 6 C54.02600175 6.22511131 56.05459276 6.4440878 58.08984375 6.55859375 C60 7 60 7 62 10 C64.56282742 10.72965366 64.56282742 10.72965366 67 11 C67.33 11.99 67.66 12.98 68 14 C68.5775 14.12375 69.155 14.2475 69.75 14.375 C73.13013025 15.31392507 74.71316406 17.4122646 77 20 C77.350625 20.721875 77.70125 21.44375 78.0625 22.1875 C79.29365471 24.56773244 80.60764943 24.87418797 83 26 C85.79745247 28.46834042 87.39270191 30.67059681 89 34 C89.66 34.33 90.32 34.66 91 35 C91.625 38.0625 91.625 38.0625 92 41 C92.99 40.67 93.98 40.34 95 40 C95.33 42.64 95.66 45.28 96 48 C96.99 48 97.98 48 99 48 C99.33 51.96 99.66 55.92 100 60 C100.99 60.33 101.98 60.66 103 61 C103 73.87 103 86.74 103 100 C102.01 100.33 101.02 100.66 100 101 C99.67 104.3 99.34 107.6 99 111 C98.01 111.33 97.02 111.66 96 112 C95.67 114.64 95.34 117.28 95 120 C94.01 119.67 93.02 119.34 92 119 C91.67 120.98 91.34 122.96 91 125 C89.68 125.33 88.36 125.66 87 126 C87 127.32 87 128.64 87 130 C86.01 130.33 85.02 130.66 84 131 C83.67 131.99 83.34 132.98 83 134 C81.37960346 135.71168648 79.7045305 137.37207761 78 139 C77.1028125 139.8971875 76.205625 140.794375 75.28125 141.71875 C72.52083333 144.47916667 69.76041667 147.23958333 67 150 C66.11183594 150.89976562 65.22367188 151.79953125 64.30859375 152.7265625 C62 155 62 155 59.5625 156.875 C56.74816182 159.20884142 54.60232268 161.75803273 52.33203125 164.609375 C51.89246094 165.06828125 51.45289063 165.5271875 51 166 C50.34 166 49.68 166 49 166 C48.34 167.32 47.68 168.64 47 170 C46.34 170 45.68 170 45 170 C44.79375 170.556875 44.5875 171.11375 44.375 171.6875 C42.48959912 174.85840149 39.84640641 176.68729479 37 179 C36.34 179.99 35.68 180.98 35 182 C34.34 182 33.68 182 33 182 C32.34 183.32 31.68 184.64 31 186 C30.34 186 29.68 186 29 186 C28.34 187.32 27.68 188.64 27 190 C26.34 190 25.68 190 25 190 C24.34 191.32 23.68 192.64 23 194 C22.34 194 21.68 194 21 194 C20.67 194.99 20.34 195.98 20 197 C17.5625 199.6875 17.5625 199.6875 15 202 C14.34 202 13.68 202 13 202 C12.34 203.32 11.68 204.64 11 206 C10.34 206 9.68 206 9 206 C8.67 206.99 8.34 207.98 8 209 C6.37660195 210.70884005 4.70680947 212.37446717 3 214 C2.46375 214.5775 1.9275 215.155 1.375 215.75 C0 217 0 217 -3 218 C-4.02019573 218.9793879 -5.02149805 219.97895449 -6 221 C-9.18115646 222.59057823 -12.61958622 222.16300545 -16.11328125 222.16796875 C-16.91984665 222.17129715 -17.72641205 222.17462555 -18.55741882 222.17805481 C-20.26638213 222.18312243 -21.97535536 222.18546319 -23.68432617 222.18530273 C-26.29167154 222.18748259 -28.89858928 222.20562141 -31.50585938 222.22460938 C-33.16666522 222.22754471 -34.82747308 222.22952857 -36.48828125 222.23046875 C-37.26553055 222.23765427 -38.04277985 222.24483978 -38.84358215 222.25224304 C-42.9817736 222.23489588 -46.3522043 222.04451864 -50 220 C-50.66 219.01 -51.32 218.02 -52 217 C-52.99 216.67 -53.98 216.34 -55 216 C-55.33 215.01 -55.66 214.02 -56 213 C-56.99 212.34 -57.98 211.68 -59 211 C-60.1875 208.875 -60.1875 208.875 -61 207 C-61.66 207 -62.32 207 -63 207 C-63.33 204.69 -63.66 202.38 -64 200 C-64.99 200 -65.98 200 -67 200 C-67 190.76 -67 181.52 -67 172 C-66.01 172.33 -65.02 172.66 -64 173 C-63.896875 171.88625 -63.79375 170.7725 -63.6875 169.625 C-63.460625 168.42875 -63.23375 167.2325 -63 166 C-61.515 165.01 -61.515 165.01 -60 164 C-59.67 163.01 -59.34 162.02 -59 161 C-56.68108896 158.48784637 -54.34357316 156.26220057 -51.625 154.1875 C-49.45868049 152.38223374 -47.86849564 150.74389511 -46.0715332 148.609375 C-41.06228953 142.83021086 -35.63331537 137.46898506 -30.23046875 132.0625 C-29.10176044 130.93057272 -27.97312502 129.79857276 -26.84455872 128.66650391 C-24.49554782 126.31154564 -22.14452067 123.9586219 -19.79223633 121.60693359 C-16.77305394 118.58785369 -13.76086068 115.56189996 -10.75030041 112.53422546 C-8.42979014 110.20263534 -6.10478847 107.87556512 -3.77846718 105.54977417 C-2.66484345 104.43496843 -1.55284543 103.3185363 -0.44249535 102.20046997 C1.10112345 100.64711343 2.6508759 99.10014984 4.20239258 97.5546875 C5.52307487 96.23186768 5.52307487 96.23186768 6.87043762 94.88232422 C9 93 9 93 11 93 C11.26570801 92.40541992 11.53141602 91.81083984 11.80517578 91.19824219 C13.03179622 88.94150118 14.24986392 87.57358344 16.1171875 85.828125 C17.02791016 84.95414063 17.02791016 84.95414063 17.95703125 84.0625 C19.22375759 82.8654307 20.4945284 81.67262508 21.76953125 80.484375 C28.19953842 74.28546745 30.81164128 68.82780766 32 60 C32.515625 59.360625 33.03125 58.72125 33.5625 58.0625 C35.77981118 54.88114049 35.51253563 51.69565162 35 48 C34.37514823 45.93318259 33.61973914 43.98758727 32.77734375 42 C31.9977016 39.99408652 31.5873185 38.11038221 31.1875 36 C29.28526994 27.93137415 21.81997962 20.33998703 15 16 C10.57278973 14.10711402 10.57278973 14.10711402 6 15 C6 14.01 6 13.02 6 12 C4.35 12 2.7 12 1 12 C-1.09440189 8.59659693 -1.25797575 5.95562822 -1 2 C-0.67 1.34 -0.34 0.68 0 0 Z " fill="#28BE88" transform="translate(172,78)"/>
<path d="M0 0 C3.22914752 -0.02917228 6.45826083 -0.04685663 9.6875 -0.0625 C10.59951172 -0.07087891 11.51152344 -0.07925781 12.45117188 -0.08789062 C13.33740234 -0.09111328 14.22363281 -0.09433594 15.13671875 -0.09765625 C15.94842529 -0.10289307 16.76013184 -0.10812988 17.59643555 -0.11352539 C20.14864673 0.0070209 22.51026137 0.440051 25 1 C25 1.99 25 2.98 25 4 C26.0415625 3.90976563 27.083125 3.81953125 28.15625 3.7265625 C34.91643923 4.20747027 38.5732347 9.22871405 43 14 C52.00620298 25.0129327 53.25555586 35.14807998 52 49 C51.1846895 52.46970208 49.95269282 55.04044994 48 58 C47.5875 58.71800781 47.175 59.43601563 46.75 60.17578125 C43.33888399 65.78667946 39.02716431 70.16957043 34.3203125 74.71484375 C32.50457361 76.50307145 30.88522486 78.25545158 29.3125 80.25 C26.96636477 83.03999865 24.48313234 85.18637323 21.6875 87.5 C19.75444683 89.14332242 19.75444683 89.14332242 17.5 92 C15.07842178 94.90589386 12.5869522 97.16101048 9.69140625 99.5625 C8.20829476 100.82297351 6.81380178 102.18619822 5.4375 103.5625 C1.369969 107.630031 -2.40750658 111.19066389 -8 113 C-8 113.66 -8 114.32 -8 115 C-34.94790859 116.21009607 -34.94790859 116.21009607 -44 109 C-44.91265625 108.48050781 -45.8253125 107.96101563 -46.765625 107.42578125 C-47.87164062 106.72001953 -47.87164062 106.72001953 -49 106 C-49 105.34 -49 104.68 -49 104 C-49.99 103.67 -50.98 103.34 -52 103 C-58.80550059 93.90313127 -63.36439158 84.50007892 -63.30078125 73.0078125 C-62.95299824 70.68624798 -62.07970455 69.0728679 -61 67 C-60.773125 65.824375 -60.54625 64.64875 -60.3125 63.4375 C-58.36934903 55.31573617 -53.09449523 48.18305363 -46.48046875 43.21875 C-44.71333796 41.88399475 -44.71333796 41.88399475 -43 39 C-42.34 39 -41.68 39 -41 39 C-40.34 37.68 -39.68 36.36 -39 35 C-38.34 35 -37.68 35 -37 35 C-36.67 34.01 -36.34 33.02 -36 32 C-34.546875 30.60546875 -34.546875 30.60546875 -32.75 29.1875 C-30.34191195 27.2052324 -28.52188528 25.42626234 -26.5 23 C-24.06169727 20.07403673 -21.53915429 17.84530096 -18.6171875 15.4375 C-16.81731488 13.93193828 -16.81731488 13.93193828 -15.0625 11.4375 C-11.9267415 7.73160359 -7.64042561 4.5469453 -2.8125 3.546875 C-2.214375 3.36640625 -1.61625 3.1859375 -1 3 C-0.67 2.01 -0.34 1.02 0 0 Z " fill="#345DAC" transform="translate(153,89)"/>
<path d="M0 0 C0 3 0 3 -1.35546875 4.6484375 C-1.96003906 5.21820313 -2.56460938 5.78796875 -3.1875 6.375 C-3.82816406 6.98730469 -4.46882813 7.59960938 -5.12890625 8.23046875 C-5.74636719 8.81441406 -6.36382812 9.39835938 -7 10 C-7.86625 10.886875 -8.7325 11.77375 -9.625 12.6875 C-16.10810811 19 -16.10810811 19 -19 19 C-19 18.01 -19 17.02 -19 16 C-18.01 15.67 -17.02 15.34 -16 15 C-15.67 14.01 -15.34 13.02 -15 12 C-14.01 11.67 -13.02 11.34 -12 11 C-11.67 10.01 -11.34 9.02 -11 8 C-10.01 7.67 -9.02 7.34 -8 7 C-7.67 6.01 -7.34 5.02 -7 4 C-5.68 4 -4.36 4 -3 4 C-3 3.01 -3 2.02 -3 1 C-2.01 0.67 -1.02 0.34 0 0 Z " fill="#1DA973" transform="translate(124,2)"/>
<path d="M0 0 C1.98 0.495 1.98 0.495 4 1 C3.34 3.31 2.68 5.62 2 8 C2.86625 8.433125 2.86625 8.433125 3.75 8.875 C5.83333333 9.91666667 7.91666667 10.95833333 10 12 C9.67 12.99 9.34 13.98 9 15 C8.01 15 7.02 15 6 15 C6 14.01 6 13.02 6 12 C4.35 12 2.7 12 1 12 C-1.09440189 8.59659693 -1.25797575 5.95562822 -1 2 C-0.67 1.34 -0.34 0.68 0 0 Z " fill="#0BA961" transform="translate(172,78)"/>
<path d="M0 0 C0.33 0.66 0.66 1.32 1 2 C-1.62368232 6.17845703 -4.24345739 9.72506542 -8 13 C-8.99 13 -9.98 13 -11 13 C-11 13.66 -11 14.32 -11 15 C-11.66 15 -12.32 15 -13 15 C-11.38989473 10.92623969 -8.46177729 8.23492931 -5.375 5.25 C-4.859375 4.74339844 -4.34375 4.23679688 -3.8125 3.71484375 C-2.54616661 2.47196098 -1.2736856 1.23534724 0 0 Z " fill="#18D77D" transform="translate(174,178)"/>
<path d="M0 0 C4.875 1.875 4.875 1.875 6 3 C6.23529412 8.52941176 6.23529412 8.52941176 5 11 C2.4375 11.625 2.4375 11.625 0 12 C0.58803797 8.97580475 1.22678118 5.98241547 2 3 C1.34 2.67 0.68 2.34 0 2 C0 1.34 0 0.68 0 0 Z " fill="#12C17B" transform="translate(120,204)"/>
<path d="M0 0 C-1.44077046 3.36179774 -3.24750021 5.59156268 -6 8 C-6.66 8 -7.32 8 -8 8 C-8.33 8.99 -8.66 9.98 -9 11 C-9.66 11 -10.32 11 -11 11 C-11.33 11.99 -11.66 12.98 -12 14 C-13.32 13.67 -14.64 13.34 -16 13 C-15.46890625 12.55269531 -14.9378125 12.10539062 -14.390625 11.64453125 C-10.50373088 8.31797406 -7.11962191 5.07950557 -4 1 C-2 0 -2 0 0 0 Z " fill="#273EB2" transform="translate(144,97)"/>
<path d="M0 0 C0.66 0 1.32 0 2 0 C1.67 6.93 1.34 13.86 1 21 C0.34 20.67 -0.32 20.34 -1 20 C-2.38882043 12.99989704 -2.20684695 6.75035539 0 0 Z " fill="#13C15C" transform="translate(89,152)"/>
<path d="M0 0 C0.33 2.64 0.66 5.28 1 8 C1.99 8 2.98 8 4 8 C3.67 9.32 3.34 10.64 3 12 C3 11.34 3 10.68 3 10 C2.34 10 1.68 10 1 10 C0.67 10.66 0.34 11.32 0 12 C-0.50615298 10.73160474 -1.00469099 9.46016898 -1.5 8.1875 C-1.7784375 7.47980469 -2.056875 6.77210937 -2.34375 6.04296875 C-3 4 -3 4 -3 1 C-1 0 -1 0 0 0 Z " fill="#0F9771" transform="translate(267,118)"/>
<path d="M0 0 C0.33 0.99 0.66 1.98 1 3 C-1.10078511 6.07614963 -2.88621595 7.92414397 -6 10 C-6.99 9.67 -7.98 9.34 -9 9 C-6.03 6.03 -3.06 3.06 0 0 Z " fill="#1CB881" transform="translate(139,213)"/>
<path d="M0 0 C-1.49041773 3.79379058 -3.69062512 5.68343758 -7 8 C-7.66 8 -8.32 8 -9 8 C-9 7.01 -9 6.02 -9 5 C-8.01 4.67 -7.02 4.34 -6 4 C-5.67 3.01 -5.34 2.02 -5 1 C-2 0 -2 0 0 0 Z " fill="#1BB87C" transform="translate(114,13)"/>
<path d="M0 0 C0.33 0 0.66 0 1 0 C1 1.65 1 3.3 1 5 C1.66 5.33 2.32 5.66 3 6 C2.41321669 9.52069985 1.64350079 11.71299843 0 15 C0 10.05 0 5.1 0 0 Z " fill="#1D9976" transform="translate(105,250)"/>
<path d="M0 0 C0.99 0.33 1.98 0.66 3 1 C3 3.31 3 5.62 3 8 C2.01 8 1.02 8 0 8 C-0.79953138 4.71303767 -1.09658936 3.28976808 0 0 Z " fill="#0DCA8B" transform="translate(272,138)"/>
<path d="M0 0 C0.66 0.33 1.32 0.66 2 1 C1.26418258 2.1549921 0.51069961 3.29874185 -0.25 4.4375 C-0.66765625 5.07558594 -1.0853125 5.71367187 -1.515625 6.37109375 C-3.27248877 8.29902057 -4.46089803 8.61479436 -7 9 C-5.03681826 5.46627288 -2.95929119 2.75520215 0 0 Z " fill="#3D37B4" transform="translate(110,128)"/>
<path d="M0 0 C1.46534385 3.80989402 0.55203911 6.3241179 -1 10 C-1.99 10.495 -1.99 10.495 -3 11 C-2.69217504 9.35328588 -2.37860766 7.70764424 -2.0625 6.0625 C-1.88847656 5.14597656 -1.71445313 4.22945312 -1.53515625 3.28515625 C-1 1 -1 1 0 0 Z " fill="#2D37B7" transform="translate(95,147)"/>
<path d="M0 0 C0.33 0.66 0.66 1.32 1 2 C1.66 2 2.32 2 3 2 C3.33 1.34 3.66 0.68 4 0 C3.50168276 3.68754757 2.89932357 5.60490662 0 8 C0 5.36 0 2.72 0 0 Z " fill="#0F915A" transform="translate(22,115)"/>
<path d="M0 0 C0.66 0 1.32 0 2 0 C1.67 1.32 1.34 2.64 1 4 C0.34 4 -0.32 4 -1 4 C-1.33 5.32 -1.66 6.64 -2 8 C-2.66 8 -3.32 8 -4 8 C-2.87548273 5.0280615 -1.77706209 2.66559313 0 0 Z " fill="#2130B7" transform="translate(101,137)"/>
<path d="M0 0 C2.99693138 0.99897713 4.02709413 1.65130253 6 4 C6 4.66 6 5.32 6 6 C4.02 5.34 2.04 4.68 0 4 C0 2.68 0 1.36 0 0 Z " fill="#11BD85" transform="translate(170,6)"/>
<path d="M0 0 C-1.39332574 3.36720387 -2.9789286 4.9859524 -6 7 C-6.66 6.67 -7.32 6.34 -8 6 C-7.0479279 4.99403703 -6.08812654 3.99538437 -5.125 3 C-4.59132812 2.443125 -4.05765625 1.88625 -3.5078125 1.3125 C-2 0 -2 0 0 0 Z " fill="#19D875" transform="translate(183,171)"/>
<path d="M0 0 C0.66 0 1.32 0 2 0 C3.80230168 3.82989106 4.19622241 6.78121808 4 11 C3.33333333 9.66666667 2.66666667 8.33333333 2 7 C1.62875 6.319375 1.2575 5.63875 0.875 4.9375 C0 3 0 3 0 0 Z " fill="#08E04E" transform="translate(204,115)"/>
<path d="M0 0 C1.2065625 0.0309375 1.2065625 0.0309375 2.4375 0.0625 C2.7675 1.0525 3.0975 2.0425 3.4375 3.0625 C2.1175 3.3925 0.7975 3.7225 -0.5625 4.0625 C-0.8925 3.4025 -1.2225 2.7425 -1.5625 2.0625 C-2.2225 1.7325 -2.8825 1.4025 -3.5625 1.0625 C-2.5625 0.0625 -2.5625 0.0625 0 0 Z " fill="#19AE64" transform="translate(209.5625,77.9375)"/>
</svg>
